<svg width="28" height="28" viewBox="0 0 28 28" fill="none" xmlns="http://www.w3.org/2000/svg">
<path opacity="0.4" d="M20.2344 0.666748H7.7781C3.23884 0.666748 0.666992 3.2386 0.666992 7.77786V20.2223C0.666992 24.7616 3.23884 27.3334 7.7781 27.3334H20.2344C24.7737 27.3334 27.3337 24.7616 27.3337 20.2223V7.77786C27.3337 3.2386 24.7737 0.666748 20.2344 0.666748" fill="#00C9B7"/>
<path d="M7.82488 10.4919C7.22043 10.4919 6.72266 10.9897 6.72266 11.606V20.7675C6.72266 21.3719 7.22043 21.8697 7.82488 21.8697C8.44117 21.8697 8.93895 21.3719 8.93895 20.7675V11.606C8.93895 10.9897 8.44117 10.4919 7.82488 10.4919" fill="#00C9B7"/>
<path d="M14.0475 6.11865C13.4431 6.11865 12.9453 6.61643 12.9453 7.23273V20.7675C12.9453 21.372 13.4431 21.8698 14.0475 21.8698C14.6638 21.8698 15.1616 21.372 15.1616 20.7675V7.23273C15.1616 6.61643 14.6638 6.11865 14.0475 6.11865" fill="#00C9B7"/>
<path d="M20.1873 15.3276C19.571 15.3276 19.0732 15.8254 19.0732 16.4417V20.7676C19.0732 21.3721 19.571 21.8699 20.1755 21.8699C20.7918 21.8699 21.2895 21.3721 21.2895 20.7676V16.4417C21.2895 15.8254 20.7918 15.3276 20.1873 15.3276" fill="#00C9B7"/>
</svg>
