<svg width="156" height="121" viewBox="0 0 156 121" fill="none" xmlns="http://www.w3.org/2000/svg">
<g clip-path="url(#clip0_90_602)">
<path d="M107.541 56.476V43.5C109.999 42.9303 111.846 40.7482 111.846 38.1341V35.6676C111.846 32.6186 109.351 30.14 106.28 30.14H88.3967C85.3264 30.14 82.8304 32.6184 82.8304 35.6676V38.1341C82.8304 40.7491 84.6646 42.9303 87.124 43.5V56.476C84.441 57.3561 81.9321 58.5828 79.6355 60.0827L73.9571 50.1809V29.7936C76.9648 29.7193 79.3857 27.278 79.3857 24.2781V19.2469C79.3857 16.1979 76.8899 13.7192 73.8194 13.7192H49.2962C46.2259 13.7192 43.7299 16.1977 43.7299 19.2469V24.2781C43.7299 27.2771 46.1508 29.7193 49.1585 29.7936V50.193L28.3169 86.5431C25.471 91.5 25.4964 97.4123 28.3917 102.344C31.2871 107.277 36.4416 110.227 42.1951 110.227H115.751C118.659 110.227 121.43 108.863 123.165 106.596C123.626 105.989 124.076 105.356 124.5 104.712C127.969 99.4697 129.791 93.3726 129.791 87.0763C129.791 73.196 120.719 60.8157 107.539 56.4891L107.541 56.476ZM115.753 106.496H91.1782C92.5632 105.331 93.774 103.956 94.7221 102.332C94.7473 102.283 94.7717 102.233 94.7969 102.184H113.317C115.589 102.184 117.648 100.981 118.683 99.048C120.543 95.5901 121.529 91.674 121.529 87.7458C121.529 83.2842 120.294 78.9341 117.948 75.1787C117.536 74.5096 116.75 74.175 115.964 74.3358C109.712 75.6619 104.058 75.9222 99.1662 75.1415C95.2096 74.4975 91.341 74.1249 87.5845 73.9641L81.482 63.3308C83.9029 61.7324 86.5991 60.4675 89.4944 59.6498C90.3058 59.4267 90.8551 58.6954 90.8551 57.8655V43.6749H103.784V57.8655C103.784 58.6962 104.346 59.4267 105.145 59.6498C117.438 63.0947 126.024 74.3728 126.024 87.0767C126.024 92.6415 124.401 98.0324 121.332 102.68C120.957 103.25 120.571 103.808 120.158 104.341C119.122 105.692 117.462 106.51 115.728 106.51L115.753 106.496ZM42.1964 106.496C37.7905 106.496 33.8471 104.241 31.6386 100.461C29.43 96.6811 29.4049 92.1571 31.5889 88.3647L52.6804 51.5942C52.8423 51.3089 52.9302 50.9994 52.9302 50.6769L52.9293 29.8072H70.2391V50.6778C70.2391 51.0003 70.3261 51.3219 70.4889 51.595L91.5804 88.3656C93.7645 92.1582 93.7393 96.6811 91.5307 100.462C89.3222 104.241 85.3656 106.497 80.9729 106.497L42.1964 106.496ZM47.4755 24.2799V19.2487C47.4755 18.2571 48.2868 17.4393 49.2975 17.4393H73.8207C74.8314 17.4393 75.6427 18.245 75.6427 19.2487V24.2799C75.6427 25.2715 74.8314 26.0893 73.8207 26.0893H49.2975C48.2868 26.0893 47.4755 25.2836 47.4755 24.2799ZM86.5757 38.1359V35.6694C86.5757 34.6778 87.3871 33.86 88.3978 33.86H106.281C107.292 33.86 108.103 34.6657 108.103 35.6694V38.1359C108.103 39.1396 107.292 39.9453 106.281 39.9453H88.3978C87.3993 39.9453 86.5757 39.1396 86.5757 38.1359Z" fill="white"/>
<path d="M77.7508 101.316C80.8334 101.316 83.5913 99.7415 85.127 97.0891C86.6748 94.4489 86.6748 91.2893 85.1522 88.6371L75.3177 71.5841C74.906 70.8657 74.0572 70.4931 73.2459 70.704C70.4506 71.3853 68.5407 70.8648 66.1075 70.1957C62.3885 69.1791 57.7582 67.9032 48.8352 70.7282C48.386 70.8648 48.0117 71.1743 47.774 71.5711L37.9396 88.637C36.417 91.2891 36.417 94.4499 37.9648 97.089C39.5126 99.7292 42.2704 101.316 45.3409 101.316L77.7508 101.316Z" fill="white"/>
</g>
<defs>
<clipPath id="clip0_90_602">
<rect width="156" height="121" fill="white"/>
</clipPath>
</defs>
</svg>
