<?xml version="1.0" encoding="UTF-8" standalone="no"?>
<!-- Created with Inkscape (http://www.inkscape.org/) -->

<svg
   version="1.1"
   id="svg2381"
   width="1066.6667"
   height="1066.6667"
   viewBox="0 0 1066.6667 1066.6667"
   sodipodi:docname="collection-quiz.svg"
   inkscape:version="1.2.2 (1:1.2.2+202212051552+b0a8486541)"
   xmlns:inkscape="http://www.inkscape.org/namespaces/inkscape"
   xmlns:sodipodi="http://sodipodi.sourceforge.net/DTD/sodipodi-0.dtd"
   xmlns="http://www.w3.org/2000/svg"
   xmlns:svg="http://www.w3.org/2000/svg">
  <defs
     id="defs2385">
    <clipPath
       clipPathUnits="userSpaceOnUse"
       id="clipPath2399">
      <path
         d="M 0,800 H 800 V 0 H 0 Z"
         id="path2397" />
    </clipPath>
    <clipPath
       clipPathUnits="userSpaceOnUse"
       id="clipPath2407">
      <path
         d="m 732.036,371.142 h 23.136 v -24.938 h -23.136 z"
         id="path2405" />
    </clipPath>
    <clipPath
       clipPathUnits="userSpaceOnUse"
       id="clipPath2423">
      <path
         d="m 101.317,201.215 h 23.136 v -24.938 h -23.136 z"
         id="path2421" />
    </clipPath>
    <clipPath
       clipPathUnits="userSpaceOnUse"
       id="clipPath2447">
      <path
         d="M 0,800 H 800 V 0 H 0 Z"
         id="path2445" />
    </clipPath>
    <clipPath
       clipPathUnits="userSpaceOnUse"
       id="clipPath2507">
      <path
         d="M 125.983,487.12 H 205.02 V 369.819 h -79.037 z"
         id="path2505" />
    </clipPath>
    <clipPath
       clipPathUnits="userSpaceOnUse"
       id="clipPath2539">
      <path
         d="m 654.183,427.618 h 29.804 v -91.345 h -29.804 z"
         id="path2537" />
    </clipPath>
    <clipPath
       clipPathUnits="userSpaceOnUse"
       id="clipPath2559">
      <path
         d="M 0,800 H 800 V 0 H 0 Z"
         id="path2557" />
    </clipPath>
    <clipPath
       clipPathUnits="userSpaceOnUse"
       id="clipPath2749">
      <path
         d="m 188.677,370.375 h 80.13 v -116.13 h -80.13 z"
         id="path2747" />
    </clipPath>
    <clipPath
       clipPathUnits="userSpaceOnUse"
       id="clipPath2875">
      <path
         d="m 335.989,673.232 h 73.203 v -90.131 h -73.203 z"
         id="path2873" />
    </clipPath>
    <clipPath
       clipPathUnits="userSpaceOnUse"
       id="clipPath2891">
      <path
         d="M 0,800 H 800 V 0 H 0 Z"
         id="path2889" />
    </clipPath>
  </defs>
  <sodipodi:namedview
     id="namedview2383"
     pagecolor="#ffffff"
     bordercolor="#000000"
     borderopacity="0.25"
     inkscape:showpageshadow="2"
     inkscape:pageopacity="0.0"
     inkscape:pagecheckerboard="0"
     inkscape:deskcolor="#d1d1d1"
     showgrid="false"
     inkscape:zoom="0.57739681"
     inkscape:cx="292.69299"
     inkscape:cy="578.45834"
     inkscape:window-width="1920"
     inkscape:window-height="1007"
     inkscape:window-x="0"
     inkscape:window-y="0"
     inkscape:window-maximized="1"
     inkscape:current-layer="g2389">
    <inkscape:page
       x="0"
       y="0"
       id="page2387"
       width="1066.6667"
       height="1066.6667" />
  </sodipodi:namedview>
  <g
     id="g2389"
     inkscape:groupmode="layer"
     inkscape:label="Page 1"
     transform="matrix(1.3333333,0,0,-1.3333333,0,1066.6667)">
    <g
       id="g2393">
      <g
         id="g2395"
         clip-path="url(#clipPath2399)">
        <g
           id="g2401">
          <g
             id="g2403" />
          <g
             id="g2415">
            <g
               clip-path="url(#clipPath2407)"
               opacity="0.5"
               id="g2413">
              <g
                 transform="translate(755.172,358.6732)"
                 id="g2411">
                <path
                   d="m 0,0 c 0,-6.858 -5.206,-12.469 -11.568,-12.469 -6.363,0 -11.568,5.611 -11.568,12.469 0,6.858 5.205,12.469 11.568,12.469 C -5.206,12.469 0,6.858 0,0"
                   style="fill:#bb7aff;fill-opacity:1;fill-rule:nonzero;stroke:none"
                   id="path2409" />
              </g>
            </g>
          </g>
        </g>
        <g
           id="g2417">
          <g
             id="g2419" />
          <g
             id="g2431">
            <g
               clip-path="url(#clipPath2423)"
               opacity="0.5"
               id="g2429">
              <g
                 transform="translate(124.4529,188.7459)"
                 id="g2427">
                <path
                   d="m 0,0 c 0,-6.858 -5.206,-12.469 -11.568,-12.469 -6.362,0 -11.568,5.611 -11.568,12.469 0,6.858 5.206,12.469 11.568,12.469 C -5.206,12.469 0,6.858 0,0"
                   style="fill:#bb7aff;fill-opacity:1;fill-rule:nonzero;stroke:none"
                   id="path2425" />
              </g>
            </g>
          </g>
        </g>
        <g
           id="g2433"
           transform="translate(711.6548,351.6115)">
          <path
             d="m 0,0 c 6.05,0 11,4.95 11,11 v 2.582 c 0,6.05 -4.95,11 -11,11 h -16.003 c -6.05,0 -11,4.95 -11,11 v 2.016 c 0,6.05 3.815,11 8.477,11 4.662,0 8.476,4.95 8.476,11 v 2.582 11 11 2.299 c 0,6.05 -4.95,11 -11,11 h -9.434 c -6.05,0 -11,4.95 -11,11 v 2.017 11.141 11.142 2.017 c 0,6.049 4.95,11 11,11 h 0.675 c 6.05,0 11,4.949 11,11 v 2.299 11.141 11.141 2.3 c 0,6.05 -4.95,11 -11,11 h -43.693 c -6.05,0 -11,4.95 -11,11 v 2.299 c 0,6.05 -4.95,11 -11,11 h -3.005 c -6.05,0 -11,4.95 -11,11 v 2.016 11.142 11.141 2.299 c 0,6.05 -4.95,11 -11,11 h -27.729 c -6.05,0 -11,4.95 -11,11 v 2.3 c 0,6.05 -4.95,11 -11,11 h -22.078 c -6.05,0 -11,4.95 -11,11 v 2.299 c 0,6.05 -4.95,11 -11,11 h -12.728 c -6.05,0 -11,4.95 -11,11 v 5.812 c 0,6.05 -4.95,11 -11,11 h -4.664 -22 -57.521 -22 -4.664 c -6.05,0 -11,-4.95 -11,-11 v -5.812 c 0,-6.05 -4.95,-11 -11,-11 h -5.806 c -6.05,0 -11,-4.95 -11,-11 v -2.299 c 0,-6.05 -4.95,-11 -11,-11 h -26.598 c -6.05,0 -11,-4.95 -11,-11 v -2.3 c 0,-6.05 -4.95,-11 -11,-11 h -23.33 c -6.05,0 -11,-4.95 -11,-11 v -2.582 c 0,-6.049 0.536,-11 1.191,-11 0.655,0 1.191,-4.95 1.191,-11 v -2.016 c 0,-6.05 -4.95,-11 -11,-11 h -13.176 c -6.05,0 -11,-4.95 -11,-11 v -2.299 c 0,-6.05 -4.95,-11 -11,-11 h -38.092 c -6.051,0 -11,-4.95 -11,-11 v -2.3 c 0,-6.05 4.949,-11.046 10.999,-11.103 l 8.001,-0.076 c 6.05,-0.057 11,-5.053 11,-11.103 v -2.017 c 0,-6.05 -4.95,-11 -11,-11 h -24.075 c -6.05,0 -11,-4.95 -11,-11 v -2.299 c 0,-6.05 -4.95,-11 -11,-11 h -31.887 c -6.05,0 -11,-4.95 -11,-11 v -2.582 c 0,-6.05 4.95,-11 11,-11 h 28.011 c 6.05,0 11,-4.95 11,-11 V 84.18 c 0,-6.05 -4.95,-11 -11,-11 h -12.471 c -6.05,0 -11,-4.95 -11,-11 v -2.582 c 0,-6.05 4.95,-11 11,-11 h 40.039 c 6.05,0 11,-4.95 11,-11 v -2.016 c 0,-6.05 -4.95,-11 -11,-11 h -16.931 c -6.05,0 -11,-4.95 -11,-11 V 11 c 0,-6.05 4.75,-11 10.555,-11 5.805,0 10.555,-4.95 10.555,-11 v -2.299 c 0,-6.05 0.018,-11 0.041,-11 0.022,0 0.041,-4.95 0.041,-11 v -2.017 c 0,-6.05 -4.95,-11 -11,-11 h -1.452 c -6.05,0 -11,-4.95 -11,-11 v -2.582 c 0,-6.05 4.95,-11 11,-11 h 5.125 c 6.05,0 11,-4.95 11,-11 v -2.299 c 0,-6.05 4.95,-11 11,-11 h 48.972 c 6.05,0 11,-4.95 11,-11 v -2.299 c 0,-6.05 -4.95,-11 -11,-11 h -4.582 c -6.05,0 -11,-4.95 -11,-11 v -2.017 c 0,-6.05 -4.95,-11 -11,-11 h -8.828 c -6.05,0 -11,-4.95 -11,-11 v -2.582 c 0,-6.05 4.95,-11 11,-11 h 18.334 c 6.05,0 11,-4.95 11,-11 v -2.299 c 0,-6.05 4.95,-11 11,-11 h 20.17 c 6.05,0 11,-4.95 11,-11 v -2.299 c 0,-6.05 4.95,-11 11,-11 h 17.84 c 6.05,0 11,-4.95 11,-11 v -2.299 c 0,-6.05 4.95,-11 11,-11 h 11.341 22 197.258 22 18.324 c 6.05,0 11,4.95 11,11 v 2.299 c 0,6.05 4.95,11 11,11 h 33.178 c 6.05,0 11,4.95 11,11 v 2.299 c 0,6.05 4.95,11 11,11 h 12.259 c 6.05,0 11,4.95 11,11 v 2.299 11 11 2.3 c 0,6.05 4.95,11 11,11 h 0.251 c 6.05,0 11,4.95 11,11 v 2.299 11.141 11.141 2.017 c 0,6.05 4.95,11 11,11 h 7.526 c 6.05,0 11,4.95 11,11 v 2.299 11.142 11.141 2.016 c 0,6.05 4.196,11 9.324,11 5.128,0 9.324,4.951 9.324,11 v 2.582 c 0,6.05 -4.95,11 -11,11 h -1.734 c -6.05,0 -11,4.95 -11,11 V -11 c 0,6.05 4.95,11 11,11 z"
             style="fill:#9633ff;fill-opacity:1;fill-rule:nonzero;stroke:none"
             id="path2435" />
        </g>
      </g>
    </g>
    <g
       id="g2437"
       transform="translate(618.6884,303.7163)">
      <path
         d="m 0,0 -4.779,-6.888 -22.696,15.746 4.78,6.888 z"
         style="fill:#434242;fill-opacity:1;fill-rule:nonzero;stroke:none"
         id="path2439" />
    </g>
    <g
       id="g2441">
      <g
         id="g2443"
         clip-path="url(#clipPath2447)">
        <g
           id="g2449"
           transform="translate(601.7918,309.7727)">
          <path
             d="m 0,0 c -10.484,-14.662 -30.87,-18.049 -45.532,-7.564 -14.662,10.484 -18.049,30.87 -7.564,45.532 10.484,14.662 30.87,18.048 45.532,7.564 C 7.098,35.047 10.484,14.662 0,0"
             style="fill:#434242;fill-opacity:1;fill-rule:nonzero;stroke:none"
             id="path2451" />
        </g>
        <g
           id="g2453"
           transform="translate(598.3473,312.2358)">
          <path
             d="m 0,0 c -9.124,-12.76 -26.865,-15.707 -39.624,-6.583 -12.76,9.124 -15.707,26.865 -6.583,39.625 9.124,12.759 26.864,15.707 39.624,6.582 C 6.177,30.5 9.124,12.76 0,0"
             style="fill:#47a4ff;fill-opacity:1;fill-rule:nonzero;stroke:none"
             id="path2455" />
        </g>
        <g
           id="g2457"
           transform="translate(650.8347,276.0195)">
          <path
             d="m 0,0 c -2.761,-3.903 -8.163,-4.828 -12.066,-2.068 l -28.699,20.302 c -3.902,2.761 -4.828,8.163 -2.067,12.066 2.761,3.903 8.163,4.829 12.065,2.068 L -2.068,12.066 C 1.835,9.305 2.761,3.903 0,0"
             style="fill:#f68f04;fill-opacity:1;fill-rule:nonzero;stroke:none"
             id="path2459" />
        </g>
        <g
           id="g2461"
           transform="translate(552.0329,345.1272)">
          <path
             d="m 0,0 c -0.091,-0.127 -0.173,-0.258 -0.262,-0.387 l 41.689,-28.924 4.971,-3.449 c 0.827,1.186 1.552,2.412 2.175,3.671 6.068,12.26 2.539,27.457 -8.948,35.672 C 26.865,15.707 9.124,12.76 0,0"
             style="fill:#73baff;fill-opacity:1;fill-rule:nonzero;stroke:none"
             id="path2463" />
        </g>
        <g
           id="g2465"
           transform="translate(610.9765,308.8424)">
          <path
             d="M 0,0 C -1.187,-0.616 -2.251,-1.51 -3.076,-2.677 -3.135,-2.76 -3.183,-2.848 -3.239,-2.933 L 5.184,-8.776 39.85,-32.828 c 2.637,3.891 1.693,9.19 -2.162,11.917 L 8.989,-0.609 C 6.253,1.327 2.783,1.444 0,0"
             style="fill:#f1a30d;fill-opacity:1;fill-rule:nonzero;stroke:none"
             id="path2467" />
        </g>
        <g
           id="g2469"
           transform="translate(211.275,373.9625)">
          <path
             d="M 0,0 -15.568,0.129 -15.29,33.572 0.278,33.443 Z"
             style="fill:#fab802;fill-opacity:1;fill-rule:nonzero;stroke:none"
             id="path2471" />
        </g>
        <g
           id="g2473"
           transform="translate(236.3622,369.569)">
          <path
             d="m 0,0 c 0.072,8.622 -6.859,15.669 -15.481,15.741 l -34.591,0.287 C -58.693,16.1 -65.741,9.169 -65.812,0.547 -38.992,0.324 -32.576,0.227 0,0"
             style="fill:#fad000;fill-opacity:1;fill-rule:nonzero;stroke:none"
             id="path2475" />
        </g>
        <g
           id="g2477"
           transform="translate(125.9828,476.8306)">
          <path
             d="m 0,0 50.126,-0.417 -0.062,-7.431 c 0,0 -30.075,0.057 -40.33,0.336 -0.081,-9.656 13.519,-35.441 41.851,-36.831 0,0 -0.037,-1.946 -0.067,-8.039 C 42.303,-52.305 0.248,-43.308 0,0"
             style="fill:#fab802;fill-opacity:1;fill-rule:nonzero;stroke:none"
             id="path2479" />
        </g>
        <g
           id="g2481"
           transform="translate(283.8817,475.5181)">
          <path
             d="m 0,0 -50.126,0.417 -0.062,-7.431 c 0,0 30.072,-0.444 40.331,-0.336 -0.081,-9.655 -14.107,-35.21 -42.458,-36.129 0,0 0.005,-1.947 -0.067,-8.039 C -43.167,-51.595 -0.968,-43.298 0,0"
             style="fill:#fab802;fill-opacity:1;fill-rule:nonzero;stroke:none"
             id="path2483" />
        </g>
        <g
           id="g2485"
           transform="translate(204.4276,486.7157)">
          <path
             d="m 0,0 -48.721,0.405 c -0.443,-53.361 16.483,-81.924 48.041,-82.186 32.906,-0.273 48.957,28.015 49.4,81.376 z"
             style="fill:#fab802;fill-opacity:1;fill-rule:nonzero;stroke:none"
             id="path2487" />
        </g>
        <g
           id="g2489"
           transform="translate(155.6195,476.5959)">
          <path
             d="m 0,0 c -0.443,-53.361 24.348,-71.463 48.128,-71.661 23.781,-0.198 48.87,17.491 49.313,70.851 z"
             style="fill:#fad000;fill-opacity:1;fill-rule:nonzero;stroke:none"
             id="path2491" />
        </g>
        <g
           id="g2493"
           transform="translate(189.0145,449.0151)">
          <path
             d="M 0,0 C 0,0 -1.231,14.311 14.784,14.178 28.914,14.061 30.26,3.974 30.243,1.894 30.135,-11.171 19.71,-6.209 19.624,-16.544 l -8.775,0.073 c 0.102,12.22 9.844,11.229 9.898,17.729 C 20.768,3.793 19.366,7.185 15.16,7.22 10.331,7.26 8.349,3.445 8.32,-0.069 3.64,-0.03 0,0 0,0"
             style="fill:#fcef67;fill-opacity:1;fill-rule:nonzero;stroke:none"
             id="path2495" />
        </g>
        <g
           id="g2497"
           transform="translate(208.5452,419.0153)">
          <path
             d="M 0,0 -9.36,0.078 -9.28,9.698 0.08,9.62 Z"
             style="fill:#fcef67;fill-opacity:1;fill-rule:nonzero;stroke:none"
             id="path2499" />
        </g>
        <g
           id="g2501">
          <g
             id="g2503" />
          <g
             id="g2515">
            <g
               clip-path="url(#clipPath2507)"
               opacity="0.300003"
               id="g2513">
              <g
                 transform="translate(135.7165,469.3173)"
                 id="g2511">
                <path
                   d="m 0,0 c 4.368,-0.119 12.329,-0.197 20.032,-0.248 0.52,-13.306 2.726,-24.191 6.148,-32.944 C 8.495,-25.464 -0.064,-7.661 0,0 m 68.711,17.398 -48.72,0.405 c -0.031,-3.628 0.027,-7.13 0.156,-10.527 l -0.244,0.002 c 0,-0.004 0,-0.008 0,-0.012 L -9.734,7.513 c 0.191,-33.316 25.12,-46.325 40.81,-50.591 4.467,-7.245 9.983,-12.402 16.018,-15.822 0.101,-0.06 0.205,-0.113 0.307,-0.172 0.393,-0.218 0.785,-0.438 1.182,-0.642 3.573,-1.901 7.464,-3.229 11.67,-3.965 l -0.168,-20.121 -9.511,0.079 c -8.621,0.071 -15.669,-6.86 -15.74,-15.481 14.756,-0.123 23.339,-0.207 33.498,-0.297 l 0.971,116.892 z"
                   style="fill:#939389;fill-opacity:1;fill-rule:nonzero;stroke:none"
                   id="path2509" />
              </g>
            </g>
          </g>
        </g>
        <g
           id="g2517"
           transform="translate(653.9941,427.6918)">
          <path
             d="M 0,0 C 14.977,0.022 29.969,-11.016 29.993,-27.298 30.017,-43.58 16.426,-45.751 16.44,-55.581 c 0.015,-9.831 0.031,-21.121 0.031,-21.121 L 0.112,-76.726 -16.247,-76.75 c 0,0 -0.016,11.29 -0.031,21.121 -0.014,9.831 -13.611,11.961 -13.635,28.243 C -29.937,-11.104 -14.977,-0.022 0,0"
             style="fill:#fad000;fill-opacity:1;fill-rule:nonzero;stroke:none"
             id="path2519" />
        </g>
        <g
           id="g2521"
           transform="translate(638.5023,402.2486)">
          <path
             d="m 0,0 c 1.889,0.003 2.964,-1.681 4.751,-1.678 1.787,0.002 2.704,8.429 10.774,8.441 8.071,0.012 8.709,-8.413 10.787,-8.409 2.077,0.003 3.24,1.689 4.746,1.691 1.506,0.003 3.167,-0.742 3.17,-3.059 C 34.232,-5.331 15.564,-24.021 15.596,-45.483 15.564,-24.021 -3.159,-4.314 -3.161,-3.068 -3.163,-1.823 -1.889,-0.003 0,0 Z"
             style="fill:none;stroke:#edeef2;stroke-width:3;stroke-linecap:butt;stroke-linejoin:miter;stroke-miterlimit:10;stroke-dasharray:none;stroke-opacity:1"
             id="path2523" />
        </g>
        <g
           id="g2525"
           transform="translate(642.8806,346.3988)">
          <path
             d="m 0,0 c 0.008,-5.567 5.044,-10.073 11.247,-10.064 6.204,0.009 11.226,4.53 11.218,10.097 C 22.457,5.6 17.421,10.106 11.218,10.097 5.014,10.088 -0.008,5.567 0,0"
             style="fill:#545351;fill-opacity:1;fill-rule:nonzero;stroke:none"
             id="path2527" />
        </g>
        <g
           id="g2529"
           transform="translate(637.0071,345.1229)">
          <path
             d="M 0,0 34.216,0.05 34.191,16.639 -0.024,16.589 Z"
             style="fill:#3b3a39;fill-opacity:1;fill-rule:nonzero;stroke:none"
             id="path2531" />
        </g>
        <g
           id="g2533">
          <g
             id="g2535" />
          <g
             id="g2547">
            <g
               clip-path="url(#clipPath2539)"
               opacity="0.300003"
               id="g2545">
              <g
                 transform="translate(683.9873,400.3243)"
                 id="g2543">
                <path
                   d="m 0,0 c 0.024,-16.282 -13.567,-18.453 -13.553,-28.283 0.005,-3.455 0.011,-7.088 0.015,-10.35 l 0.749,0.002 0.024,-16.59 -5.973,-0.009 c -0.681,-4.913 -5.295,-8.728 -10.933,-8.821 l -0.134,91.345 C -14.891,27.223 -0.024,16.214 0,0"
                   style="fill:#ffeef1;fill-opacity:1;fill-rule:nonzero;stroke:none"
                   id="path2541" />
              </g>
            </g>
          </g>
        </g>
      </g>
    </g>
    <g
       id="g2553">
      <g
         id="g2555"
         clip-path="url(#clipPath2559)">
        <g
           id="g2561"
           transform="translate(526.6694,256.5388)">
          <path
             d="m 0,0 c 0,0 9.828,1.885 11.428,2.321 1.869,0.509 2.977,0.904 2.89,2.01 -0.123,1.559 -2.945,1.924 -3.443,4.215 -0.478,2.199 0.227,5.091 3.799,5.816 3.571,0.725 5.528,-1.79 5.739,-3.264 C 20.876,7.861 18.754,6.687 19.051,5.227 19.183,4.575 20.571,4.112 22.307,4.481 24.042,4.85 33.924,6.84 33.924,6.84 l 2.217,-10.914 c 0,0 0.734,-3.634 2.225,-3.332 1.49,0.303 2.067,2.877 4.303,3.332 2.236,0.454 4.997,-0.085 5.772,-3.905 0.776,-3.819 -1.875,-5.253 -3.612,-5.616 -2.451,-0.512 -4.144,1.454 -5.485,1.214 0,0 -1.328,-0.593 -0.769,-3.68 0.559,-3.088 2.226,-10.962 2.226,-10.962 L 29.37,-29.345 c 0,0 -2.858,-0.694 -3.281,0.554 -0.423,1.248 2.171,3.279 1.334,5.849 -0.837,2.57 -3.092,3.883 -5.654,3.362 -2.562,-0.52 -4.518,-2.591 -4.081,-5.582 0.41,-2.8 3.305,-3.136 3.468,-4.534 0,0 0.465,-1.336 -3.984,-2.239 -4.448,-0.904 -10.249,-2.155 -10.249,-2.155 0,0 -1.661,7.981 -1.863,9.177 -0.203,1.196 -1.199,5.383 0.315,5.69 1.514,0.308 2.747,-1.94 5.774,-1.325 3.028,0.615 3.657,3.847 3.175,6.222 -0.483,2.376 -3.256,3.971 -5.515,3.512 -2.26,-0.458 -2.857,-3.247 -4.371,-3.555 -1.514,-0.307 -2.191,3.217 -2.721,5.826 C 1.187,-5.935 0,0 0,0"
             style="fill:#e53328;fill-opacity:1;fill-rule:nonzero;stroke:none"
             id="path2563" />
        </g>
        <g
           id="g2565"
           transform="translate(608.0401,267.5086)">
          <path
             d="m 0,0 c 0,0 1.885,-9.827 2.321,-11.428 0.509,-1.869 0.904,-2.977 2.01,-2.89 1.559,0.123 1.923,2.945 4.215,3.443 2.199,0.478 5.091,-0.227 5.816,-3.799 0.725,-3.571 -1.79,-5.528 -3.264,-5.739 -3.237,-0.463 -4.412,1.659 -5.871,1.362 -0.652,-0.132 -1.115,-1.52 -0.746,-3.255 0.369,-1.736 2.359,-11.618 2.359,-11.618 l -10.915,-2.217 c 0,0 -3.634,-0.734 -3.331,-2.225 0.303,-1.49 2.877,-2.067 3.331,-4.303 0.455,-2.236 -0.084,-4.997 -3.904,-5.772 -3.819,-0.776 -5.253,1.875 -5.616,3.612 -0.512,2.451 1.454,4.144 1.214,5.485 0,0 -0.593,1.328 -3.68,0.769 -3.088,-0.559 -10.962,-2.226 -10.962,-2.226 l -2.322,11.431 c 0,0 -0.694,2.858 0.554,3.281 1.248,0.423 3.279,-2.171 5.849,-1.334 2.57,0.837 3.883,3.092 3.362,5.654 -0.52,2.562 -2.591,4.518 -5.582,4.081 -2.8,-0.41 -3.136,-3.305 -4.534,-3.467 0,0 -1.336,-0.466 -2.239,3.983 -0.904,4.448 -2.155,10.249 -2.155,10.249 0,0 7.981,1.661 9.177,1.863 1.195,0.203 5.383,1.199 5.69,-0.315 0.308,-1.514 -1.94,-2.747 -1.325,-5.774 0.615,-3.028 3.847,-3.657 6.222,-3.175 2.376,0.483 3.971,3.256 3.512,5.515 -0.459,2.26 -3.248,2.857 -3.555,4.371 -0.307,1.514 3.217,2.191 5.826,2.721 C -5.935,-1.187 0,0 0,0"
             style="fill:#eeae06;fill-opacity:1;fill-rule:nonzero;stroke:none"
             id="path2567" />
        </g>
        <g
           id="g2569"
           transform="translate(252.0664,187.2314)">
          <path
             d="m 0,0 c 0,0 -9.921,-1.309 -11.544,-1.65 -1.895,-0.399 -3.024,-0.729 -3.002,-1.838 0.031,-1.564 2.828,-2.093 3.191,-4.409 0.348,-2.223 -0.524,-5.069 -4.131,-5.585 -3.608,-0.515 -5.415,2.11 -5.54,3.594 -0.273,3.258 1.913,4.307 1.703,5.781 -0.094,0.659 -1.452,1.202 -3.207,0.935 -1.754,-0.268 -11.735,-1.678 -11.735,-1.678 l -1.577,11.026 c 0,0 -0.521,3.67 -2.027,3.455 -1.505,-0.215 -2.231,-2.752 -4.49,-3.075 -2.258,-0.323 -4.983,0.376 -5.534,4.235 -0.552,3.858 2.178,5.135 3.934,5.396 2.476,0.368 4.051,-1.694 5.404,-1.533 0,0 1.36,0.515 0.982,3.63 -0.377,3.115 -1.583,11.073 -1.583,11.073 l 11.548,1.651 c 0,0 2.893,0.526 3.243,-0.744 0.35,-1.271 -2.359,-3.147 -1.673,-5.761 0.686,-2.615 2.861,-4.057 5.448,-3.687 2.588,0.37 4.662,2.323 4.399,5.334 -0.245,2.82 -3.116,3.324 -3.196,4.729 0,0 -0.387,1.361 4.107,2.004 4.493,0.642 10.357,1.552 10.357,1.552 0,0 1.193,-8.064 1.325,-9.269 0.133,-1.206 0.883,-5.444 -0.647,-5.662 -1.529,-0.219 -2.628,2.097 -5.687,1.659 -3.058,-0.437 -3.875,-3.627 -3.532,-6.026 0.344,-2.4 3.019,-4.154 5.301,-3.828 2.282,0.326 3.042,3.076 4.571,3.294 1.529,0.219 1.999,-3.339 2.376,-5.974 C -0.839,5.994 0,0 0,0"
             style="fill:#e53328;fill-opacity:1;fill-rule:nonzero;stroke:none"
             id="path2571" />
        </g>
        <g
           id="g2573"
           transform="translate(537.8937,210.3876)">
          <path
             d="m 0,0 c 0,0 9.828,1.885 11.428,2.321 1.869,0.509 2.977,0.904 2.89,2.009 -0.123,1.56 -2.945,1.925 -3.443,4.216 -0.477,2.199 0.227,5.091 3.799,5.816 3.571,0.725 5.528,-1.79 5.739,-3.264 C 20.876,7.861 18.754,6.686 19.051,5.227 19.183,4.575 20.571,4.111 22.307,4.481 24.042,4.85 33.924,6.84 33.924,6.84 l 2.217,-10.915 c 0,0 0.734,-3.634 2.225,-3.331 1.491,0.303 2.067,2.877 4.303,3.331 2.236,0.455 4.997,-0.084 5.772,-3.904 0.776,-3.819 -1.875,-5.253 -3.612,-5.616 -2.451,-0.512 -4.144,1.454 -5.485,1.214 0,0 -1.328,-0.593 -0.769,-3.68 0.559,-3.088 2.226,-10.962 2.226,-10.962 L 29.37,-29.345 c 0,0 -2.858,-0.694 -3.281,0.554 -0.423,1.248 2.171,3.279 1.334,5.849 -0.837,2.57 -3.092,3.883 -5.654,3.362 -2.562,-0.52 -4.518,-2.591 -4.081,-5.582 0.41,-2.8 3.305,-3.136 3.468,-4.534 0,0 0.465,-1.336 -3.984,-2.239 -4.448,-0.904 -10.249,-2.155 -10.249,-2.155 0,0 -1.661,7.981 -1.863,9.177 -0.203,1.196 -1.199,5.383 0.315,5.69 1.514,0.308 2.747,-1.94 5.774,-1.325 3.028,0.615 3.657,3.847 3.175,6.222 -0.483,2.376 -3.256,3.971 -5.515,3.512 -2.26,-0.459 -2.857,-3.248 -4.371,-3.555 -1.514,-0.307 -2.191,3.217 -2.721,5.826 C 1.187,-5.935 0,0 0,0"
             style="fill:#a4e65e;fill-opacity:1;fill-rule:nonzero;stroke:none"
             id="path2575" />
        </g>
        <g
           id="g2577"
           transform="translate(618.1615,220.6883)">
          <path
             d="m 0,0 c 0,0 1.885,-9.827 2.321,-11.428 0.509,-1.869 0.904,-2.977 2.01,-2.89 1.559,0.123 1.924,2.945 4.215,3.443 2.199,0.478 5.091,-0.227 5.816,-3.798 0.725,-3.572 -1.79,-5.529 -3.264,-5.74 -3.237,-0.463 -4.411,1.659 -5.871,1.362 -0.652,-0.132 -1.115,-1.52 -0.746,-3.255 0.369,-1.736 2.359,-11.618 2.359,-11.618 l -10.915,-2.217 c 0,0 -3.633,-0.734 -3.331,-2.225 0.303,-1.49 2.877,-2.067 3.332,-4.303 0.454,-2.236 -0.085,-4.997 -3.905,-5.772 -3.819,-0.776 -5.253,1.875 -5.616,3.612 -0.512,2.451 1.454,4.144 1.214,5.485 0,0 -0.593,1.328 -3.68,0.769 -3.088,-0.559 -10.962,-2.226 -10.962,-2.226 l -2.322,11.431 c 0,0 -0.694,2.858 0.554,3.281 1.248,0.424 3.279,-2.171 5.849,-1.334 2.57,0.837 3.883,3.092 3.362,5.654 -0.52,2.562 -2.59,4.518 -5.581,4.081 -2.801,-0.41 -3.137,-3.305 -4.535,-3.467 0,0 -1.336,-0.466 -2.239,3.983 -0.904,4.448 -2.155,10.249 -2.155,10.249 0,0 7.981,1.661 9.177,1.863 1.196,0.203 5.383,1.199 5.69,-0.315 0.308,-1.514 -1.94,-2.746 -1.325,-5.774 0.615,-3.028 3.847,-3.657 6.222,-3.175 2.376,0.483 3.971,3.256 3.512,5.515 -0.458,2.26 -3.247,2.857 -3.555,4.371 -0.307,1.514 3.217,2.191 5.826,2.721 C -5.935,-1.187 0,0 0,0"
             style="fill:#fad000;fill-opacity:1;fill-rule:nonzero;stroke:none"
             id="path2579" />
        </g>
        <g
           id="g2581"
           transform="translate(585.5841,626.1978)">
          <path
             d="m 0,0 h -81.634 c -11.15,0 -20.189,-9.039 -20.189,-20.189 V -79.44 c 0,-11.15 9.039,-20.189 20.189,-20.189 h 20.505 c 0.117,-11.82 -4.788,-22.849 -5.892,-26.128 17.178,7.845 25.8,18.052 30.135,26.128 H 0 c 11.15,0 20.189,9.039 20.189,20.189 v 59.251 C 20.189,-9.039 11.15,0 0,0"
             style="fill:#e9e8e4;fill-opacity:1;fill-rule:nonzero;stroke:none"
             id="path2583" />
        </g>
        <g
           id="g2585"
           transform="translate(675.5821,541.5641)">
          <path
             d="m 0,0 c -0.099,25.786 -24.89,46.594 -55.372,46.477 -30.482,-0.117 -55.112,-21.116 -55.012,-46.902 0.099,-25.786 24.89,-46.594 55.372,-46.477 0.803,0.003 1.599,0.029 2.394,0.06 5.27,-7.44 14.486,-16.011 30.583,-22.234 -1.369,3.385 -7.387,14.971 -7.628,27.5 C -11.98,-33.735 0.07,-18.046 0,0"
             style="fill:#ffffff;fill-opacity:1;fill-rule:nonzero;stroke:none"
             id="path2587" />
        </g>
        <g
           id="g2589"
           transform="translate(506.8348,447.046)">
          <path
             d="m 0,0 c 0.095,24.597 23.742,44.446 52.818,44.334 29.076,-0.112 52.57,-20.143 52.476,-44.739 -0.095,-24.597 -23.742,-44.446 -52.818,-44.334 -0.766,0.003 -1.526,0.027 -2.284,0.058 -5.028,-7.098 -13.819,-15.274 -29.173,-21.21 1.306,3.229 7.046,14.281 7.276,26.233 C 11.428,-32.18 -0.066,-17.214 0,0"
             style="fill:#ffffff;fill-opacity:1;fill-rule:nonzero;stroke:none"
             id="path2591" />
        </g>
        <g
           id="g2593"
           transform="translate(591.6269,544.6356)">
          <path
             d="M 0,0 22.907,-16.299 63.287,19.97 23.2,-31.13 Z"
             style="fill:#6ebc1a;fill-opacity:1;fill-rule:nonzero;stroke:none"
             id="path2595" />
        </g>
        <g
           id="g2597"
           transform="translate(523.1226,583.5516)">
          <path
             d="M 0,0 C 0,0 -1.568,18.219 18.821,18.049 36.809,17.9 38.523,5.059 38.501,2.411 38.363,-14.221 25.092,-7.905 24.982,-21.062 l -11.171,0.093 c 0.13,15.557 12.532,14.295 12.601,22.57 0.027,3.227 -1.758,7.545 -7.113,7.59 C 13.152,9.242 10.629,4.386 10.592,-0.088 4.634,-0.038 0,0 0,0"
             style="fill:#fad000;fill-opacity:1;fill-rule:nonzero;stroke:none"
             id="path2599" />
        </g>
        <g
           id="g2601"
           transform="translate(548.2661,546.5144)">
          <path
             d="m 0,0 -11.916,0.099 0.102,12.247 11.916,-0.099 z"
             style="fill:#fad000;fill-opacity:1;fill-rule:nonzero;stroke:none"
             id="path2603" />
        </g>
        <g
           id="g2605"
           transform="translate(492.0233,252.6869)">
          <path
             d="m 0,0 c 0,-3.852 -3.122,-6.974 -6.974,-6.974 h -173.197 c -3.851,0 -6.974,3.122 -6.974,6.974 v 253.401 c 0,3.851 3.123,6.974 6.974,6.974 H -6.974 c 3.852,0 6.974,-3.123 6.974,-6.974 z"
             style="fill:#ffffff;fill-opacity:1;fill-rule:nonzero;stroke:none"
             id="path2607" />
        </g>
        <g
           id="g2609"
           transform="translate(311.8528,509.0622)">
          <path
             d="m 0,0 c -1.64,0 -2.974,-1.334 -2.974,-2.974 v -253.401 c 0,-1.641 1.334,-2.975 2.974,-2.975 h 173.196 c 1.641,0 2.975,1.334 2.975,2.975 V -2.974 c 0,1.64 -1.334,2.974 -2.975,2.974 z M 173.196,-267.35 H 0 c -6.051,0 -10.974,4.923 -10.974,10.975 V -2.974 C -10.974,3.077 -6.051,8 0,8 h 173.196 c 6.052,0 10.975,-4.923 10.975,-10.974 v -253.401 c 0,-6.052 -4.923,-10.975 -10.975,-10.975"
             style="fill:#3b3a39;fill-opacity:1;fill-rule:nonzero;stroke:none"
             id="path2611" />
        </g>
        <path
           d="M 462.777,482.84 H 334.125 v 43.502 h 128.652 z"
           style="fill:#fad000;fill-opacity:1;fill-rule:nonzero;stroke:none"
           id="path2613" />
        <path
           d="M 462.777,482.84 H 334.125 v 20.448 h 128.652 z"
           style="fill:#fab802;fill-opacity:1;fill-rule:nonzero;stroke:none"
           id="path2615" />
        <g
           id="g2617"
           transform="translate(415.4065,526.3423)">
          <path
             d="m 0,0 c 0,-8.888 -7.205,-16.093 -16.093,-16.093 -8.887,0 -16.092,7.205 -16.092,16.093 0,8.887 7.205,16.093 16.092,16.093 C -7.205,16.093 0,8.887 0,0"
             style="fill:#fad000;fill-opacity:1;fill-rule:nonzero;stroke:none"
             id="path2619" />
        </g>
        <g
           id="g2621"
           transform="translate(406.4501,526.3423)">
          <path
             d="m 0,0 c 0,-3.941 -3.195,-7.137 -7.137,-7.137 -3.941,0 -7.136,3.196 -7.136,7.137 0,3.941 3.195,7.136 7.136,7.136 C -3.195,7.136 0,3.941 0,0"
             style="fill:#2889cd;fill-opacity:1;fill-rule:nonzero;stroke:none"
             id="path2623" />
        </g>
        <path
           d="M 467.005,453.288 H 319.736 v 3.587 h 147.269 z"
           style="fill:#edeef2;fill-opacity:1;fill-rule:nonzero;stroke:none"
           id="path2625" />
        <path
           d="m 416.533,446.755 h -96.797 v 3.587 h 96.797 z"
           style="fill:#edeef2;fill-opacity:1;fill-rule:nonzero;stroke:none"
           id="path2627" />
        <path
           d="m 393.37,440.118 h -73.635 v 3.587 h 73.635 z"
           style="fill:#edeef2;fill-opacity:1;fill-rule:nonzero;stroke:none"
           id="path2629" />
        <path
           d="M 468.005,407.081 H 351.047 v 5.56 h 116.958 z"
           style="fill:#edeef2;fill-opacity:1;fill-rule:nonzero;stroke:none"
           id="path2631" />
        <path
           d="M 468.005,379.081 H 351.047 v 5.56 h 116.958 z"
           style="fill:#edeef2;fill-opacity:1;fill-rule:nonzero;stroke:none"
           id="path2633" />
        <path
           d="M 468.005,350.581 H 351.047 v 5.56 h 116.958 z"
           style="fill:#edeef2;fill-opacity:1;fill-rule:nonzero;stroke:none"
           id="path2635" />
        <path
           d="M 468.005,323.998 H 351.047 v 5.56 h 116.958 z"
           style="fill:#edeef2;fill-opacity:1;fill-rule:nonzero;stroke:none"
           id="path2637" />
        <path
           d="M 467.005,298.779 H 350.047 v 5.56 h 116.958 z"
           style="fill:#edeef2;fill-opacity:1;fill-rule:nonzero;stroke:none"
           id="path2639" />
        <path
           d="m 341.617,422.123 h -21.882 v -21.882 h 21.882 z m -3,-18.882 h -15.882 v 15.882 h 15.882 z"
           style="fill:#edeef2;fill-opacity:1;fill-rule:nonzero;stroke:none"
           id="path2641" />
        <path
           d="m 341.617,393.755 h -21.882 v -21.882 h 21.882 z m -3,-18.882 h -15.882 v 15.882 h 15.882 z"
           style="fill:#edeef2;fill-opacity:1;fill-rule:nonzero;stroke:none"
           id="path2643" />
        <path
           d="m 341.617,365.416 h -21.882 v -21.882 h 21.882 z m -3,-18.882 h -15.882 v 15.882 h 15.882 z"
           style="fill:#edeef2;fill-opacity:1;fill-rule:nonzero;stroke:none"
           id="path2645" />
        <path
           d="m 341.617,336.719 h -21.882 v -21.882 h 21.882 z m -3,-18.882 h -15.882 v 15.882 h 15.882 z"
           style="fill:#edeef2;fill-opacity:1;fill-rule:nonzero;stroke:none"
           id="path2647" />
        <path
           d="m 341.617,308.5 h -21.882 v -21.882 h 21.882 z m -3,-18.882 H 322.735 V 305.5 h 15.882 z"
           style="fill:#edeef2;fill-opacity:1;fill-rule:nonzero;stroke:none"
           id="path2649" />
        <g
           id="g2651"
           transform="translate(321.6664,417.2034)">
          <path
             d="M 0,0 8.499,-6.047 23.48,7.409 8.608,-11.549 Z"
             style="fill:#6ebc1a;fill-opacity:1;fill-rule:nonzero;stroke:none"
             id="path2653" />
        </g>
        <g
           id="g2655"
           transform="translate(448.0927,289.5674)">
          <path
             d="m 0,0 c 3.038,-3.046 3.032,-7.979 -0.014,-11.017 -3.047,-3.039 -7.979,-3.032 -11.018,0.014 l -10.795,10.824 c -3.038,3.046 -3.032,7.979 0.015,11.017 3.046,3.038 7.978,3.032 11.017,-0.014 z"
             style="fill:#f68f04;fill-opacity:1;fill-rule:nonzero;stroke:none"
             id="path2657" />
        </g>
        <g
           id="g2659"
           transform="translate(446.1631,291.5874)">
          <path
             d="m 0,0 -11.115,-11.086 -5.273,5.287 11.115,11.086 z"
             style="fill:#d3d3d3;fill-opacity:1;fill-rule:nonzero;stroke:none"
             id="path2661" />
        </g>
        <g
           id="g2663"
           transform="translate(348.8993,366.6571)">
          <path
             d="m 0,0 11.115,11.086 -21.314,10.38 z"
             style="fill:#ecdca8;fill-opacity:1;fill-rule:nonzero;stroke:none"
             id="path2665" />
        </g>
        <g
           id="g2667"
           transform="translate(338.3733,388.3373)">
          <path
             d="M 0,0 3.196,-6.727 6.673,-3.25 Z"
             style="fill:#1d8246;fill-opacity:1;fill-rule:nonzero;stroke:none"
             id="path2669" />
        </g>
        <g
           id="g2671"
           transform="translate(440.8883,296.8725)">
          <path
             d="m 0,0 -11.104,-11.104 -80.887,80.887 11.104,11.104 z"
             style="fill:#559c1c;fill-opacity:1;fill-rule:nonzero;stroke:none"
             id="path2673" />
        </g>
        <g
           id="g2675"
           transform="translate(437.7715,293.7556)">
          <path
             d="m 0,0 -4.87,-4.87 -80.887,80.887 4.87,4.87 z"
             style="fill:#6ebc1a;fill-opacity:1;fill-rule:nonzero;stroke:none"
             id="path2677" />
        </g>
        <g
           id="g2679"
           transform="translate(321.6664,388.4734)">
          <path
             d="M 0,0 8.499,-6.047 23.48,7.409 8.608,-11.549 Z"
             style="fill:#6ebc1a;fill-opacity:1;fill-rule:nonzero;stroke:none"
             id="path2681" />
        </g>
        <g
           id="g2683"
           transform="translate(185.3963,325.9754)">
          <path
             d="m 0,0 c 0.034,-16.633 -13.421,-30.145 -30.054,-30.179 -16.632,-0.035 -30.144,13.42 -30.179,30.053 -0.035,16.632 13.42,30.144 30.053,30.18 C -13.547,30.088 -0.035,16.633 0,0"
             style="fill:#ffffff;fill-opacity:1;fill-rule:nonzero;stroke:none"
             id="path2685" />
        </g>
        <g
           id="g2687"
           transform="translate(155.2796,354.4095)">
          <path
             d="m 0,0 c -15.773,-0.034 -28.529,-12.844 -28.497,-28.557 0.033,-15.68 12.816,-28.436 28.495,-28.436 v -1.62 l 0.062,1.62 c 15.713,0.032 28.469,12.842 28.437,28.556 C 28.464,-12.757 15.68,0 0,0 m -0.002,-60.233 c -17.461,0 -31.697,14.207 -31.734,31.669 -0.036,17.499 14.17,31.766 31.67,31.803 17.528,0 31.765,-14.207 31.803,-31.67 C 31.772,-45.93 17.565,-60.196 0.066,-60.233 Z"
             style="fill:#e53328;fill-opacity:1;fill-rule:nonzero;stroke:none"
             id="path2689" />
        </g>
        <g
           id="g2691"
           transform="translate(159.0017,364.4273)">
          <path
             d="m 0,0 c 0.001,-0.536 -0.433,-0.972 -0.97,-0.973 l -5.88,-0.012 c -0.537,-0.001 -0.972,0.433 -0.973,0.969 l -0.006,2.994 c -0.001,0.537 0.432,0.973 0.968,0.974 l 5.881,0.012 c 0.536,10e-4 0.972,-0.434 0.973,-0.969 z"
             style="fill:#e53328;fill-opacity:1;fill-rule:nonzero;stroke:none"
             id="path2693" />
        </g>
        <g
           id="g2695"
           transform="translate(156.3841,357.4884)">
          <path
             d="m 0,0 -2.374,-0.004 -0.013,6.258 2.374,0.005 z"
             style="fill:#e53328;fill-opacity:1;fill-rule:nonzero;stroke:none"
             id="path2697" />
        </g>
        <g
           id="g2699"
           transform="translate(155.0882,373.5979)">
          <path
             d="m 0,0 c -3.846,-0.008 -6.956,-3.131 -6.948,-6.961 0.009,-3.822 3.125,-6.932 6.948,-6.932 v -0.81 l 0.014,0.81 c 3.829,0.009 6.939,3.131 6.932,6.961 C 6.937,-3.11 3.822,0 0,0 m 0,-15.512 c -4.714,0 -8.557,3.834 -8.568,8.547 -0.009,4.724 3.826,8.575 8.549,8.585 4.732,0 8.574,-3.835 8.584,-8.548 0.009,-4.724 -3.826,-8.575 -8.548,-8.584 z"
             style="fill:#e53328;fill-opacity:1;fill-rule:nonzero;stroke:none"
             id="path2701" />
        </g>
        <g
           id="g2703"
           transform="translate(159.9547,325.8694)">
          <path
             d="M 0,0 C 0.006,-2.636 -2.127,-4.778 -4.763,-4.783 -7.4,-4.789 -9.541,-2.656 -9.547,-0.02 -9.552,2.616 -7.42,4.758 -4.783,4.763 -2.147,4.769 -0.005,2.636 0,0"
             style="fill:#e53328;fill-opacity:1;fill-rule:nonzero;stroke:none"
             id="path2705" />
        </g>
        <g
           id="g2707"
           transform="translate(170.2283,339.8971)">
          <path
             d="m 0,0 -11.156,-12.964 -2.106,2.098 z"
             style="fill:#e53328;fill-opacity:1;fill-rule:nonzero;stroke:none"
             id="path2709" />
        </g>
        <g
           id="g2711"
           transform="translate(177.5829,325.2053)">
          <path
             d="m 0,0 c -0.448,0 -0.811,0.362 -0.812,0.809 -10e-4,0.448 0.36,0.811 0.809,0.812 L 3.455,1.629 C 3.903,1.63 4.266,1.268 4.267,0.82 4.269,0.373 3.906,0.008 3.458,0.008 Z"
             style="fill:#e53328;fill-opacity:1;fill-rule:nonzero;stroke:none"
             id="path2713" />
        </g>
        <g
           id="g2715"
           transform="translate(128.9496,325.2054)">
          <path
             d="M 0,0 C -0.448,-0.001 -0.811,0.362 -0.812,0.809 -0.813,1.257 -0.45,1.62 -0.003,1.621 L 3.455,1.628 C 3.903,1.63 4.266,1.268 4.267,0.82 4.268,0.371 3.906,0.008 3.458,0.007 Z"
             style="fill:#e53328;fill-opacity:1;fill-rule:nonzero;stroke:none"
             id="path2717" />
        </g>
        <g
           id="g2719"
           transform="translate(155.8083,348.6086)">
          <path
             d="m 0,0 c 0,-0.448 -0.362,-0.811 -0.809,-0.812 -0.448,-10e-4 -0.811,0.36 -0.812,0.809 l -0.008,3.458 c -10e-4,0.448 0.361,0.811 0.809,0.812 0.447,0.002 0.812,-0.361 0.812,-0.809 z"
             style="fill:#e53328;fill-opacity:1;fill-rule:nonzero;stroke:none"
             id="path2721" />
        </g>
        <g
           id="g2723"
           transform="translate(155.8081,299.9753)">
          <path
             d="m 0,0 c 0.001,-0.448 -0.362,-0.811 -0.809,-0.812 -0.448,-10e-4 -0.811,0.362 -0.812,0.809 l -0.007,3.458 c -0.002,0.448 0.36,0.811 0.808,0.812 0.449,10e-4 0.812,-0.361 0.813,-0.809 z"
             style="fill:#e53328;fill-opacity:1;fill-rule:nonzero;stroke:none"
             id="path2725" />
        </g>
        <g
           id="g2727"
           transform="translate(291.3165,344.6594)">
          <path
             d="m 0,0 -45.068,22.897 c -1.451,-1.636 -2.721,-3.481 -3.758,-5.522 l -2.208,-4.346 -8.097,-15.936 c -6.535,-12.864 -1.405,-28.59 11.459,-35.125 12.863,-6.535 28.589,-1.405 35.124,11.458 l 8.097,15.937 2.208,4.346 C -1.206,-4.25 -0.465,-2.137 0,0"
             style="fill:#ffffff;fill-opacity:1;fill-rule:nonzero;stroke:none"
             id="path2729" />
        </g>
        <g
           id="g2731"
           transform="translate(240.4681,290.8553)">
          <path
             d="M 0,0 -7.745,3.935 7.542,34.024 15.287,30.089 Z"
             style="fill:#ffffff;fill-opacity:1;fill-rule:nonzero;stroke:none"
             id="path2733" />
        </g>
        <g
           id="g2735"
           transform="translate(194.8393,266.3667)">
          <path
             d="m 0,0 45.068,-22.897 c 1.451,1.636 2.721,3.481 3.758,5.522 l 2.208,4.346 8.097,15.936 C 65.666,15.771 60.536,31.497 47.672,38.032 34.809,44.567 19.083,39.437 12.548,26.574 L 4.451,10.638 2.243,6.291 C 1.206,4.25 0.465,2.137 0,0"
             style="fill:#ffffff;fill-opacity:1;fill-rule:nonzero;stroke:none"
             id="path2737" />
        </g>
        <g
           id="g2739"
           transform="translate(242.7074,295.3401)">
          <path
             d="M 0,0 6.927,13.634 -0.701,17.509 -7.627,3.875 c -8.208,2.001 -17.009,-1.803 -21.001,-9.661 l -5.772,-11.361 -1.575,-3.099 c -0.739,-1.455 -1.267,-2.961 -1.599,-4.485 l 32.13,-16.323 c 1.034,1.166 1.94,2.481 2.679,3.936 l 1.574,3.098 5.772,11.362 C 8.573,-14.801 6.456,-5.449 0,0"
             style="fill:#6ebc1a;fill-opacity:1;fill-rule:nonzero;stroke:none"
             id="path2741" />
        </g>
        <g
           id="g2743">
          <g
             id="g2745" />
          <g
             id="g2757">
            <g
               clip-path="url(#clipPath2749)"
               opacity="0.300003"
               id="g2755">
              <g
                 transform="translate(238.9301,359.497)"
                 id="g2753">
                <path
                   d="M 0,0 1.56,-0.793 1.107,-1.684 -6.989,-17.62 c -5.939,-11.69 -2.243,-25.741 8.134,-33.113 l -1.393,-2.742 c -12.073,4.033 -25.601,-1.268 -31.54,-12.957 l -8.096,-15.936 -0.453,-0.892 -1.561,0.793 c -2.831,1.438 -6.292,0.309 -7.73,-2.522 -1.439,-2.831 -0.31,-6.292 2.521,-7.731 L -22.439,-105.252 29.877,-2.28 5.209,10.253 C 2.378,11.691 -1.084,10.562 -2.522,7.731 -3.96,4.9 -2.831,1.438 0,0"
                   style="fill:#939389;fill-opacity:1;fill-rule:nonzero;stroke:none"
                   id="path2751" />
              </g>
            </g>
          </g>
        </g>
        <g
           id="g2759"
           transform="translate(296.6091,336.6426)">
          <path
             d="M 0,0 C -1.438,-2.831 -4.9,-3.96 -7.731,-2.522 L -57.434,22.73 c -2.831,1.438 -3.96,4.899 -2.522,7.731 1.438,2.831 4.9,3.96 7.731,2.522 L -2.522,7.731 C 0.309,6.292 1.438,2.831 0,0"
             style="fill:#434242;fill-opacity:1;fill-rule:nonzero;stroke:none"
             id="path2761" />
        </g>
        <g
           id="g2763"
           transform="translate(189.5467,274.3834)">
          <path
             d="M 0,0 C 1.438,2.831 4.9,3.96 7.731,2.522 L 57.434,-22.73 c 2.831,-1.438 3.96,-4.899 2.522,-7.731 -1.438,-2.831 -4.9,-3.96 -7.731,-2.521 L 2.522,-7.731 C -0.309,-6.292 -1.438,-2.831 0,0"
             style="fill:#434242;fill-opacity:1;fill-rule:nonzero;stroke:none"
             id="path2765" />
        </g>
        <g
           id="g2767"
           transform="translate(237.4687,335.5829)">
          <path
             d="m 0,0 c -3.933,-7.84 -1.811,-17.143 4.621,-22.571 l -6.927,-13.634 7.627,-3.875 6.927,13.634 c 8.177,-1.994 16.942,1.778 20.954,9.577 z"
             style="fill:#6ebc1a;fill-opacity:1;fill-rule:nonzero;stroke:none"
             id="path2769" />
        </g>
        <path
           d="m 564.707,413.483 h -9.723 v 8.218 h 9.723 z"
           style="fill:#e53328;fill-opacity:1;fill-rule:nonzero;stroke:none"
           id="path2771" />
        <g
           id="g2773"
           transform="translate(550.1066,475.2128)">
          <path
             d="m 0,0 18.75,-0.043 -4.352,-47.761 -9.45,0.017 z"
             style="fill:#e53328;fill-opacity:1;fill-rule:nonzero;stroke:none"
             id="path2775" />
        </g>
        <g
           id="g2777"
           transform="translate(290.0006,561.8552)">
          <path
             d="m 0,0 c 0.564,1.905 0.871,3.921 0.871,6.009 0,11.687 -9.474,21.161 -21.161,21.161 -2.797,0 -5.464,-0.548 -7.907,-1.533 -4.901,11.52 -16.322,19.598 -29.631,19.598 -15.959,0 -29.198,-11.617 -31.74,-26.855 -4.742,2.75 -10.245,4.332 -16.121,4.332 -17.777,0 -32.188,-14.411 -32.188,-32.188 0,-17.777 14.411,-32.188 32.188,-32.188 1.282,0 2.544,0.084 3.787,0.23 H -1.849 c 10.301,0 18.652,8.35 18.652,18.651 v 4.223 C 16.803,-8.883 9.433,-0.928 0,0"
             style="fill:#e9e8e4;fill-opacity:1;fill-rule:nonzero;stroke:none"
             id="path2779" />
        </g>
        <g
           id="g2781"
           transform="translate(341.197,583.0679)">
          <path
             d="m 0,0 c 0.143,1.153 0.225,2.326 0.225,3.518 0,15.65 -12.687,28.337 -28.337,28.337 -8.127,0 -15.449,-3.426 -20.616,-8.907 -4.018,3.584 -9.314,5.765 -15.121,5.765 -12.552,0 -22.728,-10.176 -22.728,-22.729 0,-2.053 0.277,-4.042 0.788,-5.934 h -1.803 c -9.697,0 -17.559,-7.861 -17.559,-17.559 0,-9.697 7.862,-17.559 17.559,-17.559 H -1.26 c 9.697,0 17.558,7.862 17.558,17.559 C 16.298,-8.236 9.108,-0.647 0,0"
             style="fill:#ffffff;fill-opacity:1;fill-rule:nonzero;stroke:none"
             id="path2783" />
        </g>
        <g
           id="g2785"
           transform="translate(97,522.5)">
          <path
             d="m 0,0 c 0,2.475 -2.25,4.5 -5,4.5 -2.75,0 -5,2.25 -5,5 0,2.75 -2.025,5 -4.5,5 -2.475,0 -4.5,-2.25 -4.5,-5 0,-2.75 -2.25,-5 -5,-5 -2.75,0 -5,-2.025 -5,-4.5 0,-2.475 2.25,-4.5 5,-4.5 2.75,0 5,-2.25 5,-5 0,-2.75 2.025,-5 4.5,-5 2.475,0 4.5,2.25 4.5,5 0,2.75 2.25,5 5,5 2.75,0 5,2.025 5,4.5"
             style="fill:#bb7aff;fill-opacity:1;fill-rule:nonzero;stroke:none"
             id="path2787" />
        </g>
        <g
           id="g2789"
           transform="translate(82,286.1667)">
          <path
             d="m 0,0 c 0,2.02 -1.836,3.672 -4.08,3.672 -2.245,0 -4.081,1.837 -4.081,4.081 0,2.244 -1.652,4.08 -3.672,4.08 -2.02,0 -3.673,-1.836 -3.673,-4.08 0,-2.244 -1.836,-4.081 -4.08,-4.081 -2.245,0 -4.081,-1.652 -4.081,-3.672 0,-2.02 1.836,-3.672 4.081,-3.672 2.244,0 4.08,-1.837 4.08,-4.081 0,-2.244 1.653,-4.08 3.673,-4.08 2.02,0 3.672,1.836 3.672,4.08 0,2.244 1.836,4.081 4.081,4.081 C -1.836,-3.672 0,-2.02 0,0"
             style="fill:#bb7aff;fill-opacity:1;fill-rule:nonzero;stroke:none"
             id="path2791" />
        </g>
        <g
           id="g2793"
           transform="translate(622.0859,689.222)">
          <path
             d="m 0,0 c 0,2.02 -1.836,3.672 -4.08,3.672 -2.245,0 -4.081,1.837 -4.081,4.081 0,2.244 -1.652,4.08 -3.672,4.08 -2.02,0 -3.673,-1.836 -3.673,-4.08 0,-2.244 -1.836,-4.081 -4.08,-4.081 -2.244,0 -4.081,-1.652 -4.081,-3.672 0,-2.02 1.837,-3.672 4.081,-3.672 2.244,0 4.08,-1.837 4.08,-4.081 0,-2.244 1.653,-4.08 3.673,-4.08 2.02,0 3.672,1.836 3.672,4.08 0,2.244 1.836,4.081 4.081,4.081 C -1.836,-3.672 0,-2.02 0,0"
             style="fill:#ffffff;fill-opacity:1;fill-rule:nonzero;stroke:none"
             id="path2795" />
        </g>
        <g
           id="g2797"
           transform="translate(297.5406,673.9599)">
          <path
             d="m 0,0 c 1.967,0.459 3.16,2.622 2.65,4.808 -0.51,2.186 0.861,4.391 3.047,4.9 2.186,0.51 3.598,2.537 3.14,4.504 -0.459,1.967 -2.622,3.159 -4.808,2.649 -2.186,-0.509 -4.391,0.862 -4.901,3.048 -0.509,2.185 -2.536,3.598 -4.503,3.139 -1.967,-0.458 -3.159,-2.622 -2.65,-4.808 0.51,-2.185 -0.861,-4.39 -3.047,-4.9 -2.185,-0.51 -3.598,-2.536 -3.139,-4.503 0.458,-1.967 2.622,-3.16 4.807,-2.65 2.186,0.51 4.391,-0.861 4.901,-3.047 C -3.993,0.954 -1.967,-0.459 0,0"
             style="fill:#ffffff;fill-opacity:1;fill-rule:nonzero;stroke:none"
             id="path2799" />
        </g>
        <g
           id="g2801"
           transform="translate(157.6025,110.6716)">
          <path
             d="m 0,0 c 1.052,1.724 0.345,4.091 -1.571,5.26 -1.916,1.169 -2.528,3.692 -1.359,5.608 1.168,1.916 0.714,4.345 -1.011,5.396 -1.724,1.052 -4.091,0.345 -5.26,-1.571 -1.168,-1.916 -3.692,-2.528 -5.608,-1.359 -1.916,1.169 -4.344,0.714 -5.396,-1.011 -1.052,-1.724 -0.345,-4.091 1.571,-5.26 1.916,-1.168 2.528,-3.692 1.359,-5.608 -1.168,-1.916 -0.714,-4.344 1.011,-5.396 1.724,-1.051 4.091,-0.344 5.26,1.572 1.168,1.916 3.692,2.527 5.608,1.359 C -3.48,-2.179 -1.052,-1.724 0,0"
             style="fill:#ffffff;fill-opacity:1;fill-rule:nonzero;stroke:none"
             id="path2803" />
        </g>
        <g
           id="g2805"
           transform="translate(740.3333,518.5)">
          <path
             d="m 0,0 c 0,2.02 -1.836,3.672 -4.08,3.672 -2.245,0 -4.081,1.837 -4.081,4.081 0,2.244 -1.652,4.08 -3.672,4.08 -2.02,0 -3.673,-1.836 -3.673,-4.08 0,-2.244 -1.836,-4.081 -4.08,-4.081 -2.244,0 -4.081,-1.652 -4.081,-3.672 0,-2.02 1.837,-3.672 4.081,-3.672 2.244,0 4.08,-1.837 4.08,-4.081 0,-2.244 1.653,-4.08 3.673,-4.08 2.02,0 3.672,1.836 3.672,4.08 0,2.244 1.836,4.081 4.081,4.081 C -1.836,-3.672 0,-2.02 0,0"
             style="fill:#bb7aff;fill-opacity:1;fill-rule:nonzero;stroke:none"
             id="path2807" />
        </g>
        <g
           id="g2809"
           transform="translate(687,173.1666)">
          <path
             d="m 0,0 c 0,2.02 -1.836,3.673 -4.081,3.673 -2.244,0 -4.08,1.836 -4.08,4.08 0,2.244 -1.653,4.08 -3.672,4.08 -2.02,0 -3.673,-1.836 -3.673,-4.08 0,-2.244 -1.836,-4.08 -4.08,-4.08 -2.245,0 -4.081,-1.653 -4.081,-3.673 0,-2.02 1.836,-3.672 4.081,-3.672 2.244,0 4.08,-1.837 4.08,-4.081 0,-2.244 1.653,-4.08 3.673,-4.08 2.019,0 3.672,1.836 3.672,4.08 0,2.244 1.836,4.081 4.08,4.081 C -1.836,-3.672 0,-2.02 0,0"
             style="fill:#bb7aff;fill-opacity:1;fill-rule:nonzero;stroke:none"
             id="path2811" />
        </g>
        <g
           id="g2813"
           transform="translate(534.5,705.5)">
          <path
             d="m 0,0 c 0,-5.247 -4.253,-9.5 -9.5,-9.5 -5.247,0 -9.5,4.253 -9.5,9.5 0,5.247 4.253,9.5 9.5,9.5 C -4.253,9.5 0,5.247 0,0"
             style="fill:#ffffff;fill-opacity:1;fill-rule:nonzero;stroke:none"
             id="path2815" />
        </g>
        <g
           id="g2817"
           transform="translate(726.5,612.5)">
          <path
             d="m 0,0 c 0,-3.038 -2.462,-5.5 -5.5,-5.5 -3.038,0 -5.5,2.462 -5.5,5.5 0,3.038 2.462,5.5 5.5,5.5 C -2.462,5.5 0,3.038 0,0"
             style="fill:#ffffff;fill-opacity:1;fill-rule:nonzero;stroke:none"
             id="path2819" />
        </g>
        <g
           id="g2821"
           transform="translate(100.6057,619.8978)">
          <path
             d="m 0,0 c 0,-3.038 -2.462,-5.5 -5.5,-5.5 -3.037,0 -5.5,2.462 -5.5,5.5 0,3.037 2.463,5.5 5.5,5.5 C -2.462,5.5 0,3.037 0,0"
             style="fill:#ffffff;fill-opacity:1;fill-rule:nonzero;stroke:none"
             id="path2823" />
        </g>
        <g
           id="g2825"
           transform="translate(48.5,376.5)">
          <path
             d="m 0,0 c 0,-3.038 -2.462,-5.5 -5.5,-5.5 -3.038,0 -5.5,2.462 -5.5,5.5 0,3.038 2.462,5.5 5.5,5.5 C -2.462,5.5 0,3.038 0,0"
             style="fill:#ffffff;fill-opacity:1;fill-rule:nonzero;stroke:none"
             id="path2827" />
        </g>
        <g
           id="g2829"
           transform="translate(751.375,227)">
          <path
             d="m 0,0 c 0,-6.835 -5.541,-12.375 -12.375,-12.375 -6.835,0 -12.375,5.54 -12.375,12.375 0,6.835 5.54,12.375 12.375,12.375 C -5.541,12.375 0,6.835 0,0"
             style="fill:#ffffff;fill-opacity:1;fill-rule:nonzero;stroke:none"
             id="path2831" />
        </g>
        <g
           id="g2833"
           transform="translate(192.9765,674.8953)">
          <path
             d="m 0,0 c 0,-5.178 -4.197,-9.375 -9.375,-9.375 -5.178,0 -9.375,4.197 -9.375,9.375 0,5.178 4.197,9.375 9.375,9.375 C -4.197,9.375 0,5.178 0,0"
             style="fill:#bb7aff;fill-opacity:1;fill-rule:nonzero;stroke:none"
             id="path2835" />
        </g>
        <g
           id="g2837"
           transform="translate(657.9532,640.0214)">
          <path
             d="m 0,0 c 0,-5.178 -4.197,-9.375 -9.375,-9.375 -5.178,0 -9.375,4.197 -9.375,9.375 0,5.178 4.197,9.375 9.375,9.375 C -4.197,9.375 0,5.178 0,0"
             style="fill:#bb7aff;fill-opacity:1;fill-rule:nonzero;stroke:none"
             id="path2839" />
        </g>
        <g
           id="g2841"
           transform="translate(363.7474,633.7394)">
          <path
             d="m 0,0 -0.151,-38.246 c 0,0 2.116,-12.395 46.408,-12.395 44.293,0 46.258,12.547 46.258,12.547 V 2.116 H -0.454"
             style="fill:#3b3a39;fill-opacity:1;fill-rule:nonzero;stroke:none"
             id="path2843" />
        </g>
        <g
           id="g2845"
           transform="translate(482.49,643.9055)">
          <path
             d="m 0,0 -72.41,29.326 h -1.587 L -146.406,0 -74.299,-29.327 h 2.192 z"
             style="fill:#333231;fill-opacity:1;fill-rule:nonzero;stroke:none"
             id="path2847" />
        </g>
        <g
           id="g2849"
           transform="translate(417.4121,645.3793)">
          <path
             d="m 0,0 c 0,-1.837 -3.418,-3.326 -7.634,-3.326 -4.216,0 -7.634,1.489 -7.634,3.326 0,1.837 3.418,3.326 7.634,3.326 C -3.418,3.326 0,1.837 0,0"
             style="fill:#3b3a39;fill-opacity:1;fill-rule:nonzero;stroke:none"
             id="path2851" />
        </g>
        <g
           id="g2853"
           transform="translate(410.5339,646.4375)">
          <path
             d="M 0,0 32.199,-16.175 32.048,-87.526"
             style="fill:none;stroke:#fad000;stroke-width:2;stroke-linecap:butt;stroke-linejoin:miter;stroke-miterlimit:10;stroke-dasharray:none;stroke-opacity:1"
             id="path2855" />
        </g>
        <g
           id="g2857"
           transform="translate(447.1166,557.0972)">
          <path
             d="m 0,0 c 0,-2.505 -2.132,-4.535 -4.762,-4.535 -2.63,0 -4.762,2.03 -4.762,4.535 0,2.505 2.132,4.535 4.762,4.535 C -2.132,4.535 0,2.505 0,0"
             style="fill:#fad000;fill-opacity:1;fill-rule:nonzero;stroke:none"
             id="path2859" />
        </g>
        <g
           id="g2861"
           transform="translate(446.2852,548.1782)">
          <path
             d="M 0,0 C -2.162,6.069 -5.699,6.069 -7.861,0 -10.022,-6.069 -8.254,-11.035 -3.93,-11.035 0.393,-11.035 2.162,-6.069 0,0"
             style="fill:#fad000;fill-opacity:1;fill-rule:nonzero;stroke:none"
             id="path2863" />
        </g>
        <g
           id="g2865"
           transform="translate(415.5903,645.3793)">
          <path
             d="m 0,0 c 0,-1.398 -2.602,-2.532 -5.812,-2.532 -3.21,0 -5.812,1.134 -5.812,2.532 0,1.398 2.602,2.532 5.812,2.532 C -2.602,2.532 0,1.398 0,0"
             style="fill:#333231;fill-opacity:1;fill-rule:nonzero;stroke:none"
             id="path2867" />
        </g>
        <g
           id="g2869">
          <g
             id="g2871" />
          <g
             id="g2883">
            <g
               clip-path="url(#clipPath2875)"
               opacity="0.100006"
               id="g2881">
              <g
                 transform="translate(408.3987,673.232)"
                 id="g2879">
                <path
                   d="m 0,0 -72.409,-29.326 27.659,-11.25 -0.147,-37.162 c 0,0 2.1,-12.258 45.691,-12.393 L 0.794,0 Z"
                   style="fill:#939389;fill-opacity:1;fill-rule:nonzero;stroke:none"
                   id="path2877" />
              </g>
            </g>
          </g>
        </g>
      </g>
    </g>
  </g>
</svg>
