<?xml version="1.0" encoding="UTF-8" standalone="no"?>
<!-- Created with Inkscape (http://www.inkscape.org/) -->

<svg
   width="294.87387mm"
   height="294.87531mm"
   viewBox="0 0 294.87387 294.87531"
   version="1.1"
   id="svg1207"
   inkscape:version="1.2.2 (1:1.2.2+202212051552+b0a8486541)"
   sodipodi:docname="discover.svg"
   xmlns:inkscape="http://www.inkscape.org/namespaces/inkscape"
   xmlns:sodipodi="http://sodipodi.sourceforge.net/DTD/sodipodi-0.dtd"
   xmlns="http://www.w3.org/2000/svg"
   xmlns:svg="http://www.w3.org/2000/svg">
  <sodipodi:namedview
     id="namedview1209"
     pagecolor="#ffffff"
     bordercolor="#000000"
     borderopacity="0.25"
     inkscape:showpageshadow="2"
     inkscape:pageopacity="0.0"
     inkscape:pagecheckerboard="0"
     inkscape:deskcolor="#d1d1d1"
     inkscape:document-units="mm"
     showgrid="false"
     inkscape:zoom="0.77593294"
     inkscape:cx="518.08601"
     inkscape:cy="623.76524"
     inkscape:window-width="1920"
     inkscape:window-height="1007"
     inkscape:window-x="0"
     inkscape:window-y="0"
     inkscape:window-maximized="1"
     inkscape:current-layer="layer1" />
  <defs
     id="defs1204">
    <clipPath
       clipPathUnits="userSpaceOnUse"
       id="clipPath52">
      <path
         d="m 10179.3,6384.1 c 0,-2308.18 -1871.06,-4179.27 -4179.25,-4179.27 -2308.18,0 -4179.38,1871.09 -4179.38,4179.27 0,2308.26 1871.2,4179.4 4179.38,4179.4 2308.19,0 4179.25,-1871.14 4179.25,-4179.4"
         id="path50" />
    </clipPath>
  </defs>
  <g
     inkscape:label="Layer 1"
     inkscape:groupmode="layer"
     id="layer1"
     transform="translate(81.96737,-51.017003)">
    <g
       id="g859"
       transform="matrix(0.35277777,0,0,-0.35277777,-146.19656,423.6738)">
      <path
         d="m 1017.93,638.41 c 0,-230.818 -187.106,-417.927 -417.925,-417.927 -230.818,0 -417.938,187.109 -417.938,417.927 0,230.826 187.12,417.94 417.938,417.94 230.819,0 417.925,-187.114 417.925,-417.94"
         style="fill:#b4e4bc;fill-opacity:1;fill-rule:nonzero;stroke:none;stroke-width:0.1"
         id="path44" />
      <g
         id="g46"
         transform="scale(0.1)">
        <g
           id="g48"
           clip-path="url(#clipPath52)">
          <path
             d="m 5824.31,7345.49 c -210.4,-409.12 -49.19,-911.26 359.91,-1121.6 409.1,-210.33 911.19,-49.2 1121.56,359.92 210.32,409.08 49.29,911.27 -359.84,1121.55 -409.09,210.33 -911.26,49.21 -1121.63,-359.87"
             style="fill:#ffffff;fill-opacity:1;fill-rule:nonzero;stroke:none"
             id="path54" />
          <path
             d="m 6892.9,7594.7 c -363.35,186.83 -810.81,79.76 -1057.91,-229.76 216.1,394.65 708.46,547.37 1110.95,340.42 390.85,-200.97 555.06,-668.17 385.59,-1066.2 86.11,370.86 -87.42,775.01 -438.63,955.54"
             style="fill:#e5e6e4;fill-opacity:1;fill-rule:nonzero;stroke:none"
             id="path56" />
          <path
             d="m 6991.21,7793.36 c -456.95,234.99 -1020,54.37 -1254.96,-402.62 -234.98,-457.03 -54.33,-1019.95 402.71,-1254.86 457.03,-235.03 1019.91,-54.4 1254.91,402.6 234.98,457.03 54.34,1019.98 -402.66,1254.88 z m -49.17,-95.52 c 405.03,-208.16 564.5,-705.26 356.27,-1110.16 -208.21,-405.03 -705.24,-564.54 -1110.24,-356.29 -405.02,208.23 -564.51,705.26 -356.29,1110.31 208.23,404.84 705.32,564.42 1110.26,356.14"
             style="fill:#f1532e;fill-opacity:1;fill-rule:nonzero;stroke:none"
             id="path58" />
          <path
             d="m 6591.22,7616.07 v 122.87 h -30.6 v -122.36 c 1.51,0 2.93,0.14 4.43,0.14 8.75,0 17.45,-0.37 26.17,-0.65"
             style="fill:#24414c;fill-opacity:1;fill-rule:nonzero;stroke:none"
             id="path60" />
          <path
             d="m 6200.53,7648.24 -26.47,-15.23 61.17,-105.9 c 8.76,5.09 17.68,10.1 26.69,14.84 l -61.39,106.29"
             style="fill:#24414c;fill-opacity:1;fill-rule:nonzero;stroke:none"
             id="path62" />
          <path
             d="m 5907.52,7374.43 -15.27,-26.46 105.94,-61.17 c 5.05,8.83 10.32,17.55 15.78,26.15 l -106.45,61.48"
             style="fill:#24414c;fill-opacity:1;fill-rule:nonzero;stroke:none"
             id="path64" />
          <path
             d="m 5913.67,6990.77 h -122.96 v -30.56 h 122.38 c 0,1.44 -0.12,2.95 -0.12,4.37 0,8.82 0.35,17.51 0.7,26.19"
             style="fill:#24414c;fill-opacity:1;fill-rule:nonzero;stroke:none"
             id="path66" />
          <path
             d="m 5881.36,6600.14 15.31,-26.49 105.91,61.22 c -5.14,8.7 -10.14,17.61 -14.85,26.6 l -106.37,-61.33"
             style="fill:#24414c;fill-opacity:1;fill-rule:nonzero;stroke:none"
             id="path68" />
          <path
             d="m 6155.23,6307.13 26.49,-15.29 61.13,105.97 c -8.79,4.98 -17.54,10.25 -26.17,15.68 l -61.45,-106.36"
             style="fill:#24414c;fill-opacity:1;fill-rule:nonzero;stroke:none"
             id="path70" />
          <path
             d="m 6538.95,6313.18 v -122.87 h 30.51 v 122.31 c -1.42,0 -2.92,-0.1 -4.41,-0.1 -8.76,0 -17.45,0.4 -26.1,0.66"
             style="fill:#24414c;fill-opacity:1;fill-rule:nonzero;stroke:none"
             id="path72" />
          <path
             d="m 6929.61,6280.95 26.48,15.32 -61.24,105.86 c -8.74,-5.11 -17.61,-10.08 -26.65,-14.82 l 61.41,-106.36"
             style="fill:#24414c;fill-opacity:1;fill-rule:nonzero;stroke:none"
             id="path74" />
          <path
             d="m 7222.61,6554.79 15.25,26.45 -105.98,61.22 c -5.01,-8.92 -10.26,-17.61 -15.71,-26.19 l 106.44,-61.48"
             style="fill:#24414c;fill-opacity:1;fill-rule:nonzero;stroke:none"
             id="path76" />
          <path
             d="m 7216.51,6938.43 h 122.9 v 30.54 h -122.39 c 0,-1.39 0.16,-2.92 0.16,-4.39 0,-8.76 -0.34,-17.45 -0.67,-26.15"
             style="fill:#24414c;fill-opacity:1;fill-rule:nonzero;stroke:none"
             id="path78" />
          <path
             d="m 7248.73,7329.13 -15.22,26.45 -105.95,-61.12 c 5.14,-8.84 10.09,-17.71 14.82,-26.75 l 106.35,61.42"
             style="fill:#24414c;fill-opacity:1;fill-rule:nonzero;stroke:none"
             id="path80" />
          <path
             d="m 6974.88,7622.15 -26.42,15.31 -61.26,-105.97 c 8.92,-5.01 17.63,-10.36 26.23,-15.73 l 61.45,106.39"
             style="fill:#24414c;fill-opacity:1;fill-rule:nonzero;stroke:none"
             id="path82" />
          <path
             d="m 6594.68,6947.73 c -9.5,-9.18 -24.64,-8.82 -33.81,0.67 -9.14,9.63 -8.79,24.62 0.73,33.84 l 483.19,463.38 c 9.52,9.14 24.61,8.89 33.81,-0.76 9.11,-9.49 8.82,-24.57 -0.71,-33.76 l -483.21,-463.37"
             style="fill:#24414c;fill-opacity:1;fill-rule:nonzero;stroke:none"
             id="path84" />
          <path
             d="m 6282.21,7313.9 c -7.04,11.13 -3.7,25.92 7.45,32.94 11.14,7.12 25.93,3.79 33.03,-7.34 l 250.21,-361.75 c 7.1,-11.19 3.82,-25.95 -7.38,-32.95 -11.18,-7.06 -25.93,-3.76 -33.04,7.41 l -250.27,361.69"
             style="fill:#24414c;fill-opacity:1;fill-rule:nonzero;stroke:none"
             id="path86" />
          <path
             d="m 6626.21,6964.58 c 0,-33.76 -27.37,-61.12 -61.16,-61.12 -33.78,0 -61.1,27.36 -61.1,61.12 0,33.78 27.32,61.18 61.1,61.18 33.79,0 61.16,-27.4 61.16,-61.18"
             style="fill:#24414c;fill-opacity:1;fill-rule:nonzero;stroke:none"
             id="path88" />
          <path
             d="m 8384.18,2589.62 c 0,-73.82 -59.73,-133.5 -133.54,-133.5 H 5544.76 c -73.67,0 -133.49,59.68 -133.49,133.5 v 3489.13 c 0,73.71 59.82,133.5 133.49,133.5 h 2705.88 c 73.81,0 133.54,-59.79 133.54,-133.5 V 2589.62"
             style="fill:#6ebaca;fill-opacity:1;fill-rule:nonzero;stroke:none"
             id="path90" />
          <path
             d="M 5651.67,2696.45 V 5971.93 H 8143.89 V 2696.45 H 5651.67"
             style="fill:#ffffff;fill-opacity:1;fill-rule:nonzero;stroke:none"
             id="path92" />
          <path
             d="m 7476.32,5798.13 v 133.55 c 0,44.39 -35.89,80.21 -80.07,80.21 h -997 c -44.23,0 -79.95,-35.82 -79.95,-80.21 v -133.55 h 1157.02"
             style="fill:#f79014;fill-opacity:1;fill-rule:nonzero;stroke:none"
             id="path94" />
          <path
             d="m 7476.32,5856.3 v 133.47 c 0,44.25 -35.89,80.14 -80.07,80.14 h -997 c -44.23,0 -79.95,-35.89 -79.95,-80.14 V 5856.3 h 1157.02"
             style="fill:#f7bb0d;fill-opacity:1;fill-rule:nonzero;stroke:none"
             id="path96" />
          <path
             d="m 7084.67,6078.75 c 0,-103.2 -83.7,-186.94 -186.97,-186.94 -103.2,0 -186.91,83.74 -186.91,186.94 0,103.26 83.71,186.97 186.91,186.97 103.27,0 186.97,-83.71 186.97,-186.97"
             style="fill:#f7bb0d;fill-opacity:1;fill-rule:nonzero;stroke:none"
             id="path98" />
          <path
             d="m 6977.73,6078.75 c 0,-44.23 -35.69,-80.1 -80.03,-80.1 -44.16,0 -79.99,35.87 -79.99,80.1 0,44.26 35.83,80.13 79.99,80.13 44.34,0 80.03,-35.87 80.03,-80.13"
             style="fill:#ffffff;fill-opacity:1;fill-rule:nonzero;stroke:none"
             id="path100" />
          <path
             d="M 7808.35,5014.46 H 6254.94 v 81.62 h 1553.41 v -81.62"
             style="fill:#25424e;fill-opacity:1;fill-rule:nonzero;stroke:none"
             id="path102" />
          <path
             d="M 7808.35,4679.3 H 6254.94 v 81.48 h 1553.41 v -81.48"
             style="fill:#25424e;fill-opacity:1;fill-rule:nonzero;stroke:none"
             id="path104" />
          <path
             d="M 7808.35,4343.93 H 6254.94 v 81.63 h 1553.41 v -81.63"
             style="fill:#25424e;fill-opacity:1;fill-rule:nonzero;stroke:none"
             id="path106" />
          <path
             d="M 7808.35,4008.78 H 6254.94 v 81.63 h 1553.41 v -81.63"
             style="fill:#25424e;fill-opacity:1;fill-rule:nonzero;stroke:none"
             id="path108" />
          <path
             d="m 5981.13,4845.54 c -10.17,0 -19.92,4.17 -26.99,11.51 l -61.29,64.26 c -14.19,14.94 -13.63,38.52 1.27,52.73 14.96,14.19 38.54,13.73 52.76,-1.21 l 32.12,-33.71 108.36,132.09 c 13.09,15.92 36.55,18.29 52.54,5.14 15.9,-13.05 18.21,-36.56 5.14,-52.45 l -135.07,-164.73 c -6.73,-8.28 -16.75,-13.22 -27.39,-13.55 l -1.45,-0.08"
             style="fill:#37a28a;fill-opacity:1;fill-rule:nonzero;stroke:none"
             id="path110" />
          <path
             d="m 5981.13,4523.41 c -10.17,0 -19.98,4.13 -26.99,11.56 l -61.29,64.27 c -14.19,14.93 -13.63,38.53 1.3,52.72 14.98,14.25 38.51,13.66 52.73,-1.24 l 32.12,-33.71 108.33,132.22 c 13.06,15.9 36.58,18.1 52.57,5.18 15.9,-13.05 18.21,-36.56 5.18,-52.55 l -135.05,-164.8 c -6.79,-8.28 -16.81,-13.28 -27.45,-13.61 l -1.45,-0.04"
             style="fill:#37a28a;fill-opacity:1;fill-rule:nonzero;stroke:none"
             id="path112" />
          <path
             d="m 5981.13,4201.37 c -10.17,0 -19.92,4.13 -26.99,11.52 l -61.29,64.22 c -14.19,14.89 -13.63,38.52 1.27,52.74 14.96,14.21 38.54,13.6 52.76,-1.2 L 5979,4294.88 6087.36,4427 c 13.09,15.96 36.55,18.27 52.54,5.2 15.9,-13.06 18.21,-36.61 5.14,-52.51 l -135.07,-164.67 c -6.73,-8.32 -16.75,-13.26 -27.39,-13.65 h -1.45"
             style="fill:#37a28a;fill-opacity:1;fill-rule:nonzero;stroke:none"
             id="path114" />
          <path
             d="m 5569.69,5622.49 -1.3,-4.01 h -244.2 v -176.51 h 187.09 45.59 c 0,0 35.45,-447.27 -249.48,-629.78 l -43.17,-110.45 c 263.63,99.72 453.08,337.35 453.08,635.92 v 284.83 h -147.61"
             style="fill:#f0aa0e;fill-opacity:1;fill-rule:nonzero;stroke:none"
             id="path116" />
          <path
             d="m 3651.35,5441.97 h 234.68 v -441.28 c 0,-66.66 9.35,-132.55 26.79,-195.98 -297.98,177.45 -261.47,637.26 -261.47,637.26 z m 314.39,-748.62 c 10.6,-22.45 16.44,-59.55 29.07,-80.85 h 626.32 l 3.7,1098.21 h -738.8 v -88.22 h -395.15 v -284.83 c 0,-305.26 201.86,-549.51 474.86,-644.31"
             style="fill:#f0aa0e;fill-opacity:1;fill-rule:nonzero;stroke:none"
             id="path118" />
          <path
             d="m 5241.97,3078.7 v 20.5 h -48.18 v 665.93 H 4014.39 V 3099.2 h -48.12 v -20.5 h 1275.7"
             style="fill:#25424e;fill-opacity:1;fill-rule:nonzero;stroke:none"
             id="path120" />
          <path
             d="m 4606.1,3078.7 v 686.43 H 4014.39 V 3099.2 h -48.12 v -20.5 h 639.83"
             style="fill:#1f3541;fill-opacity:1;fill-rule:nonzero;stroke:none"
             id="path122" />
          <path
             d="m 5311.39,4820.76 c 17.48,63.42 26.82,129.33 26.82,195.97 V 5458 h 234.69 c 0,0 36.51,-459.77 -261.51,-637.24 z m 26.82,817.77 v 88.26 h -737.46 l -4.87,-1456.22 h 44.33 c 273.09,0 509.51,181.03 624.18,423.65 273.01,94.78 469,354.23 469,659.48 v 284.83 h -395.18"
             style="fill:#ebc10d;fill-opacity:1;fill-rule:nonzero;stroke:none"
             id="path124" />
          <path
             d="m 3635.3,5458 h 234.69 v -441.27 c 0,-66.64 9.35,-132.55 26.79,-195.97 C 3598.81,4998.23 3635.3,5458 3635.3,5458 Z m 624.73,-1688.88 h 688.12 c -5.84,43.05 -42.65,76.25 -87.3,76.25 h -100.29 c 28.81,0 52.15,23.32 52.15,52.14 0,28.79 -23.34,52.15 -52.15,52.15 h -24.09 v 168.69 c 26.93,2.05 48.18,24.49 48.18,51.93 0,27.46 -21.25,49.9 -48.18,51.96 v 88.44 h -132.44 l 4.76,1416.11 h -738.8 v -88.26 H 3474.84 V 5353.7 c 0,-305.25 195.97,-564.7 468.96,-659.48 100.97,-213.6 296.3,-379.41 527.93,-416 v -55.98 c -26.92,-2.06 -48.15,-24.5 -48.15,-51.96 0,-27.44 21.23,-49.88 48.15,-51.93 v -168.69 h -24.07 c -28.82,0 -52.17,-23.36 -52.17,-52.15 0,-28.82 23.35,-52.14 52.17,-52.14 h -100.29 c -44.66,0 -81.47,-33.2 -87.34,-76.25"
             style="fill:#f8cc09;fill-opacity:1;fill-rule:nonzero;stroke:none"
             id="path126" />
          <path
             d="M 3936.19,5770.91 H 5340.23 V 5554.28 Z"
             style="fill:#f0aa0e;fill-opacity:1;fill-rule:nonzero;stroke:none"
             id="path128" />
          <path
             d="m 4472.88,4123.54 h 263.93 v -39.92 z"
             style="fill:#e39e14;fill-opacity:1;fill-rule:nonzero;stroke:none"
             id="path130" />
          <path
             d="M 5406.42,5722.76 H 3801.79 v 152.45 h 1604.63 v -152.45"
             style="fill:#f8cc09;fill-opacity:1;fill-rule:nonzero;stroke:none"
             id="path132" />
          <path
             d="m 5406.42,5722.76 h -794.3 v 152.45 h 794.3 v -152.45"
             style="fill:#ebc10d;fill-opacity:1;fill-rule:nonzero;stroke:none"
             id="path134" />
          <path
             d="m 4098.66,5722.76 h -160.48 v 152.45 h 160.48 v -152.45"
             style="fill:#f0e306;fill-opacity:1;fill-rule:nonzero;stroke:none"
             id="path136" />
          <path
             d="m 4423.84,4165.11 c 2.62,-26.38 24.85,-46.98 51.89,-46.98 h 256.74 c 27.04,0 49.28,20.6 51.9,46.98 h -360.53"
             style="fill:#f0aa0e;fill-opacity:1;fill-rule:nonzero;stroke:none"
             id="path138" />
          <path
             d="m 4395.6,3899.01 -0.11,-1.5 c 0,-28.82 23.35,-52.14 52.17,-52.14 h 312.9 c 28.81,0 52.15,23.32 52.15,52.14 l -0.08,1.5 H 4395.6"
             style="fill:#f0aa0e;fill-opacity:1;fill-rule:nonzero;stroke:none"
             id="path140" />
          <path
             d="m 4511.84,4222.24 c -26.93,-2.06 -48.14,-24.5 -48.14,-51.96 0,-27.44 21.21,-49.88 48.14,-51.93 v -168.69 h -24.07 c -28.81,0 -52.15,-23.36 -52.15,-52.15 0,-28.82 23.34,-52.14 52.15,-52.14 h 40.1 c -28.8,0 -52.14,23.32 -52.14,52.14 0,28.79 23.34,52.15 52.14,52.15 h 24.07 v 168.69 c -26.92,2.05 -48.14,24.49 -48.14,51.93 0,27.46 21.22,49.9 48.14,51.96 v 55.98 c -623.8,313.27 -415.19,1448.57 -415.19,1448.57 h -160.47 c 0,0 -224.63,-1311.79 535.56,-1448.57 v -55.98"
             style="fill:#f0e306;fill-opacity:1;fill-rule:nonzero;stroke:none"
             id="path142" />
          <path
             d="m 4445.63,3845.32 -48.12,4.03 c -44.66,0 -91.49,-37.18 -97.37,-80.23 h 40.12 c 5.88,43.05 60.73,76.2 105.37,76.2"
             style="fill:#f0e306;fill-opacity:1;fill-rule:nonzero;stroke:none"
             id="path144" />
          <path
             d="m 5669.17,5458 h -328.94 v 176.53 h 328.94 V 5458"
             style="fill:#f0aa0e;fill-opacity:1;fill-rule:nonzero;stroke:none"
             id="path146" />
          <path
             d="M 5585.76,5638.53 5527.31,5458 h 45.59 c 0,0 35.5,-447.25 -249.44,-629.79 l -41.29,-127.44 c 263.66,99.72 451.22,354.36 451.22,652.93 v 284.83 h -147.63"
             style="fill:#ebc10d;fill-opacity:1;fill-rule:nonzero;stroke:none"
             id="path148" />
          <path
             d="m 4955.11,3171.4 h -690 v 441.3 h 690 v -441.3"
             style="fill:#e8e8e6;fill-opacity:1;fill-rule:nonzero;stroke:none"
             id="path150" />
          <path
             d="m 4001.37,5710.7 c -69.37,-25.37 -89.96,-45.95 -115.34,-115.31 -25.38,69.36 -46,89.94 -115.34,115.31 69.34,25.41 89.96,45.97 115.34,115.35 25.38,-69.38 45.97,-89.94 115.34,-115.35"
             style="fill:#ffffff;fill-opacity:1;fill-rule:nonzero;stroke:none"
             id="path152" />
          <path
             d="M 6797.45,2876.29 H 4990.36 c -98.26,0 -178.15,79.9 -178.15,178.15 v 6.31 c 0,98.3 79.89,178.16 178.15,178.16 h 1807.09 v 76.45 H 4990.36 c -140.36,0 -254.53,-114.23 -254.53,-254.61 v -6.31 c 0,-140.38 114.17,-254.57 254.53,-254.57 h 1807.09 v 76.42"
             style="fill:#f4cd1a;fill-opacity:1;fill-rule:nonzero;stroke:none"
             id="path154" />
          <path
             d="m 6797.45,3267.58 h -1813.5 c -105.4,0 -190.86,-94.02 -190.86,-210 0,-115.95 85.46,-209.96 190.86,-209.96 h 1813.5 v 419.96"
             style="fill:#ffffff;fill-opacity:1;fill-rule:nonzero;stroke:none"
             id="path156" />
          <path
             d="M 6797.45,2369.59 H 4990.36 c -98.26,0 -178.15,79.93 -178.15,178.16 v 6.33 c 0,98.27 79.89,178.15 178.15,178.15 h 1807.09 v 76.39 H 4990.36 c -140.36,0 -254.53,-114.18 -254.53,-254.54 v -6.33 c 0,-140.39 114.17,-254.54 254.53,-254.54 h 1807.09 v 76.38"
             style="fill:#558ab8;fill-opacity:1;fill-rule:nonzero;stroke:none"
             id="path158" />
          <path
             d="m 6797.45,2760.95 h -1813.5 c -105.4,0 -190.86,-94.03 -190.86,-210.03 0,-115.97 85.46,-209.95 190.86,-209.95 h 1813.5 v 419.98"
             style="fill:#ffffff;fill-opacity:1;fill-rule:nonzero;stroke:none"
             id="path160" />
          <path
             d="m 6302.81,3111.99 v -230.97 l 84.25,89.03 88.17,-93.23 h 1.92 v 235.17 h -174.34"
             style="fill:#c42e2f;fill-opacity:1;fill-rule:nonzero;stroke:none"
             id="path162" />
          <path
             d="m 7513.68,6223.56 541.74,-493.36 164.47,319.24 z"
             style="fill:#f6cc93;fill-opacity:1;fill-rule:nonzero;stroke:none"
             id="path164" />
          <path
             d="m 8983.9,6127.89 c 0,-126.09 -91.52,-229.27 -203.37,-229.27 L 8089.2,5654.24 c -111.83,0 -320.3,364.92 -320.3,491 l -126.71,1173.68 c 0,126.1 335.18,-71.34 447.01,-71.34 h 691.33 c 111.85,0 203.37,-103.17 203.37,-229.27 v -890.42"
             style="fill:#f6cc93;fill-opacity:1;fill-rule:nonzero;stroke:none"
             id="path166" />
          <path
             d="m 8916.41,4985.31 h -890 v 831.94 l 890,226.48 V 4985.31"
             style="fill:#f6cc93;fill-opacity:1;fill-rule:nonzero;stroke:none"
             id="path168" />
          <path
             d="m 9090.32,5073.62 -1253.23,20.72 3.05,185.64 1253.23,-20.72 -3.05,-185.64"
             style="fill:#ffffff;fill-opacity:1;fill-rule:nonzero;stroke:none"
             id="path170" />
          <path
             d="m 7817.44,2456.12 20.62,2697.83 1253.25,-10.22 -30.04,-2687.61 H 7817.44"
             style="fill:#15213a;fill-opacity:1;fill-rule:nonzero;stroke:none"
             id="path172" />
          <path
             d="m 7817.44,2456.12 10.11,2697.83 613.22,-10.22 -14.68,-2687.61 h -608.65"
             style="fill:#25434e;fill-opacity:1;fill-rule:nonzero;stroke:none"
             id="path174" />
          <path
             d="m 8850.36,4850.67 c -0.71,-39.23 30.6,-71.53 69.85,-72.14 39.19,-0.7 71.47,30.62 72.12,69.88 0.62,39.12 -30.58,71.41 -69.9,72.09 -39.11,0.59 -71.43,-30.66 -72.07,-69.83"
             style="fill:#ffffff;fill-opacity:1;fill-rule:nonzero;stroke:none"
             id="path176" />
          <path
             d="m 9098.71,8000.13 c -1.58,467.72 -382,845.4 -849.53,843.83 -467.77,-1.57 -845.66,-382.02 -844.02,-849.58 0.8,-248.48 108.66,-471.61 279.61,-625.94 h -6.38 c 108.29,-129.09 174.16,-294.78 176.16,-476.16 l 794.05,2.8 c 0.74,178.75 63.81,342.77 168.53,471.74 173.47,155.72 282.4,381.67 281.58,633.31"
             style="fill:#f2cc1a;fill-opacity:1;fill-rule:nonzero;stroke:none"
             id="path178" />
          <path
             d="m 8118.87,8170.35 c 0.93,0.84 1.96,1.23 3.1,1.18 1.09,0.03 2.29,-0.58 3.86,-1.47 8.25,-6.11 21.42,-29.9 18.53,-80.92 -1.89,-32.06 -8.97,-58.61 -21.32,-79.31 -16.18,22.99 -25.95,50.11 -26.01,78.52 -0.17,53.75 13.61,76.81 21.84,82 m 250.65,3.46 1.34,0.77 1.81,-0.72 c 8.54,-5.13 24.96,-30.59 26.53,-90.53 0.72,-22.74 -5.06,-45.08 -16.4,-65.25 -15.99,18.1 -27.87,40.9 -29.4,69.67 -3,52.03 7.95,80.06 16.12,86.06 m -567.7,-116.75 c -10.08,14.63 -28.56,17.25 -41.24,5.87 -12.81,-11.52 -15.03,-32.73 -5.22,-47.25 5.12,-7.59 10.93,-14.77 17.32,-21.99 l 301.88,-1099.53 c 4,-14.44 15.33,-23.52 27.76,-23.61 2.93,-0.1 5.98,0.47 9.08,1.72 15.52,5.61 24.04,24.41 19.1,42.31 l -278.77,1015.95 c 69.74,-39.99 157.37,-58.86 229.35,-33.52 15.53,5.54 29.73,12.82 42.43,22.02 34.85,-26.57 77.52,-42.8 122.93,-43.21 53.81,-0.62 104.81,18.64 143.74,53.57 21.31,-13.42 46.17,-24.58 73.76,-32.8 81.9,-24.83 154.49,-19.95 215.39,13.39 l -296.28,-998.03 c -5.11,-17.56 3.01,-36.73 18.26,-42.71 3.07,-1.17 6.26,-1.7 9.26,-1.78 12.38,-0.08 24.02,8.8 28.12,22.95 l 324.85,1094.95 c 2.72,3.57 5.68,6.53 8.27,10.21 10.05,14.51 8.11,35.76 -4.45,47.42 -12.72,11.54 -31.19,9.27 -41.26,-5.41 -57.49,-82.51 -140.74,-108.07 -247.03,-76.1 -11.97,3.66 -29.41,10.04 -47.4,19.46 18.06,31.65 27.2,67.85 26.12,104.63 -1.78,73.16 -22.97,127.14 -57.86,148 -20.45,12.22 -43.24,10.99 -62.45,-3.33 -31.07,-23.33 -46.71,-76.93 -42.78,-147.02 2.4,-42.56 18.23,-80.52 45.58,-111.82 -48.44,-33.96 -120.57,-36.9 -171.99,-4.57 19.98,31.54 31.77,71.46 34.57,118.04 3.85,65.41 -13.19,118.51 -45.56,142.09 -20.56,15.11 -45.64,16.02 -66.84,2.42 -33.56,-21.21 -52.47,-72.8 -52.23,-141.46 0.21,-44.29 14.77,-86.09 39.2,-120.72 -4.35,-2.25 -8.85,-4.07 -13.55,-5.81 -88.02,-31.11 -215.45,26.93 -262.06,95.67"
             style="fill:#ffffff;fill-opacity:1;fill-rule:nonzero;stroke:none"
             id="path180" />
          <path
             d="m 8626.98,6916.43 -756.96,-2.62 c -21.35,0 -38.45,-17.29 -38.44,-38.62 l 0.95,-288.67 c 0.2,-21.15 17.52,-38.12 38.67,-38.16 l 138.93,0.49 72.21,-124.18 335.51,1.03 71.37,124.87 139,0.49 c 21.22,-0.08 38.42,17.2 38.3,38.46 l -0.88,288.55 c -0.06,21.26 -17.44,38.42 -38.66,38.36"
             style="fill:#25414c;fill-opacity:1;fill-rule:nonzero;stroke:none"
             id="path182" />
          <path
             d="m 8669.95,6772.79 -840.74,8.67 0.72,65.14 840.74,-8.64 -0.72,-65.17"
             style="fill:#578690;fill-opacity:1;fill-rule:nonzero;stroke:none"
             id="path184" />
          <path
             d="m 8668.24,6609.82 -840.75,8.73 0.78,65.08 840.63,-8.63 -0.66,-65.18"
             style="fill:#578690;fill-opacity:1;fill-rule:nonzero;stroke:none"
             id="path186" />
          <path
             d="m 8776.18,7246.11 -563.04,-4.66 c -88.91,-1.26 -160.13,-74.33 -159,-163.31 1.28,-88.92 74.22,-160.13 163.29,-159 l 572.68,-4.38 -13.93,331.35"
             style="fill:#f6cc93;fill-opacity:1;fill-rule:nonzero;stroke:none"
             id="path188" />
          <path
             d="m 8251.19,6972.87 c -85.96,0 -148.76,27.24 -143.2,127.63 4.15,72.07 53.19,92.49 103.75,92.49 19.62,0 39.48,-3.08 57.02,-7.4 62.47,-15.28 117.51,-38.59 118.12,-105.81 0.17,-26.32 -14.96,-101.32 -112.43,-106.3 -7.91,-0.4 -15.67,-0.61 -23.26,-0.61"
             style="fill:#f8dbb4;fill-opacity:1;fill-rule:nonzero;stroke:none"
             id="path190" />
          <path
             d="m 7927.09,7090.16 c 85.05,-32.44 127.75,-127.54 95.42,-212.52 -32.53,-85.1 -127.6,-127.74 -212.57,-95.32 l -231.04,87.91 c -84.98,32.39 -127.61,127.56 -95.17,212.5 32.28,85.01 127.38,127.79 212.42,95.37 l 230.94,-87.94"
             style="fill:#f6cc93;fill-opacity:1;fill-rule:nonzero;stroke:none"
             id="path192" />
          <path
             d="m 7827.17,6747.71 c 80.9,-20.17 129.9,-102.2 109.61,-182.83 -20.22,-80.81 -102.13,-129.8 -183.05,-109.55 l -219.3,55 c -80.69,20.21 -129.73,102.19 -109.53,182.86 20.34,80.89 102.27,129.93 182.97,109.6 l 219.3,-55.08"
             style="fill:#f6cc93;fill-opacity:1;fill-rule:nonzero;stroke:none"
             id="path194" />
          <path
             d="m 7834.05,6405.27 c 71.9,-18.04 115.44,-90.86 97.43,-162.7 -17.91,-71.55 -90.85,-115.37 -162.58,-97.33 l -194.78,49.04 c -71.87,17.76 -115.31,90.8 -97.48,162.53 18.08,71.78 90.81,115.34 162.58,97.32 l 194.83,-48.86"
             style="fill:#f6cc93;fill-opacity:1;fill-rule:nonzero;stroke:none"
             id="path196" />
          <path
             d="m 7893.9,6831.46 c -26.56,0 -54.5,7.85 -77.57,17.43 -57.84,23.94 -107.33,54.51 -98,119.3 3.47,23.74 26.17,86.58 106.68,86.58 5.46,0 11.2,-0.29 17.2,-0.9 94.68,-9.77 163.39,-42.58 141.42,-146.82 -12.24,-57.52 -49.41,-75.59 -89.73,-75.59"
             style="fill:#f8dbb4;fill-opacity:1;fill-rule:nonzero;stroke:none"
             id="path198" />
          <path
             d="m 7819.25,6498.62 c -24.5,0 -50.29,7.25 -71.57,16.09 -53.33,22.07 -98.99,50.25 -90.37,109.98 3.26,21.89 24.15,79.83 98.4,79.83 5.03,0 10.32,-0.27 15.84,-0.83 87.28,-9.01 150.66,-39.28 130.38,-135.37 -11.27,-53.04 -45.51,-69.71 -82.68,-69.7"
             style="fill:#f8dbb4;fill-opacity:1;fill-rule:nonzero;stroke:none"
             id="path200" />
          <path
             d="m 7816.22,6187.76 c -22.24,0 -45.63,6.57 -64.93,14.58 -48.41,20.01 -89.85,45.58 -82.03,99.83 2.93,19.85 21.93,72.41 89.29,72.41 4.57,0 9.36,-0.24 14.38,-0.75 79.2,-8.14 136.72,-35.63 118.33,-122.85 -10.23,-48.12 -41.31,-63.23 -75.04,-63.22"
             style="fill:#f8dbb4;fill-opacity:1;fill-rule:nonzero;stroke:none"
             id="path202" />
          <path
             d="m 7967.1,7487.52 c 87.3,-33.31 131.16,-130.98 97.97,-218.28 -33.39,-87.4 -131.06,-131.17 -218.3,-97.9 l -237.35,90.31 c -87.27,33.25 -131.03,131 -97.73,218.26 33.16,87.28 130.86,131.24 218.19,97.93 l 237.22,-90.32"
             style="fill:#f6cc93;fill-opacity:1;fill-rule:nonzero;stroke:none"
             id="path204" />
          <path
             d="m 7933.04,7221.82 c -27.3,0 -56,8.07 -79.7,17.93 -59.44,24.57 -110.29,55.97 -100.69,122.52 3.6,24.37 26.91,88.91 109.59,88.91 5.61,0 11.51,-0.3 17.68,-0.93 97.19,-10.01 167.8,-43.75 145.23,-150.79 -12.58,-59.07 -50.73,-77.64 -92.11,-77.64"
             style="fill:#f8dbb4;fill-opacity:1;fill-rule:nonzero;stroke:none"
             id="path206" />
          <path
             d="M 4555.94,6223.56 4014.21,5730.2 3849.74,6049.44 Z"
             style="fill:#f6cc93;fill-opacity:1;fill-rule:nonzero;stroke:none"
             id="path208" />
          <path
             d="m 3085.74,6127.89 c 0,-126.09 91.51,-229.27 203.35,-229.27 l 691.34,-244.38 c 111.83,0 320.29,364.92 320.29,491 l 17.02,873.07 c 0,126.1 62.29,534.72 -49.54,534.72 l -979.11,-305.45 c -111.84,0 -203.35,-103.17 -203.35,-229.27 v -890.42"
             style="fill:#f6cc93;fill-opacity:1;fill-rule:nonzero;stroke:none"
             id="path210" />
          <path
             d="m 3153.21,4985.31 h 890.01 v 831.94 l -890.01,226.48 V 4985.31"
             style="fill:#f6cc93;fill-opacity:1;fill-rule:nonzero;stroke:none"
             id="path212" />
          <path
             d="m 3153.21,4985.31 h 890.01 v 831.94 l -890.01,226.48 V 4985.31"
             style="fill:#f6cc93;fill-opacity:1;fill-rule:nonzero;stroke:none"
             id="path214" />
          <path
             d="m 3897.23,5854.76 -0.75,0.09 c -173.54,12.11 -304.53,162.53 -292.47,336.14 l 94.42,1358.4 c 12.13,173.32 162.12,304.16 335.35,292.46 h 0.8 C 4208.1,7829.78 4339,7679.4 4326.94,7505.81 l -94.39,-1358.52 c -12.05,-173.33 -162.16,-304.14 -335.32,-292.53"
             style="fill:#ee5329;fill-opacity:1;fill-rule:nonzero;stroke:none"
             id="path216" />
          <path
             d="m 4050.13,8032.99 -0.04,0.03 c -329.49,22.06 -630.16,171.08 -846.57,419.48 -445.88,511.97 -392.11,1291.1 119.67,1737 247.01,215.3 563.67,321.7 891.29,299.7 329.27,-22.1 629.68,-171 846.03,-419.2 215.63,-247.66 322.16,-565.04 299.55,-893.5 -22.65,-328.52 -171.48,-628.2 -419.13,-843.95 -246.94,-215.11 -563.3,-321.48 -890.8,-299.56"
             style="fill:#2b547e;fill-opacity:1;fill-rule:nonzero;stroke:none"
             id="path218" />
          <path
             d="m 4193.39,10174.9 c -243.91,16.3 -479.55,-62.9 -663.3,-222.92 -380.84,-331.85 -420.85,-911.64 -89,-1292.54 161.05,-184.79 384.7,-295.66 630.07,-312.07 l 0.01,-0.1 c 243.81,-16.37 479.11,62.84 662.87,222.73 184.21,160.48 294.9,383.55 311.75,628.13 16.81,244.55 -62.37,480.71 -222.89,664.92 -160.82,184.65 -384.39,295.35 -629.51,311.85"
             style="fill:#97d2a1;fill-opacity:1;fill-rule:nonzero;stroke:none"
             id="path220" />
          <path
             d="m 5045.79,9198.13 c 16.81,244.55 -62.37,480.71 -222.89,664.92 -45.18,51.87 -95.51,97.8 -149.69,137.55 -99.54,45.4 -207.56,73.1 -320.24,80.6 -243.89,16.4 -479.56,-62.7 -663.3,-222.94 -380.9,-331.76 -420.83,-911.59 -89,-1292.47 45.25,-52.08 95.62,-97.87 149.95,-137.74 99.67,-45.49 207.71,-73.14 320.54,-80.68 l 0.01,-0.1 c 243.81,-16.37 479.11,62.84 662.87,222.73 184.21,160.48 294.9,383.55 311.75,628.13"
             style="fill:#b4e4bc;fill-opacity:1;fill-rule:nonzero;stroke:none"
             id="path222" />
          <path
             d="m 4018.25,7663.63 c -86.76,6.03 -152.32,81.2 -146.27,168.04 l 23.33,281.06 c 5.98,86.6 81,152.01 167.58,146.23 l 0.44,-0.06 c 86.72,-5.98 152.23,-81.16 146.23,-167.95 l -23.35,-281.07 c -6,-86.67 -81.02,-152.05 -167.65,-146.17 l -0.31,-0.08"
             style="fill:#2b547e;fill-opacity:1;fill-rule:nonzero;stroke:none"
             id="path224" />
          <path
             d="m 4142.52,7090.16 c -85.03,-32.44 -127.75,-127.54 -95.4,-212.52 32.52,-85.1 127.6,-127.74 212.56,-95.32 l 231.05,87.91 c 84.98,32.39 127.61,127.56 95.17,212.5 -32.29,85.01 -127.39,127.79 -212.42,95.37 l -230.96,-87.94"
             style="fill:#f6cc93;fill-opacity:1;fill-rule:nonzero;stroke:none"
             id="path226" />
          <path
             d="m 4242.47,6747.71 c -80.92,-20.17 -129.91,-102.2 -109.62,-182.83 20.22,-80.81 102.14,-129.8 183.04,-109.55 l 219.3,55 c 80.69,20.21 129.74,102.19 109.54,182.86 -20.34,80.89 -102.27,129.93 -182.98,109.6 l -219.28,-55.08"
             style="fill:#f6cc93;fill-opacity:1;fill-rule:nonzero;stroke:none"
             id="path228" />
          <path
             d="m 4235.58,6405.27 c -71.9,-18.04 -115.44,-90.86 -97.43,-162.7 17.9,-71.55 90.86,-115.37 162.57,-97.33 l 194.78,49.04 c 71.87,17.76 115.3,90.8 97.49,162.53 -18.08,71.78 -90.81,115.34 -162.59,97.32 l -194.82,-48.86"
             style="fill:#f6cc93;fill-opacity:1;fill-rule:nonzero;stroke:none"
             id="path230" />
          <path
             d="m 4175.72,6831.46 c -40.32,0 -77.48,18.07 -89.74,75.59 -21.97,104.24 46.76,137.05 141.43,146.82 6,0.61 11.74,0.9 17.2,0.9 80.52,0 103.21,-62.84 106.68,-86.58 9.34,-64.79 -40.15,-95.36 -97.99,-119.3 -23.08,-9.58 -51.02,-17.43 -77.58,-17.43"
             style="fill:#f8dbb4;fill-opacity:1;fill-rule:nonzero;stroke:none"
             id="path232" />
          <path
             d="m 4250.37,6498.62 c -37.16,0 -71.4,16.66 -82.68,69.7 -20.27,96.09 43.11,126.36 130.38,135.37 5.53,0.56 10.82,0.83 15.84,0.83 74.26,0 95.15,-57.94 98.41,-79.83 8.62,-59.73 -37.03,-87.91 -90.38,-109.98 -21.28,-8.84 -47.06,-16.09 -71.57,-16.09"
             style="fill:#f8dbb4;fill-opacity:1;fill-rule:nonzero;stroke:none"
             id="path234" />
          <path
             d="m 4253.41,6187.76 c -33.72,0 -64.81,15.1 -75.05,63.22 -18.38,87.22 39.12,114.71 118.34,122.85 5.02,0.51 9.81,0.75 14.37,0.75 67.37,0 86.37,-52.56 89.3,-72.41 7.81,-54.25 -33.62,-79.82 -82.03,-99.83 -19.3,-8.01 -42.69,-14.58 -64.93,-14.58"
             style="fill:#f8dbb4;fill-opacity:1;fill-rule:nonzero;stroke:none"
             id="path236" />
          <path
             d="m 4102.52,7487.52 c -87.3,-33.31 -131.16,-130.98 -97.96,-218.28 33.39,-87.4 131.06,-131.17 218.31,-97.9 l 237.31,90.31 c 87.3,33.25 131.06,131 97.75,218.26 -33.16,87.28 -130.85,131.24 -218.2,97.93 l -237.21,-90.32"
             style="fill:#f6cc93;fill-opacity:1;fill-rule:nonzero;stroke:none"
             id="path238" />
          <path
             d="m 4136.59,7221.82 c -41.39,0 -79.54,18.57 -92.12,77.64 -22.56,107.04 48.04,140.78 145.24,150.79 6.17,0.63 12.07,0.93 17.69,0.93 82.68,0 105.97,-64.54 109.57,-88.91 9.61,-66.55 -41.24,-97.95 -100.69,-122.52 -23.7,-9.86 -52.4,-17.93 -79.69,-17.93"
             style="fill:#f8dbb4;fill-opacity:1;fill-rule:nonzero;stroke:none"
             id="path240" />
          <path
             d="m 3293.45,7246.11 563.03,-4.66 c 88.92,-1.26 160.13,-74.33 159.01,-163.31 -1.28,-88.92 -74.23,-160.13 -163.3,-159 l -572.66,-4.38 13.92,331.35"
             style="fill:#f6cc93;fill-opacity:1;fill-rule:nonzero;stroke:none"
             id="path242" />
          <path
             d="m 3818.44,6972.87 c -7.59,0 -15.35,0.21 -23.26,0.61 -97.47,4.98 -112.6,79.98 -112.44,106.3 0.61,67.22 55.66,90.53 118.12,105.81 17.54,4.32 37.4,7.4 57.03,7.4 50.55,0 99.6,-20.42 103.75,-92.49 5.56,-100.39 -57.25,-127.63 -143.2,-127.63"
             style="fill:#f8dbb4;fill-opacity:1;fill-rule:nonzero;stroke:none"
             id="path244" />
          <path
             d="m 2979.31,5073.62 1253.22,20.72 -3.04,185.64 -1253.24,-20.72 3.06,-185.64"
             style="fill:#ffffff;fill-opacity:1;fill-rule:nonzero;stroke:none"
             id="path246" />
          <path
             d="m 4252.18,2456.12 -20.63,2697.83 -1253.23,-10.22 30.03,-2687.61 h 1243.83"
             style="fill:#15213a;fill-opacity:1;fill-rule:nonzero;stroke:none"
             id="path248" />
          <path
             d="m 4252.18,2456.12 -10.1,2697.83 -613.22,-10.22 14.67,-2687.61 h 608.65"
             style="fill:#25434e;fill-opacity:1;fill-rule:nonzero;stroke:none"
             id="path250" />
          <path
             d="m 3219.27,4850.67 c 0.71,-39.23 -30.59,-71.53 -69.86,-72.14 -39.2,-0.7 -71.47,30.62 -72.12,69.88 -0.63,39.12 30.6,71.41 69.91,72.09 39.11,0.59 71.43,-30.66 72.07,-69.83"
             style="fill:#ffffff;fill-opacity:1;fill-rule:nonzero;stroke:none"
             id="path252" />
        </g>
      </g>
      <path
         d="m 405.013,803.299 -0.004,0.003 c -32.949,2.206 -63.016,17.108 -84.657,41.948 -44.588,51.197 -39.211,129.11 11.967,173.7 24.701,21.53 56.367,32.17 89.129,29.97 32.927,-2.21 62.968,-17.1 84.603,-41.92 21.563,-24.766 32.216,-56.504 29.955,-89.35 -2.265,-32.852 -17.148,-62.82 -41.913,-84.395 -24.694,-21.511 -56.33,-32.148 -89.08,-29.956"
         style="fill:#2b547e;fill-opacity:1;fill-rule:nonzero;stroke:none;stroke-width:0.1"
         id="path254" />
      <path
         d="m 419.339,1017.49 c -24.391,1.63 -47.955,-6.29 -66.33,-22.292 -38.084,-33.185 -42.085,-91.164 -8.9,-129.254 16.105,-18.479 38.47,-29.566 63.007,-31.207 l 0.001,-0.01 c 24.381,-1.637 47.911,6.284 66.287,22.273 18.421,16.048 29.49,38.355 31.175,62.813 1.681,24.455 -6.237,48.071 -22.289,66.492 -16.082,18.465 -38.439,29.535 -62.951,31.185"
         style="fill:#97d2a1;fill-opacity:1;fill-rule:nonzero;stroke:none;stroke-width:0.1"
         id="path256" />
      <path
         d="m 504.579,919.813 c 1.681,24.455 -6.237,48.071 -22.289,66.492 -4.518,5.187 -9.551,9.78 -14.969,13.755 -9.954,4.54 -20.756,7.31 -32.024,8.06 -24.389,1.64 -47.956,-6.27 -66.33,-22.294 -38.09,-33.176 -42.083,-91.159 -8.9,-129.247 4.525,-5.208 9.562,-9.787 14.995,-13.774 9.967,-4.549 20.771,-7.314 32.054,-8.068 l 0.001,-0.01 c 24.381,-1.637 47.911,6.284 66.287,22.273 18.421,16.048 29.49,38.355 31.175,62.813"
         style="fill:#b4e4bc;fill-opacity:1;fill-rule:nonzero;stroke:none;stroke-width:0.1"
         id="path258" />
    </g>
  </g>
</svg>
