<svg width="40" height="40" viewBox="0 0 40 40" fill="none" xmlns="http://www.w3.org/2000/svg">
<path opacity="0.4" d="M26.985 3.3335H13.0167C7.95 3.3335 5 6.30016 5 11.3835V28.6002C5 33.7668 7.95 36.6668 13.0167 36.6668H26.985C32.1333 36.6668 35 33.7668 35 28.6002V11.3835C35 6.30016 32.1333 3.3335 26.985 3.3335Z" fill="#F4B400"/>
<path fill-rule="evenodd" clip-rule="evenodd" d="M13.4666 11.0835V11.1002C12.7483 11.1002 12.1666 11.6835 12.1666 12.4002C12.1666 13.1168 12.7483 13.7002 13.4666 13.7002H18.4483C19.1666 13.7002 19.7499 13.1168 19.7499 12.3818C19.7499 11.6668 19.1666 11.0835 18.4483 11.0835H13.4666ZM26.5333 21.2335H13.4666C12.7483 21.2335 12.1666 20.6502 12.1666 19.9335C12.1666 19.2168 12.7483 18.6318 13.4666 18.6318H26.5333C27.2499 18.6318 27.8333 19.2168 27.8333 19.9335C27.8333 20.6502 27.2499 21.2335 26.5333 21.2335ZM26.5333 28.8502H13.4666C12.9666 28.9168 12.4833 28.6668 12.2166 28.2502C11.9499 27.8168 11.9499 27.2668 12.2166 26.8502C12.4833 26.4168 12.9666 26.1835 13.4666 26.2335H26.5333C27.1983 26.3002 27.6999 26.8668 27.6999 27.5502C27.6999 28.2152 27.1983 28.7835 26.5333 28.8502Z" fill="#F4B400"/>
</svg>
