<?xml version="1.0" encoding="UTF-8" standalone="no"?>
<!-- Created with Inkscape (http://www.inkscape.org/) -->

<svg
   version="1.1"
   id="svg838"
   width="543.11121"
   height="411.45599"
   viewBox="0 0 543.11121 411.456"
   sodipodi:docname="email.svg"
   inkscape:version="1.2.2 (1:1.2.2+202212051552+b0a8486541)"
   xml:space="preserve"
   xmlns:inkscape="http://www.inkscape.org/namespaces/inkscape"
   xmlns:sodipodi="http://sodipodi.sourceforge.net/DTD/sodipodi-0.dtd"
   xmlns="http://www.w3.org/2000/svg"
   xmlns:svg="http://www.w3.org/2000/svg"><defs
     id="defs842" /><sodipodi:namedview
     id="namedview840"
     pagecolor="#ffffff"
     bordercolor="#000000"
     borderopacity="0.25"
     inkscape:showpageshadow="2"
     inkscape:pageopacity="0.0"
     inkscape:pagecheckerboard="0"
     inkscape:deskcolor="#d1d1d1"
     showgrid="false"
     inkscape:zoom="0.92383498"
     inkscape:cx="224.06599"
     inkscape:cy="227.31332"
     inkscape:window-width="1920"
     inkscape:window-height="1007"
     inkscape:window-x="0"
     inkscape:window-y="0"
     inkscape:window-maximized="1"
     inkscape:current-layer="g846"><inkscape:page
       x="0"
       y="0"
       id="page844"
       width="543.11121"
       height="411.45599" /></sodipodi:namedview><g
     id="g846"
     inkscape:groupmode="layer"
     inkscape:label="Page 1"
     transform="matrix(1.3333333,0,0,-1.3333333,-61.778132,587.17065)"><path
       d="m 436.708,252.243 c 0,-45.816 -16.388,-87.826 -43.629,-120.457 H 104.066 c -27.2402,32.631 -43.6281,74.641 -43.6281,120.457 0,103.899 84.2361,188.135 188.1351,188.135 103.9,0 188.135,-84.236 188.135,-188.135"
       style="fill:#d1efeb;fill-opacity:1;fill-rule:nonzero;stroke:none;stroke-width:0.1"
       id="path896" /><path
       d="M 158.683,281.853 H 97.8359 c -4.38,0 -7.93,3.55 -7.93,7.929 v 3.308 c 0,4.38 3.55,7.93 7.93,7.93 h 60.8471 c 4.379,0 7.93,-3.55 7.93,-7.93 v -3.308 c 0,-4.379 -3.551,-7.929 -7.93,-7.929"
       style="fill:#d6f1e6;fill-opacity:1;fill-rule:nonzero;stroke:none;stroke-width:0.1"
       id="path898" /><path
       d="m 140.002,295.315 h -13.361 c -4.38,0 -7.93,3.551 -7.93,7.931 v 3.307 c 0,4.38 3.55,7.93 7.93,7.93 h 13.361 c 4.38,0 7.93,-3.55 7.93,-7.93 v -3.307 c 0,-4.38 -3.55,-7.931 -7.93,-7.931"
       style="fill:#d6f1e6;fill-opacity:1;fill-rule:nonzero;stroke:none;stroke-width:0.1"
       id="path900" /><path
       d="m 342.666,231.932 h 60.847 c 4.38,0 7.93,3.55 7.93,7.929 v 3.308 c 0,4.38 -3.55,7.93 -7.93,7.93 h -60.847 c -4.38,0 -7.93,-3.55 -7.93,-7.93 v -3.308 c 0,-4.379 3.55,-7.929 7.93,-7.929"
       style="fill:#d6f1e6;fill-opacity:1;fill-rule:nonzero;stroke:none;stroke-width:0.1"
       id="path902" /><path
       d="m 361.347,245.395 h 13.361 c 4.379,0 7.93,3.549 7.93,7.929 v 3.308 c 0,4.38 -3.551,7.93 -7.93,7.93 h -13.361 c -4.38,0 -7.931,-3.55 -7.931,-7.93 v -3.308 c 0,-4.38 3.551,-7.929 7.931,-7.929"
       style="fill:#d6f1e6;fill-opacity:1;fill-rule:nonzero;stroke:none;stroke-width:0.1"
       id="path904" /><path
       d="M 379.674,131.964 H 117.472 c -3.642,0 -6.595,2.952 -6.595,6.595 v 2.751 c 0,3.642 2.953,6.594 6.595,6.594 h 33.25 c 2.892,-2.509 6.666,-4.028 10.795,-4.028 h 3.039 c 0.132,-0.003 0.265,-0.004 0.397,-0.004 h 167.239 c 0.133,0 0.265,10e-4 0.397,0.004 h 3.04 c 4.129,0 7.903,1.519 10.795,4.028 h 33.25 c 3.642,0 6.596,-2.952 6.596,-6.594 v -2.751 c 0,-3.643 -2.954,-6.595 -6.596,-6.595"
       style="fill:#87d0c4;fill-opacity:1;fill-rule:nonzero;stroke:none;stroke-width:0.1"
       id="path906" /><path
       d="M 335.629,143.876 H 161.517 c -9.1,0 -16.477,7.377 -16.477,16.477 v 117.04 h 207.065 v -117.04 c 0,-9.1 -7.376,-16.477 -16.476,-16.477"
       style="fill:#f38b12;fill-opacity:1;fill-rule:nonzero;stroke:none;stroke-width:0.1"
       id="path908" /><path
       d="M 352.105,277.395 H 145.04 l 92.825,98.04 c 5.817,6.143 15.599,6.143 21.416,0 l 92.824,-98.04"
       style="fill:#f38b12;fill-opacity:1;fill-rule:nonzero;stroke:none;stroke-width:0.1"
       id="path910" /><path
       d="M 321.104,227.064 H 158.317 c -3.773,0 -6.831,3.059 -6.831,6.831 v 115.654 c 0,3.772 3.058,6.831 6.831,6.831 h 162.787 c 3.772,0 6.831,-3.059 6.831,-6.831 V 233.895 c 0,-3.772 -3.059,-6.831 -6.831,-6.831"
       style="fill:#f0f0ef;fill-opacity:1;fill-rule:nonzero;stroke:none;stroke-width:0.1"
       id="path912" /><path
       d="m 132.088,342.309 h 59.108 c 6.102,0 11.049,4.947 11.049,11.049 v 4.608 c 0,6.102 -4.947,11.049 -11.049,11.049 h -59.108 c -6.102,0 -11.048,-4.947 -11.048,-11.049 v -4.608 c 0,-6.102 4.946,-11.049 11.048,-11.049"
       style="fill:#58c6b4;fill-opacity:1;fill-rule:nonzero;stroke:none;stroke-width:0.1"
       id="path914" /><path
       d="m 158.115,361.067 h 18.615 c 6.102,0 11.049,4.947 11.049,11.049 v 4.608 c 0,6.102 -4.947,11.049 -11.049,11.049 h -18.615 c -6.102,0 -11.049,-4.947 -11.049,-11.049 v -4.608 c 0,-6.102 4.947,-11.049 11.049,-11.049"
       style="fill:#58c6b4;fill-opacity:1;fill-rule:nonzero;stroke:none;stroke-width:0.1"
       id="path916" /><path
       d="m 348.983,277.393 h -4.532 v 0.002 h 4.532 v -0.002 m 0,3.3 -4.532,4.787 v 55.609 c 0,1.896 -0.772,3.612 -2.02,4.849 0.235,0.531 0.471,1.061 0.709,1.59 0.479,1.063 0.947,2.213 1.327,3.394 l -0.952,0.306 c -0.364,-1.133 -0.818,-2.25 -1.286,-3.289 -0.199,-0.441 -0.396,-0.882 -0.592,-1.324 -1.127,0.821 -2.515,1.305 -4.017,1.305 h -9.685 v 1.629 c 0,1.22 -0.32,2.365 -0.881,3.356 h 15.098 c 3.773,0 6.831,-3.058 6.831,-6.831 v -65.381"
       style="fill:#bdddd7;fill-opacity:1;fill-rule:nonzero;stroke:none;stroke-width:0.1"
       id="path918" /><path
       d="m 344.451,272.438 v 4.955 h 4.532 v -2.023 l -4.532,-2.932"
       style="fill:#db7e18;fill-opacity:1;fill-rule:nonzero;stroke:none;stroke-width:0.1"
       id="path920" /><path
       d="m 348.983,277.395 h -4.532 v 8.085 l 4.532,-4.787 v -3.298"
       style="fill:#db7e18;fill-opacity:1;fill-rule:nonzero;stroke:none;stroke-width:0.1"
       id="path922" /><path
       d="M 327.935,347.92 H 200.816 c 0.84,1.482 1.347,3.178 1.42,4.985 h 124.818 c 0.561,-0.991 0.881,-2.136 0.881,-3.356 v -1.629"
       style="fill:#d9d8d7;fill-opacity:1;fill-rule:nonzero;stroke:none;stroke-width:0.1"
       id="path924" /><path
       d="m 172.702,347.581 c 0.686,3.047 3.409,5.324 6.664,5.324 h 22.87 c -0.073,-1.807 -0.58,-3.503 -1.42,-4.985 h -25.982 c -0.745,0 -1.461,-0.119 -2.132,-0.339"
       style="fill:#48c1ab;fill-opacity:1;fill-rule:nonzero;stroke:none;stroke-width:0.1"
       id="path926" /><path
       d="M 337.62,218.604 H 174.834 c -3.773,0 -6.831,3.059 -6.831,6.832 v 115.653 c 0,3.772 3.058,6.831 6.831,6.831 H 337.62 c 3.774,0 6.831,-3.059 6.831,-6.831 V 225.436 c 0,-3.773 -3.057,-6.832 -6.831,-6.832"
       style="fill:#fafafa;fill-opacity:1;fill-rule:nonzero;stroke:none;stroke-width:0.1"
       id="path928" /><path
       d="m 160.408,324.267 c 0.442,3.346 3.306,5.927 6.772,5.927 h 0.823 v -5.438 h -5.053 c -0.898,0 -1.756,-0.174 -2.542,-0.489"
       style="fill:#d9d8d7;fill-opacity:1;fill-rule:nonzero;stroke:none;stroke-width:0.1"
       id="path930" /><path
       d="m 332.567,264.75 v 53.175 c 0,3.773 -3.058,6.831 -6.831,6.831 H 168.003 v 5.438 h 161.963 c 3.773,0 6.831,-3.058 6.831,-6.831 v -55.877 l -4.23,-2.736"
       style="fill:#e3e2e0;fill-opacity:1;fill-rule:nonzero;stroke:none;stroke-width:0.1"
       id="path932" /><path
       d="M 325.736,195.44 H 162.95 c -3.773,0 -6.831,3.059 -6.831,6.831 v 115.654 c 0,3.773 3.058,6.831 6.831,6.831 h 162.786 c 3.773,0 6.831,-3.058 6.831,-6.831 V 202.271 c 0,-3.772 -3.058,-6.831 -6.831,-6.831"
       style="fill:#ffffff;fill-opacity:1;fill-rule:nonzero;stroke:none;stroke-width:0.1"
       id="path934" /><path
       d="M 307.602,265.94 H 181.085 c -0.829,0 -1.5,0.671 -1.5,1.5 v 0.625 c 0,0.829 0.671,1.5 1.5,1.5 h 126.517 c 0.828,0 1.5,-0.671 1.5,-1.5 v -0.625 c 0,-0.829 -0.672,-1.5 -1.5,-1.5"
       style="fill:#b5babf;fill-opacity:1;fill-rule:nonzero;stroke:none;stroke-width:0.1"
       id="path936" /><path
       d="M 307.602,253.854 H 181.085 c -0.829,0 -1.5,0.672 -1.5,1.5 v 0.626 c 0,0.828 0.671,1.5 1.5,1.5 h 126.517 c 0.828,0 1.5,-0.672 1.5,-1.5 v -0.626 c 0,-0.828 -0.672,-1.5 -1.5,-1.5"
       style="fill:#b5babf;fill-opacity:1;fill-rule:nonzero;stroke:none;stroke-width:0.1"
       id="path938" /><path
       d="M 307.602,241.769 H 181.085 c -0.829,0 -1.5,0.671 -1.5,1.5 v 0.626 c 0,0.828 0.671,1.5 1.5,1.5 h 126.517 c 0.828,0 1.5,-0.672 1.5,-1.5 v -0.626 c 0,-0.829 -0.672,-1.5 -1.5,-1.5"
       style="fill:#b5babf;fill-opacity:1;fill-rule:nonzero;stroke:none;stroke-width:0.1"
       id="path940" /><path
       d="M 307.602,229.684 H 181.085 c -0.829,0 -1.5,0.671 -1.5,1.5 v 0.625 c 0,0.829 0.671,1.5 1.5,1.5 h 126.517 c 0.828,0 1.5,-0.671 1.5,-1.5 v -0.625 c 0,-0.829 -0.672,-1.5 -1.5,-1.5"
       style="fill:#b5babf;fill-opacity:1;fill-rule:nonzero;stroke:none;stroke-width:0.1"
       id="path942" /><path
       d="M 307.602,217.598 H 181.085 c -0.829,0 -1.5,0.672 -1.5,1.5 v 0.626 c 0,0.828 0.671,1.5 1.5,1.5 h 126.517 c 0.828,0 1.5,-0.672 1.5,-1.5 v -0.626 c 0,-0.828 -0.672,-1.5 -1.5,-1.5"
       style="fill:#b5babf;fill-opacity:1;fill-rule:nonzero;stroke:none;stroke-width:0.1"
       id="path944" /><path
       d="M 352.109,277.393 V 163.789 c 0,-10.998 -8.919,-19.917 -19.917,-19.917 H 164.953 c -10.997,0 -19.916,8.919 -19.916,19.917 v 113.604 l 103.536,-66.991 103.536,66.991"
       style="fill:#f4b400;fill-opacity:1;fill-rule:nonzero;stroke:none;stroke-width:0.1"
       id="path946" /><path
       d="m 145.04,163.367 c -0.002,0.141 -0.004,0.281 -0.004,0.422 v 8.29 l 0.001,-8.29 c 0,-0.132 0.001,-0.265 0.003,-0.397 v -0.025"
       style="fill:#cad996;fill-opacity:1;fill-rule:nonzero;stroke:none;stroke-width:0.1"
       id="path948" /><path
       d="m 332.589,143.876 v 0 c 10.684,0.208 19.308,8.833 19.516,19.516 v 0 c -0.208,-10.683 -8.832,-19.308 -19.516,-19.516 m -168.033,0 v 0 c -10.674,0.208 -19.294,8.82 -19.516,19.491 v 0.025 c 0.209,-10.683 8.833,-19.308 19.516,-19.516"
       style="fill:#f27715;fill-opacity:1;fill-rule:nonzero;stroke:none;stroke-width:0.1"
       id="path950" /><path
       d="m 352.105,277.393 v 0 h 0.004 l -0.004,-0.003"
       style="fill:#cad996;fill-opacity:1;fill-rule:nonzero;stroke:none;stroke-width:0.1"
       id="path952" /><path
       d="m 348.983,275.37 v 0 l 3.122,2.02 v 0.003 l -3.122,-2.023"
       style="fill:#f27715;fill-opacity:1;fill-rule:nonzero;stroke:none;stroke-width:0.1"
       id="path954" /><path
       d="m 344.451,272.438 v 0 l 4.532,2.932 v 0 l -4.532,-2.932"
       style="fill:#da6d1b;fill-opacity:1;fill-rule:nonzero;stroke:none;stroke-width:0.1"
       id="path956" /><path
       d="m 336.797,267.485 v 10e-4 l 7.654,4.952 v 0 l -7.654,-4.953"
       style="fill:#f5dc9b;fill-opacity:1;fill-rule:nonzero;stroke:none;stroke-width:0.1"
       id="path958" /><path
       d="m 332.567,264.749 v 10e-4 l 4.23,2.736 v -10e-4 l -4.23,-2.736"
       style="fill:#ddc58b;fill-opacity:1;fill-rule:nonzero;stroke:none;stroke-width:0.1"
       id="path960" /><path
       d="m 323.902,259.144 v 0 l 8.665,5.606 v -10e-4 l -8.665,-5.607"
       style="fill:#fce3a1;fill-opacity:1;fill-rule:nonzero;stroke:none;stroke-width:0.1"
       id="path962" /><path
       d="M 332.192,143.872 H 164.953 c -0.132,0 -0.265,10e-4 -0.397,0.004 -10.683,0.208 -19.307,8.833 -19.516,19.516 -0.002,0.132 -0.003,0.265 -0.003,0.397 v 8.29 h 158.96 c 9.714,0 17.797,6.949 19.552,16.149 1.199,-1.823 2.578,-3.517 4.112,-5.057 5.298,-8.172 14.196,-13.793 24.448,-14.616 v -4.766 c 0,-0.132 -10e-4,-0.265 -0.004,-0.397 -0.208,-10.683 -8.832,-19.308 -19.516,-19.516 -0.132,-0.003 -0.264,-0.004 -0.397,-0.004 m -8.29,80.255 v 20.781 l 19.875,12.532 c 0.467,0.294 0.607,0.912 0.312,1.379 -0.19,0.302 -0.515,0.467 -0.847,0.467 -0.182,0 -0.367,-0.05 -0.532,-0.154 l -18.808,-11.86 v 11.872 l 8.665,5.605 4.23,2.736 7.654,4.953 4.532,2.932 3.122,2.02 0.004,0.003 v -39.29 c -0.535,0.026 -1.073,0.04 -1.615,0.04 -11.04,0 -20.784,-5.551 -26.592,-14.016"
       style="fill:#f78e11;fill-opacity:1;fill-rule:nonzero;stroke:none;stroke-width:0.1"
       id="path964" /><path
       d="m 164.767,183.991 h -2.19 c -2.899,0 -5.25,2.351 -5.25,5.25 v 14.488 c 0,2.899 2.351,5.25 5.25,5.25 h 2.19 c 2.9,0 5.25,-2.351 5.25,-5.25 v -14.488 c 0,-2.899 -2.35,-5.25 -5.25,-5.25"
       style="fill:#f9e812;fill-opacity:1;fill-rule:nonzero;stroke:none;stroke-width:0.1"
       id="path966" /><path
       d="m 164.767,213.532 h -2.19 c -2.899,0 -5.25,2.351 -5.25,5.25 v 3.854 c 0,2.899 2.351,5.25 5.25,5.25 h 2.19 c 2.9,0 5.25,-2.351 5.25,-5.25 v -3.854 c 0,-2.899 -2.35,-5.25 -5.25,-5.25"
       style="fill:#f9e812;fill-opacity:1;fill-rule:nonzero;stroke:none;stroke-width:0.1"
       id="path968" /><g
       id="g970"><text
         xml:space="preserve"
         transform="matrix(1,0,0,-1,178.074,283.9)"
         style="font-variant:normal;font-weight:bold;font-size:31.4783px;font-family:Rubik;-inkscape-font-specification:Rubik-Bold;writing-mode:lr-tb;fill:#b5babf;fill-opacity:1;fill-rule:nonzero;stroke:none"
         id="text974"><tspan
           x="0"
           y="0"
           id="tspan972">@</tspan></text></g><path
       d="m 274.769,291.772 h -60.248 c -0.828,0 -1.5,0.672 -1.5,1.5 v 0.626 c 0,0.829 0.672,1.5 1.5,1.5 h 60.248 c 0.829,0 1.5,-0.671 1.5,-1.5 v -0.626 c 0,-0.828 -0.671,-1.5 -1.5,-1.5"
       style="fill:#b5babf;fill-opacity:1;fill-rule:nonzero;stroke:none;stroke-width:0.1"
       id="path976" /><path
       d="m 306.504,279.687 h -91.983 c -0.828,0 -1.5,0.671 -1.5,1.5 v 0.625 c 0,0.829 0.672,1.5 1.5,1.5 h 91.983 c 0.828,0 1.5,-0.671 1.5,-1.5 v -0.625 c 0,-0.829 -0.672,-1.5 -1.5,-1.5"
       style="fill:#b5babf;fill-opacity:1;fill-rule:nonzero;stroke:none;stroke-width:0.1"
       id="path978" /><path
       d="m 382.723,205.917 c -0.001,3.77 -0.648,7.389 -1.838,10.751 1.19,-3.362 1.838,-6.98 1.838,-10.749 0,-0.001 0,-0.001 0,-0.002 m -1.843,10.765 c -0.002,0.005 -0.004,0.011 -0.005,0.016 10e-4,-0.005 0.003,-0.011 0.005,-0.016"
       style="fill:#aca193;fill-opacity:1;fill-rule:nonzero;stroke:none;stroke-width:0.1"
       id="path986" /><path
       d="m 350.49,173.687 c -3.769,0 -7.387,0.647 -10.748,1.837 3.362,-1.189 6.982,-1.837 10.75,-1.837 -0.001,0 -0.001,0 -0.002,0 m -10.765,1.843 c -0.004,0.001 -0.008,0.003 -0.012,0.004 0.003,-0.001 0.009,-0.003 0.012,-0.004"
       style="fill:#d75d1d;fill-opacity:1;fill-rule:nonzero;stroke:none;stroke-width:0.1"
       id="path988" /><path
       d="M 70.6316,191.01 H 60.1285 c -3.4715,0 -6.5269,1.78 -8.3035,4.477 1.3371,-0.669 2.8465,-1.047 4.4438,-1.047 h 13.2191 c 0.3707,-1.149 0.7516,-2.291 1.1437,-3.43"
       style="fill:#d1efeb;fill-opacity:1;fill-rule:nonzero;stroke:none;stroke-width:0.1"
       id="path996" /><path
       d="M 113.281,191.01 H 70.6316 c -0.3921,1.139 -0.773,2.281 -1.1437,3.43 h 39.9331 c 5.488,0 9.936,4.449 9.936,9.936 v 4.144 c 0,2.015 -0.6,3.891 -1.632,5.458 3.256,-1.632 5.491,-4.999 5.491,-8.889 v -4.144 c 0,-5.487 -4.448,-9.935 -9.935,-9.935"
       style="fill:#aae2d9;fill-opacity:1;fill-rule:nonzero;stroke:none;stroke-width:0.1"
       id="path998" /><path
       d="m 100.988,218.455 h -4.256 c 0.2578,0.885 0.3965,1.82 0.3965,2.788 v 4.145 c 0,2.016 -0.6004,3.892 -1.6324,5.458 3.2562,-1.631 5.4919,-4.999 5.4919,-8.889 v -3.502"
       style="fill:#aae2d9;fill-opacity:1;fill-rule:nonzero;stroke:none;stroke-width:0.1"
       id="path1000" /><path
       d="m 56.2688,194.44 h 53.1522 c 5.488,0 9.936,4.449 9.936,9.936 v 4.144 c 0,5.487 -4.448,9.935 -9.936,9.935 H 56.2688 c -5.4872,0 -9.9352,-4.448 -9.9352,-9.935 v -4.144 c 0,-5.487 4.448,-9.936 9.9352,-9.936"
       style="fill:#58c6b4;fill-opacity:1;fill-rule:nonzero;stroke:none;stroke-width:0.1"
       id="path1002" /><path
       d="m 70.4531,211.308 h 16.7403 c 5.4867,0 9.9351,4.448 9.9351,9.935 v 4.145 c 0,5.487 -4.4484,9.935 -9.9351,9.935 H 70.4531 c -5.4871,0 -9.9355,-4.448 -9.9355,-9.935 v -4.145 c 0,-5.487 4.4484,-9.935 9.9355,-9.935"
       style="fill:#58c6b4;fill-opacity:1;fill-rule:nonzero;stroke:none;stroke-width:0.1"
       id="path1004" /><path
       d="m 149.21,317.226 c -1.101,-0.745 -2.206,-1.493 -3.311,-2.248 l 0.564,-0.826 c 1.103,0.754 2.206,1.501 3.307,2.246 l -0.56,0.828"
       style="fill:#3a83ca;fill-opacity:1;fill-rule:nonzero;stroke:none;stroke-width:0.1"
       id="path1006" /><path
       d="m 139.4,310.405 c -2.146,-1.569 -4.254,-3.188 -6.29,-4.881 l 0.639,-0.769 c 2.017,1.676 4.108,3.283 6.241,4.843 l -0.59,0.807 v 0 m -12.19,-10.248 c -1.88,-1.89 -3.65,-3.882 -5.275,-6 l 0.793,-0.608 c 1.596,2.08 3.338,4.039 5.191,5.903 l -0.709,0.705 m -9.624,-12.723 c -1.236,-2.359 -2.256,-4.856 -3.024,-7.422 l 0.958,-0.287 c 0.749,2.504 1.746,4.942 2.952,7.245 l -0.886,0.464 m -4.539,-15.299 c -0.085,-0.993 -0.128,-1.987 -0.128,-2.976 0,-1.702 0.128,-3.393 0.394,-5.053 l 0.988,0.158 c -0.258,1.605 -0.382,3.243 -0.382,4.895 0,0.96 0.042,1.925 0.124,2.891 l -0.996,0.085 m 2.662,-15.713 c 0.658,-1.349 1.44,-2.65 2.352,-3.886 0.708,-0.96 1.473,-1.858 2.288,-2.698 l 0.718,0.697 c -0.785,0.808 -1.521,1.671 -2.202,2.594 -0.875,1.187 -1.625,2.435 -2.257,3.731 l -0.899,-0.438 m 10.993,-11.51 c 2.285,-1.34 4.744,-2.428 7.298,-3.314 l 0.327,0.945 c -2.502,0.868 -4.9,1.931 -7.119,3.232 l -0.506,-0.863 m 15.02,-5.382 c 2.281,-0.457 4.578,-0.801 6.843,-1.061 0.348,-0.04 0.697,-0.078 1.046,-0.116 l 0.106,0.995 c -0.347,0.037 -0.693,0.075 -1.038,0.115 -2.242,0.257 -4.511,0.597 -6.76,1.048 l -0.197,-0.981 m 15.826,-1.779 c 2.095,-0.096 4.191,-0.143 6.287,-0.143 0.557,0 1.114,0.004 1.671,0.01 l -0.012,1 c -0.553,-0.006 -1.106,-0.01 -1.659,-0.01 -2.081,0 -4.162,0.047 -6.241,0.142 l -0.046,-0.999 v 0 m 15.909,0.182 c 2.645,0.176 5.287,0.424 7.922,0.738 l -0.119,0.993 c -2.618,-0.312 -5.242,-0.558 -7.87,-0.733 l 0.067,-0.998 m 15.795,1.876 c 2.613,0.443 5.216,0.949 7.809,1.514 l -0.213,0.977 c -2.578,-0.562 -5.166,-1.065 -7.763,-1.505 l 0.167,-0.986 m 15.539,3.379 c 2.563,0.678 5.111,1.412 7.643,2.197 l -0.296,0.955 c -2.519,-0.781 -5.054,-1.511 -7.602,-2.185 l 0.255,-0.967 m 15.188,4.703 c 2.162,0.766 4.31,1.568 6.442,2.404 0.333,0.131 0.667,0.262 1,0.394 l -0.37,0.93 c -0.331,-0.132 -0.663,-0.263 -0.995,-0.393 -2.122,-0.832 -4.259,-1.63 -6.411,-2.392 l 0.334,-0.943 v 0 m 14.775,5.864 c 2.427,1.063 4.835,2.167 7.225,3.307 l -0.43,0.903 c -2.381,-1.136 -4.78,-2.235 -7.197,-3.294 l 0.402,-0.916 v 0 m 14.345,6.836 c 2.354,1.21 4.693,2.453 7.015,3.727 l -0.481,0.877 c -2.315,-1.27 -4.645,-2.509 -6.992,-3.715 l 0.458,-0.889 m 13.932,7.632 c 2.288,1.329 4.563,2.685 6.823,4.064 l -0.521,0.853 c -2.254,-1.375 -4.522,-2.727 -6.805,-4.052 l 0.503,-0.865 m 13.561,8.266 c 2.232,1.422 4.451,2.864 6.659,4.323 l -0.551,0.834 c -2.204,-1.456 -4.418,-2.895 -6.646,-4.313 l 0.538,-0.844 m 13.25,8.749 c 1.887,1.286 3.765,2.582 5.636,3.887 0.298,0.208 0.596,0.416 0.894,0.624 l -0.573,0.82 c -0.297,-0.208 -0.595,-0.416 -0.893,-0.624 -1.868,-1.302 -3.744,-2.597 -5.627,-3.881 l 0.563,-0.826 m 12.998,9.119 c 2.139,1.56 4.26,3.151 6.346,4.785 l -0.617,0.788 c -2.075,-1.626 -4.186,-3.21 -6.319,-4.765 l 0.59,-0.808 m 12.49,9.838 c 2.005,1.739 3.96,3.535 5.85,5.401 l -0.702,0.712 c -1.873,-1.85 -3.813,-3.631 -5.803,-5.357 l 0.655,-0.756 m 11.251,11.284 c 1.681,2.1 3.183,4.296 4.557,6.562 l -0.855,0.518 c -1.355,-2.234 -2.833,-4.393 -4.483,-6.455 l 0.781,-0.625 m 8.36,13.568 c 1.166,2.373 2.255,4.79 3.318,7.227 l -0.917,0.4 c -1.06,-2.43 -2.143,-4.833 -3.298,-7.186 l 0.897,-0.441 m 6.453,14.514 c 0.573,1.325 1.152,2.649 1.746,3.967 0.479,1.063 0.947,2.213 1.327,3.394 l -0.952,0.306 c -0.364,-1.133 -0.818,-2.25 -1.286,-3.289 -0.597,-1.325 -1.179,-2.653 -1.753,-3.981 l 0.918,-0.397 m 3.254,15.475 c -0.311,0.67 -0.742,1.297 -1.307,1.855 -1.508,1.486 -3.613,2.043 -5.665,2.043 h -0.041 l 0.004,-1 h 0.037 c 1.88,10e-4 3.713,-0.516 4.962,-1.754 0.48,-0.475 0.839,-0.998 1.103,-1.565 l 0.907,0.421 m -14.729,1.399 c -2.265,-1.532 -4.121,-3.674 -5.244,-6.178 l 0.913,-0.409 c 1.04,2.322 2.774,4.327 4.892,5.759 l -0.561,0.828 m -6.321,-14.212 c 0.361,-2.522 1.35,-4.957 2.93,-6.974 0.116,-0.148 0.234,-0.293 0.355,-0.435 l 0.763,0.647 c -0.113,0.132 -0.223,0.267 -0.331,0.405 -1.463,1.867 -2.39,4.14 -2.727,6.499 l -0.99,-0.142 m 9.968,-11.979 c 2.309,-0.858 4.814,-1.269 7.314,-1.27 0.22,0 0.441,0.004 0.662,0.01 l -0.029,1 c -0.211,-0.006 -0.422,-0.01 -0.633,-0.01 -2.391,0 -4.78,0.395 -6.966,1.207 l -0.348,-0.937 m 15.872,0.331 c 2.514,0.914 4.901,2.148 7.185,3.564 l -0.527,0.85 c -2.24,-1.389 -4.567,-2.59 -6.999,-3.475 l 0.341,-0.939 m 13.698,8.177 c 0.147,0.115 0.294,0.23 0.44,0.345 1.937,1.526 3.838,3.099 5.699,4.717 l -0.656,0.755 c -1.849,-1.608 -3.737,-3.17 -5.662,-4.686 -0.145,-0.115 -0.29,-0.229 -0.436,-0.343 l 0.615,-0.788 m 12.006,10.437 c 1.908,1.842 3.769,3.733 5.58,5.671 l -0.731,0.682 c -1.799,-1.925 -3.648,-3.804 -5.544,-5.634 l 0.695,-0.719 m 10.86,11.622 c 1.708,2.029 3.364,4.102 4.965,6.217 l -0.797,0.604 c -1.591,-2.101 -3.236,-4.161 -4.933,-6.176 l 0.765,-0.645 v 0"
       style="fill:#3a83ca;fill-opacity:1;fill-rule:nonzero;stroke:none;stroke-width:0.1"
       id="path1008" /><path
       d="m 395.667,377.588 c 0.749,1.108 1.485,2.226 2.206,3.352 l -0.842,0.539 c -0.716,-1.119 -1.448,-2.23 -2.192,-3.33 l 0.828,-0.561"
       style="fill:#3a83ca;fill-opacity:1;fill-rule:nonzero;stroke:none;stroke-width:0.1"
       id="path1010" /><path
       d="m 362.805,339.612 22.726,21.261 -12.796,3.552 z"
       style="fill:#410085;fill-opacity:1;fill-rule:nonzero;stroke:none;stroke-width:0.1"
       id="path1012" /><path
       d="m 362.953,370.804 -0.148,-31.192 10.61,24.263 63.149,49.754 -74.153,-40.987 0.542,-1.838"
       style="fill:#6400cf;fill-opacity:1;fill-rule:nonzero;stroke:none;stroke-width:0.1"
       id="path1014" /><path
       d="m 344.478,379.579 18.712,-8.583 73.374,42.633 -91.978,-31.82 c -1.025,-0.355 -1.094,-1.778 -0.108,-2.23"
       style="fill:#9633ff;fill-opacity:1;fill-rule:nonzero;stroke:none;stroke-width:0.1"
       id="path1016" /><path
       d="m 436.564,413.629 -63.149,-49.754 24.235,-11.728 c 0.793,-0.383 1.748,-0.1 2.204,0.654 l 36.71,60.828"
       style="fill:#9633ff;fill-opacity:1;fill-rule:nonzero;stroke:none;stroke-width:0.1"
       id="path1018" /><path
       d="m 357.847,379.755 c -0.604,0 -1.173,0.367 -1.401,0.965 -0.296,0.773 0.091,1.641 0.864,1.937 l 43.407,16.617 c 0.176,0.068 0.357,0.1 0.536,0.1 0.603,0 1.172,-0.367 1.401,-0.964 0.296,-0.774 -0.091,-1.641 -0.865,-1.937 l -43.406,-16.618 c -0.177,-0.068 -0.358,-0.1 -0.536,-0.1"
       style="fill:#ba79ff;fill-opacity:1;fill-rule:nonzero;stroke:none;stroke-width:0.1"
       id="path1020" /><path
       d="m 108.964,301.02 h -10.23 c -0.3121,0.698 -0.4856,1.471 -0.4856,2.284 0,3.093 2.5076,5.601 5.6006,5.601 3.093,0 5.601,-2.508 5.601,-5.601 0,-0.813 -0.174,-1.586 -0.486,-2.284"
       style="fill:#eaf8f6;fill-opacity:1;fill-rule:nonzero;stroke:none;stroke-width:0.1"
       id="path1022" /><path
       d="m 103.849,297.704 c -2.28,0 -4.2412,1.361 -5.115,3.316 h 10.23 c -0.874,-1.955 -2.835,-3.316 -5.115,-3.316"
       style="fill:#edf9f4;fill-opacity:1;fill-rule:nonzero;stroke:none;stroke-width:0.1"
       id="path1024" /><path
       d="m 215.136,373.54 c -3.093,0 -5.6,2.508 -5.6,5.601 0,3.093 2.507,5.6 5.6,5.6 3.093,0 5.601,-2.507 5.601,-5.6 0,-3.093 -2.508,-5.601 -5.601,-5.601"
       style="fill:#eaf8f6;fill-opacity:1;fill-rule:nonzero;stroke:none;stroke-width:0.1"
       id="path1026" /><path
       d="m 126.509,171.31 c -3.093,0 -5.6,2.506 -5.6,5.6 0,3.093 2.507,5.601 5.6,5.601 3.094,0 5.601,-2.508 5.601,-5.601 0,-3.094 -2.507,-5.6 -5.601,-5.6"
       style="fill:#eaf8f6;fill-opacity:1;fill-rule:nonzero;stroke:none;stroke-width:0.1"
       id="path1028" /><path
       d="m 84.3035,273.446 c -6.023,0 -10.9062,4.883 -10.9062,10.906 0,6.023 4.8832,10.906 10.9062,10.906 2.0582,0 3.9828,-0.57 5.625,-1.56 -0.0148,-0.201 -0.0226,-0.403 -0.0226,-0.608 v -3.308 c 0,-3.391 2.1285,-6.285 5.1226,-7.418 -0.9344,-5.074 -5.3808,-8.918 -10.725,-8.918"
       style="fill:#eaf8f6;fill-opacity:1;fill-rule:nonzero;stroke:none;stroke-width:0.1"
       id="path1030" /><path
       d="m 95.0285,282.364 c -2.9941,1.133 -5.1226,4.027 -5.1226,7.418 v 3.308 c 0,0.205 0.0078,0.407 0.0226,0.608 3.1649,-1.91 5.2809,-5.381 5.2809,-9.346 0,-0.679 -0.0621,-1.344 -0.1809,-1.988"
       style="fill:#edf9f4;fill-opacity:1;fill-rule:nonzero;stroke:none;stroke-width:0.1"
       id="path1032" /><path
       d="m 400.944,219.159 c -4.857,0 -8.794,3.937 -8.794,8.794 0,1.432 0.342,2.784 0.95,3.979 h 10.413 c 1.639,0 3.163,0.497 4.427,1.35 1.128,-1.479 1.798,-3.326 1.798,-5.329 0,-4.857 -3.937,-8.794 -8.794,-8.794"
       style="fill:#eaf8f6;fill-opacity:1;fill-rule:nonzero;stroke:none;stroke-width:0.1"
       id="path1034" /><path
       d="M 403.513,231.932 H 393.1 c 1.452,2.857 4.419,4.815 7.844,4.815 2.854,0 5.39,-1.359 6.996,-3.465 -1.264,-0.853 -2.788,-1.35 -4.427,-1.35"
       style="fill:#edf9f4;fill-opacity:1;fill-rule:nonzero;stroke:none;stroke-width:0.1"
       id="path1036" /><path
       d="m 401.145,199.688 c -3.374,0 -6.108,2.735 -6.108,6.108 0,3.374 2.734,6.109 6.108,6.109 3.375,0 6.11,-2.735 6.11,-6.109 0,-3.373 -2.735,-6.108 -6.11,-6.108"
       style="fill:#eaf8f6;fill-opacity:1;fill-rule:nonzero;stroke:none;stroke-width:0.1"
       id="path1038" /><path
       d="m 248.372,197.462 c -0.194,0 -0.387,0.056 -0.556,0.168 l -99.302,66.27 c -0.46,0.306 -0.583,0.927 -0.277,1.387 0.193,0.288 0.51,0.445 0.833,0.445 0.191,0 0.383,-0.055 0.554,-0.169 l 98.763,-65.909 75.515,47.618 v -2.364 l -74.997,-47.292 c -0.163,-0.103 -0.348,-0.154 -0.533,-0.154"
       style="fill:#f78e11;fill-opacity:1;fill-rule:nonzero;stroke:none;stroke-width:0.1"
       id="path1040" /><path
       d="m 323.902,244.908 v 2.364 l 18.808,11.86 c 0.165,0.104 0.35,0.154 0.532,0.154 0.332,0 0.657,-0.165 0.847,-0.467 0.295,-0.467 0.155,-1.085 -0.312,-1.379 l -19.875,-12.532"
       style="fill:#f57a14;fill-opacity:1;fill-rule:nonzero;stroke:none;stroke-width:0.1"
       id="path1042" /><path
       d="m 441.749,252.444 h -5.041 c -0.002,1.744 -0.028,3.493 -0.077,5.225 5.924,0.692 10.52,5.728 10.52,11.837 v 4.971 c 0,2.271 -0.635,4.393 -1.737,6.199 4.789,-1.546 8.253,-6.04 8.253,-11.343 v -4.971 c 0,-6.582 -5.336,-11.918 -11.918,-11.918"
       style="fill:#d1efeb;fill-opacity:1;fill-rule:nonzero;stroke:none;stroke-width:0.1"
       id="path1044" /><path
       d="m 436.708,252.444 h -54.119 c 0.032,0.289 0.049,0.583 0.049,0.88 v 3.308 c 0,0.324 -0.02,0.643 -0.057,0.956 h 52.652 c 0.473,0 0.94,0.028 1.398,0.081 0.049,-1.732 0.075,-3.481 0.077,-5.225"
       style="fill:#aae2d9;fill-opacity:1;fill-rule:nonzero;stroke:none;stroke-width:0.1"
       id="path1046" /><path
       d="m 382.589,252.444 h -4.597 c -4.311,0 -8.087,2.289 -10.18,5.718 1.154,-0.372 2.385,-0.574 3.664,-0.574 h 11.105 c 0.037,-0.313 0.057,-0.632 0.057,-0.956 v -3.308 c 0,-0.297 -0.017,-0.591 -0.049,-0.88"
       style="fill:#ade3d5;fill-opacity:1;fill-rule:nonzero;stroke:none;stroke-width:0.1"
       id="path1048" /><path
       d="m 425.593,286.395 h -6.992 c 0.31,1.061 0.476,2.183 0.476,3.344 v 4.971 c 0,2.271 -0.635,4.394 -1.738,6.2 4.789,-1.546 8.254,-6.04 8.254,-11.344 v -3.171"
       style="fill:#aae2d9;fill-opacity:1;fill-rule:nonzero;stroke:none;stroke-width:0.1"
       id="path1050" /><path
       d="m 435.233,257.588 h -63.757 c -6.581,0 -11.917,5.336 -11.917,11.918 v 4.971 c 0,6.582 5.336,11.918 11.917,11.918 h 63.757 c 6.582,0 11.918,-5.336 11.918,-11.918 v -4.971 c 0,-6.582 -5.336,-11.918 -11.918,-11.918"
       style="fill:#58c6b4;fill-opacity:1;fill-rule:nonzero;stroke:none;stroke-width:0.1"
       id="path1052" /><path
       d="m 407.159,277.821 h -20.08 c -6.582,0 -11.917,5.336 -11.917,11.918 v 4.971 c 0,6.582 5.335,11.917 11.917,11.917 h 20.08 c 6.582,0 11.918,-5.335 11.918,-11.917 v -4.971 c 0,-6.582 -5.336,-11.918 -11.918,-11.918"
       style="fill:#58c6b4;fill-opacity:1;fill-rule:nonzero;stroke:none;stroke-width:0.1"
       id="path1054" /><path
       d="m 381.678,285.08 c -0.817,0 -1.584,0.504 -1.88,1.316 -0.041,0.131 -0.877,2.4 -0.884,5.425 0.001,1.677 0.264,3.608 1.16,5.496 0.889,1.886 2.454,3.689 4.797,4.949 1.56,0.845 3.447,1.463 5.708,1.807 0.102,0.015 0.203,0.023 0.303,0.023 0.972,0 1.824,-0.709 1.975,-1.699 0.166,-1.092 -0.584,-2.112 -1.676,-2.278 -2.834,-0.434 -4.626,-1.318 -5.801,-2.319 -1.171,-1.006 -1.795,-2.166 -2.146,-3.429 -0.23,-0.838 -0.32,-1.715 -0.32,-2.55 -0.006,-2.119 0.6,-3.946 0.643,-4.056 v 0 0 0 c 0.378,-1.038 -0.157,-2.186 -1.195,-2.564 -0.226,-0.082 -0.457,-0.121 -0.684,-0.121"
       style="fill:#78d2d2;fill-opacity:1;fill-rule:nonzero;stroke:none;stroke-width:0.1"
       id="path1056" /><path
       d="m 153.866,365.449 c -0.817,0 -1.584,0.504 -1.88,1.316 -0.041,0.13 -0.877,2.4 -0.884,5.425 0.001,1.676 0.264,3.608 1.161,5.496 0.888,1.886 2.453,3.688 4.796,4.949 1.56,0.845 3.447,1.463 5.708,1.807 0.102,0.015 0.203,0.023 0.303,0.023 0.972,0 1.824,-0.71 1.975,-1.7 0.166,-1.092 -0.584,-2.112 -1.676,-2.278 -2.834,-0.434 -4.626,-1.318 -5.801,-2.318 -1.171,-1.006 -1.795,-2.167 -2.146,-3.429 -0.23,-0.839 -0.32,-1.715 -0.32,-2.55 -0.006,-2.119 0.6,-3.946 0.643,-4.057 v 0 0 0 c 0.378,-1.038 -0.157,-2.185 -1.195,-2.563 -0.226,-0.082 -0.457,-0.121 -0.684,-0.121"
       style="fill:#78d2d2;fill-opacity:1;fill-rule:nonzero;stroke:none;stroke-width:0.1"
       id="path1058" /><path
       d="m 68.4609,214.379 c -0.8168,0 -1.5836,0.505 -1.8793,1.317 -0.0418,0.13 -0.8769,2.4 -0.8843,5.424 0.0011,1.677 0.2644,3.609 1.1609,5.496 0.8883,1.886 2.4527,3.689 4.7961,4.95 1.5598,0.845 3.4477,1.463 5.7086,1.807 0.1019,0.015 0.2031,0.023 0.3031,0.023 0.9719,0 1.8242,-0.71 1.9746,-1.7 0.1664,-1.092 -0.584,-2.111 -1.6761,-2.278 -2.8336,-0.434 -4.6254,-1.318 -5.8004,-2.319 -1.1715,-1.006 -1.7957,-2.166 -2.1465,-3.429 -0.2297,-0.838 -0.3207,-1.715 -0.3203,-2.55 -0.0059,-2.118 0.5996,-3.945 0.6433,-4.056 v 0 0 h -4e-4 c 0.3778,-1.038 -0.1574,-2.186 -1.1953,-2.563 -0.2258,-0.083 -0.4566,-0.122 -0.684,-0.122"
       style="fill:#78d2d2;fill-opacity:1;fill-rule:nonzero;stroke:none;stroke-width:0.1"
       id="path1060" /><g
       id="g1062" /><g
       id="g49521"
       transform="matrix(0.75000002,0,0,-0.75000002,-1226.1502,1155.056)"><g
         id="g619"
         transform="translate(-240.30695,-279.62473)"><path
           d="m 1869.74,424.8 67.47,-67.47 a 299.904,299.904 0 0 1 66.3,66.28 l -67.49,67.5 a 207.31,207.31 0 0 0 -66.28,-66.31 z m -284.08,66.31 -67.49,-67.5 a 300.117,300.117 0 0 1 66.3,-66.28 l 67.47,67.47 a 207.111,207.111 0 0 0 -66.28,66.31 z"
           class="st0"
           id="path465" /><path
           d="m 1648.34,600.01 c 0,-13.78 2.49,-27.01 7.01,-39.21 10.43,-27.99 31.64,-50.72 58.6,-63.08 2.51,-1.16 5.08,-2.22 7.7,-3.2 12.2,-4.52 25.4,-7.01 39.18,-7.01 13.78,0 26.99,2.49 39.18,7.01 2.62,0.98 5.19,2.04 7.7,3.2 26.96,12.36 48.18,35.08 58.6,63.08 4.52,12.2 7.01,25.43 7.01,39.21 0,13.78 -2.49,26.99 -7.01,39.19 -10.4,27.99 -31.64,50.72 -58.6,63.1 a 116.95,116.95 0 0 1 -7.67,3.2 c -12.2,4.52 -25.43,7.01 -39.21,7.01 -13.78,0 -27.01,-2.49 -39.21,-7.01 -2.59,-0.98 -5.16,-2.04 -7.67,-3.2 -26.96,-12.38 -48.21,-35.11 -58.6,-63.1 -4.52,-12.2 -7.01,-25.4 -7.01,-39.19 z"
           style="fill:#f4b400"
           id="path467" /><path
           d="m 1760.84,393.74 c -16.14,0 -31.83,1.85 -46.88,5.37 v -95.46 c 15.26,-2.41 30.93,-3.65 46.88,-3.65 15.95,0 31.62,1.24 46.88,3.65 v 95.46 c -15.05,-3.52 -30.74,-5.37 -46.88,-5.37 z m 298.83,485.41 c 0.77,1.88 1.2,3.94 1.16,6.14 -0.15,7.82 -6.65,14.44 -14.47,14.7 -2.47,0.08 -4.8,-0.42 -6.85,-1.39 -0.29,-0.13 -0.56,-0.29 -0.82,-0.42 l -94.98,-49 -9.02,-4.66 c -36.96,26.35 -80.17,44.5 -126.97,51.83 -15.27,2.41 -30.93,3.65 -46.88,3.65 -15.95,0 -31.62,-1.24 -46.88,-3.65 -47.86,-7.49 -91.97,-26.33 -129.48,-53.68 a 298.63,298.63 0 0 1 -66.3,-66.28 c -36.06,-49.5 -57.33,-110.46 -57.33,-176.37 h 79.29 c 7.87,0 14.42,6.09 14.94,13.95 0.87,12.97 2.94,25.61 6.1,37.83 a 205.6,205.6 0 0 0 24.5,57.1 206.882,206.882 0 0 0 66.3,66.28 203.63,203.63 0 0 0 61.99,25.72 c 15.05,3.52 30.74,5.37 46.88,5.37 16.14,0 31.83,-1.85 46.88,-5.37 9.13,-2.12 18.02,-4.84 26.62,-8.15 a 200.958,200.958 0 0 0 35.37,-17.57 206.882,206.882 0 0 0 66.3,-66.28 205.832,205.832 0 0 0 17.57,-35.4 c 7.16,-18.73 11.65,-38.75 13.04,-59.62 0.52,-7.82 7.1,-13.85 14.94,-13.85 h 79.28 c 0,64.8 -20.56,124.8 -55.48,173.86 l 4.68,9.05 48.92,94.8 c 0.25,0.43 0.46,0.93 0.7,1.41 z"
           class="st0"
           id="path469" /><path
           d="m 445.92,701.31 c -27.22,0 -50.09,-1.45 -68.61,-4.35 -18.52,-2.89 -33.52,-7.68 -44.99,-14.36 -11.47,-6.67 -19.72,-15.43 -24.76,-26.27 -5.05,-10.83 -7.56,-24.06 -7.56,-39.69 0,-10.08 1.32,-20.98 3.97,-32.7 2.65,-11.72 6.49,-23.63 11.53,-35.72 l 32.51,9.45 c -4.54,9.33 -8.07,18.15 -10.59,26.46 -2.52,8.32 -3.78,15.75 -3.78,22.3 0,7.56 1.57,13.93 4.73,19.09 3.15,5.17 8.25,9.33 15.31,12.47 7.05,3.15 16.19,5.48 27.41,6.99 11.21,1.51 24.88,2.27 41.01,2.27 h 52.92 c 16.88,0 31.06,-0.44 42.53,-1.32 11.47,-0.88 20.73,-2.33 27.79,-4.35 7.05,-2.01 12.03,-4.73 14.93,-8.13 2.89,-3.4 4.35,-7.62 4.35,-12.66 0,-3.78 -0.32,-8.75 -0.95,-14.93 -0.63,-6.17 -1.83,-14.18 -3.59,-24 l -6.43,-34.02 37.05,-6.05 5.29,34.02 c 1.26,8.32 2.33,16.44 3.21,24.38 0.88,7.94 1.32,14.81 1.32,20.6 0,15.88 -2.4,28.98 -7.18,39.31 -4.79,10.34 -13.04,18.52 -24.76,24.57 -11.72,6.05 -27.53,10.34 -47.44,12.85 -19.91,2.53 -44.98,3.79 -75.22,3.79 z M 416.81,558.8 c -6.05,0 -11.03,-1.82 -14.93,-5.48 -3.91,-3.65 -5.86,-9.51 -5.86,-17.58 0,-8.32 1.95,-14.3 5.86,-17.96 3.9,-3.65 8.88,-5.48 14.93,-5.48 h 6.43 c 6.05,0 11.02,1.83 14.93,5.48 3.91,3.66 5.86,9.64 5.86,17.96 0,8.07 -1.95,13.93 -5.86,17.58 -3.91,3.66 -8.88,5.48 -14.93,5.48 z m 56.32,0 c -6.05,0 -11.03,-1.82 -14.93,-5.48 -3.91,-3.65 -5.86,-9.51 -5.86,-17.58 0,-8.32 1.95,-14.3 5.86,-17.96 3.91,-3.65 8.88,-5.48 14.93,-5.48 h 6.43 c 6.05,0 11.02,1.83 14.93,5.48 3.9,3.66 5.86,9.64 5.86,17.96 0,8.07 -1.96,13.93 -5.86,17.58 -3.91,3.66 -8.88,5.48 -14.93,5.48 z M 637.57,417.04 h 40.45 v 279.74 h -40.45 z m 41.97,320.94 h 14.74 c 24.2,0 41.45,-5.48 51.79,-16.44 10.33,-10.96 15.37,-26.9 15.12,-47.82 0,-6.3 -0.38,-12.91 -1.13,-19.85 -0.76,-6.93 -1.77,-14.05 -3.02,-21.36 l -7.94,-48.01 36.67,-6.05 5.67,33.27 c 2.27,12.6 3.78,24.45 4.54,35.53 h 35.16 v 39.31 l -10.21,10.21 h -24.95 c -1.77,13.61 -5.17,25.95 -10.21,37.05 -5.05,11.09 -11.72,20.6 -20.04,28.54 -8.32,7.94 -18.4,14.11 -30.24,18.52 -11.85,4.41 -25.46,6.62 -40.83,6.62 h -15.12 z m 79,-194.31 c -6.05,0 -11.03,-1.82 -14.93,-5.48 -3.91,-3.65 -5.86,-9.51 -5.86,-17.58 0,-8.32 1.95,-14.3 5.86,-17.96 3.91,-3.65 8.88,-5.48 14.93,-5.48 h 6.43 c 6.05,0 11.02,1.83 14.93,5.48 3.9,3.66 5.86,9.64 5.86,17.96 0,8.07 -1.96,13.93 -5.86,17.58 -3.91,3.66 -8.88,5.48 -14.93,5.48 z"
           class="st2"
           id="path471" /><path
           d="m 820.92,657.46 10.21,-10.21 h 9.45 c 17.64,0 29.8,-1.83 36.48,-5.48 6.67,-3.65 10.02,-10.27 10.02,-19.85 0,-4.03 -0.32,-9.13 -0.95,-15.31 -0.63,-6.17 -1.83,-14.42 -3.59,-24.76 l -6.05,-34.02 37.05,-6.05 5.29,34.02 c 1.26,8.57 2.27,16.95 3.02,25.14 0.76,8.19 1.13,15.19 1.13,20.98 0,25.71 -6.56,44.61 -19.66,56.7 -13.11,12.1 -34.02,18.15 -62.75,18.15 h -19.66 v -39.31 z m 35.53,118.7 c -6.05,0 -11.03,-1.83 -14.93,-5.48 -3.91,-3.66 -5.86,-9.52 -5.86,-17.58 0,-8.32 1.95,-14.31 5.86,-17.96 3.9,-3.66 8.88,-5.48 14.93,-5.48 h 6.43 c 6.05,0 11.02,1.82 14.93,5.48 3.9,3.65 5.86,9.64 5.86,17.96 0,8.06 -1.95,13.92 -5.86,17.58 -3.91,3.65 -8.88,5.48 -14.93,5.48 z m 56.33,0 c -6.05,0 -11.03,-1.83 -14.93,-5.48 -3.91,-3.66 -5.86,-9.52 -5.86,-17.58 0,-8.32 1.95,-14.31 5.86,-17.96 3.91,-3.66 8.88,-5.48 14.93,-5.48 h 6.43 c 6.05,0 11.02,1.82 14.93,5.48 3.9,3.65 5.86,9.64 5.86,17.96 0,8.06 -1.96,13.92 -5.86,17.58 -3.91,3.65 -8.88,5.48 -14.93,5.48 z m 46.87,-38.18 h 23.06 c 25.45,0 45.55,-3.66 60.29,-10.96 14.74,-7.31 24.76,-17.39 30.05,-30.24 h -44.99 c -20.41,0 -36.29,-5.79 -47.63,-17.39 -11.34,-11.59 -17.01,-27.72 -17.01,-48.39 0,-12.6 1.89,-24.32 5.67,-35.16 3.78,-10.83 9.01,-20.28 15.69,-28.35 6.67,-8.06 14.61,-14.36 23.82,-18.9 9.2,-4.54 19.09,-6.8 29.67,-6.8 22.43,0 40.19,9.26 53.3,27.78 13.1,18.52 20.04,44.42 20.79,77.68 h 18.52 v 39.31 l -10.21,10.21 h -12.85 c -6.56,28.98 -20.04,51.35 -40.45,67.1 -20.41,15.75 -47.76,23.63 -82.03,23.63 h -25.7 v -49.52 z m 38.18,-113.41 c 0,8.07 2.84,13.86 8.51,17.39 5.67,3.53 13.8,5.29 24.38,5.29 h 46.88 v -4.16 c 0,-15.88 -4.03,-28.48 -12.1,-37.8 -8.07,-9.32 -18.52,-13.99 -31.38,-13.99 -10.59,0 -19.28,3.15 -26.09,9.45 -6.8,6.31 -10.2,14.25 -10.2,23.82 z"
           class="st2"
           id="path473" /><path
           d="m 1120.69,657.46 10.21,-10.21 h 57.46 c 9.58,0 16.5,-1.32 20.79,-3.97 4.28,-2.65 6.43,-7.12 6.43,-13.42 0,-4.78 -1.45,-8.94 -4.35,-12.47 -2.9,-3.53 -8.38,-7.94 -16.45,-13.23 l -60.1,-39.69 v -89.21 l 176.16,-62.75 v 45.36 l -158.77,56.7 v 1.89 l 42.71,29.49 c 10.33,6.8 19.03,13.17 26.09,19.09 7.05,5.92 12.72,11.97 17.01,18.15 4.28,6.18 7.37,12.54 9.26,19.09 1.89,6.56 2.84,13.74 2.84,21.55 0,24.45 -5.8,42.72 -17.39,54.81 -11.59,12.1 -29.99,18.15 -55.19,18.15 h -56.7 v -39.33 z"
           class="st2"
           id="path475" /></g><g
         id="g633"
         transform="translate(-240.30695,-279.62473)"><path
           d="m 1869.74,424.8 67.47,-67.47 a 299.904,299.904 0 0 1 66.3,66.28 l -67.49,67.5 a 207.31,207.31 0 0 0 -66.28,-66.31 z m -284.08,66.31 -67.49,-67.5 a 300.117,300.117 0 0 1 66.3,-66.28 l 67.47,67.47 a 207.111,207.111 0 0 0 -66.28,66.31 z"
           class="st0"
           id="path621" /><path
           d="m 1648.34,600.01 c 0,-13.78 2.49,-27.01 7.01,-39.21 10.43,-27.99 31.64,-50.72 58.6,-63.08 2.51,-1.16 5.08,-2.22 7.7,-3.2 12.2,-4.52 25.4,-7.01 39.18,-7.01 13.78,0 26.99,2.49 39.18,7.01 2.62,0.98 5.19,2.04 7.7,3.2 26.96,12.36 48.18,35.08 58.6,63.08 4.52,12.2 7.01,25.43 7.01,39.21 0,13.78 -2.49,26.99 -7.01,39.19 -10.4,27.99 -31.64,50.72 -58.6,63.1 a 116.95,116.95 0 0 1 -7.67,3.2 c -12.2,4.52 -25.43,7.01 -39.21,7.01 -13.78,0 -27.01,-2.49 -39.21,-7.01 -2.59,-0.98 -5.16,-2.04 -7.67,-3.2 -26.96,-12.38 -48.21,-35.11 -58.6,-63.1 -4.52,-12.2 -7.01,-25.4 -7.01,-39.19 z"
           style="fill:#f4b400"
           id="path623" /><path
           d="m 1760.84,393.74 c -16.14,0 -31.83,1.85 -46.88,5.37 v -95.46 c 15.26,-2.41 30.93,-3.65 46.88,-3.65 15.95,0 31.62,1.24 46.88,3.65 v 95.46 c -15.05,-3.52 -30.74,-5.37 -46.88,-5.37 z m 298.83,485.41 c 0.77,1.88 1.2,3.94 1.16,6.14 -0.15,7.82 -6.65,14.44 -14.47,14.7 -2.47,0.08 -4.8,-0.42 -6.85,-1.39 -0.29,-0.13 -0.56,-0.29 -0.82,-0.42 l -94.98,-49 -9.02,-4.66 c -36.96,26.35 -80.17,44.5 -126.97,51.83 -15.27,2.41 -30.93,3.65 -46.88,3.65 -15.95,0 -31.62,-1.24 -46.88,-3.65 -47.86,-7.49 -91.97,-26.33 -129.48,-53.68 a 298.63,298.63 0 0 1 -66.3,-66.28 c -36.06,-49.5 -57.33,-110.46 -57.33,-176.37 h 79.29 c 7.87,0 14.42,6.09 14.94,13.95 0.87,12.97 2.94,25.61 6.1,37.83 a 205.6,205.6 0 0 0 24.5,57.1 206.882,206.882 0 0 0 66.3,66.28 203.63,203.63 0 0 0 61.99,25.72 c 15.05,3.52 30.74,5.37 46.88,5.37 16.14,0 31.83,-1.85 46.88,-5.37 9.13,-2.12 18.02,-4.84 26.62,-8.15 a 200.958,200.958 0 0 0 35.37,-17.57 206.882,206.882 0 0 0 66.3,-66.28 205.832,205.832 0 0 0 17.57,-35.4 c 7.16,-18.73 11.65,-38.75 13.04,-59.62 0.52,-7.82 7.1,-13.85 14.94,-13.85 h 79.28 c 0,64.8 -20.56,124.8 -55.48,173.86 l 4.68,9.05 48.92,94.8 c 0.25,0.43 0.46,0.93 0.7,1.41 z"
           class="st0"
           id="path625" /><path
           d="m 445.92,701.31 c -27.22,0 -50.09,-1.45 -68.61,-4.35 -18.52,-2.89 -33.52,-7.68 -44.99,-14.36 -11.47,-6.67 -19.72,-15.43 -24.76,-26.27 -5.05,-10.83 -7.56,-24.06 -7.56,-39.69 0,-10.08 1.32,-20.98 3.97,-32.7 2.65,-11.72 6.49,-23.63 11.53,-35.72 l 32.51,9.45 c -4.54,9.33 -8.07,18.15 -10.59,26.46 -2.52,8.32 -3.78,15.75 -3.78,22.3 0,7.56 1.57,13.93 4.73,19.09 3.15,5.17 8.25,9.33 15.31,12.47 7.05,3.15 16.19,5.48 27.41,6.99 11.21,1.51 24.88,2.27 41.01,2.27 h 52.92 c 16.88,0 31.06,-0.44 42.53,-1.32 11.47,-0.88 20.73,-2.33 27.79,-4.35 7.05,-2.01 12.03,-4.73 14.93,-8.13 2.89,-3.4 4.35,-7.62 4.35,-12.66 0,-3.78 -0.32,-8.75 -0.95,-14.93 -0.63,-6.17 -1.83,-14.18 -3.59,-24 l -6.43,-34.02 37.05,-6.05 5.29,34.02 c 1.26,8.32 2.33,16.44 3.21,24.38 0.88,7.94 1.32,14.81 1.32,20.6 0,15.88 -2.4,28.98 -7.18,39.31 -4.79,10.34 -13.04,18.52 -24.76,24.57 -11.72,6.05 -27.53,10.34 -47.44,12.85 -19.91,2.53 -44.98,3.79 -75.22,3.79 z M 416.81,558.8 c -6.05,0 -11.03,-1.82 -14.93,-5.48 -3.91,-3.65 -5.86,-9.51 -5.86,-17.58 0,-8.32 1.95,-14.3 5.86,-17.96 3.9,-3.65 8.88,-5.48 14.93,-5.48 h 6.43 c 6.05,0 11.02,1.83 14.93,5.48 3.91,3.66 5.86,9.64 5.86,17.96 0,8.07 -1.95,13.93 -5.86,17.58 -3.91,3.66 -8.88,5.48 -14.93,5.48 z m 56.32,0 c -6.05,0 -11.03,-1.82 -14.93,-5.48 -3.91,-3.65 -5.86,-9.51 -5.86,-17.58 0,-8.32 1.95,-14.3 5.86,-17.96 3.91,-3.65 8.88,-5.48 14.93,-5.48 h 6.43 c 6.05,0 11.02,1.83 14.93,5.48 3.9,3.66 5.86,9.64 5.86,17.96 0,8.07 -1.96,13.93 -5.86,17.58 -3.91,3.66 -8.88,5.48 -14.93,5.48 z M 637.57,417.04 h 40.45 v 279.74 h -40.45 z m 41.97,320.94 h 14.74 c 24.2,0 41.45,-5.48 51.79,-16.44 10.33,-10.96 15.37,-26.9 15.12,-47.82 0,-6.3 -0.38,-12.91 -1.13,-19.85 -0.76,-6.93 -1.77,-14.05 -3.02,-21.36 l -7.94,-48.01 36.67,-6.05 5.67,33.27 c 2.27,12.6 3.78,24.45 4.54,35.53 h 35.16 v 39.31 l -10.21,10.21 h -24.95 c -1.77,13.61 -5.17,25.95 -10.21,37.05 -5.05,11.09 -11.72,20.6 -20.04,28.54 -8.32,7.94 -18.4,14.11 -30.24,18.52 -11.85,4.41 -25.46,6.62 -40.83,6.62 h -15.12 z m 79,-194.31 c -6.05,0 -11.03,-1.82 -14.93,-5.48 -3.91,-3.65 -5.86,-9.51 -5.86,-17.58 0,-8.32 1.95,-14.3 5.86,-17.96 3.91,-3.65 8.88,-5.48 14.93,-5.48 h 6.43 c 6.05,0 11.02,1.83 14.93,5.48 3.9,3.66 5.86,9.64 5.86,17.96 0,8.07 -1.96,13.93 -5.86,17.58 -3.91,3.66 -8.88,5.48 -14.93,5.48 z"
           class="st2"
           id="path627" /><path
           d="m 820.92,657.46 10.21,-10.21 h 9.45 c 17.64,0 29.8,-1.83 36.48,-5.48 6.67,-3.65 10.02,-10.27 10.02,-19.85 0,-4.03 -0.32,-9.13 -0.95,-15.31 -0.63,-6.17 -1.83,-14.42 -3.59,-24.76 l -6.05,-34.02 37.05,-6.05 5.29,34.02 c 1.26,8.57 2.27,16.95 3.02,25.14 0.76,8.19 1.13,15.19 1.13,20.98 0,25.71 -6.56,44.61 -19.66,56.7 -13.11,12.1 -34.02,18.15 -62.75,18.15 h -19.66 v -39.31 z m 35.53,118.7 c -6.05,0 -11.03,-1.83 -14.93,-5.48 -3.91,-3.66 -5.86,-9.52 -5.86,-17.58 0,-8.32 1.95,-14.31 5.86,-17.96 3.9,-3.66 8.88,-5.48 14.93,-5.48 h 6.43 c 6.05,0 11.02,1.82 14.93,5.48 3.9,3.65 5.86,9.64 5.86,17.96 0,8.06 -1.95,13.92 -5.86,17.58 -3.91,3.65 -8.88,5.48 -14.93,5.48 z m 56.33,0 c -6.05,0 -11.03,-1.83 -14.93,-5.48 -3.91,-3.66 -5.86,-9.52 -5.86,-17.58 0,-8.32 1.95,-14.31 5.86,-17.96 3.91,-3.66 8.88,-5.48 14.93,-5.48 h 6.43 c 6.05,0 11.02,1.82 14.93,5.48 3.9,3.65 5.86,9.64 5.86,17.96 0,8.06 -1.96,13.92 -5.86,17.58 -3.91,3.65 -8.88,5.48 -14.93,5.48 z m 46.87,-38.18 h 23.06 c 25.45,0 45.55,-3.66 60.29,-10.96 14.74,-7.31 24.76,-17.39 30.05,-30.24 h -44.99 c -20.41,0 -36.29,-5.79 -47.63,-17.39 -11.34,-11.59 -17.01,-27.72 -17.01,-48.39 0,-12.6 1.89,-24.32 5.67,-35.16 3.78,-10.83 9.01,-20.28 15.69,-28.35 6.67,-8.06 14.61,-14.36 23.82,-18.9 9.2,-4.54 19.09,-6.8 29.67,-6.8 22.43,0 40.19,9.26 53.3,27.78 13.1,18.52 20.04,44.42 20.79,77.68 h 18.52 v 39.31 l -10.21,10.21 h -12.85 c -6.56,28.98 -20.04,51.35 -40.45,67.1 -20.41,15.75 -47.76,23.63 -82.03,23.63 h -25.7 v -49.52 z m 38.18,-113.41 c 0,8.07 2.84,13.86 8.51,17.39 5.67,3.53 13.8,5.29 24.38,5.29 h 46.88 v -4.16 c 0,-15.88 -4.03,-28.48 -12.1,-37.8 -8.07,-9.32 -18.52,-13.99 -31.38,-13.99 -10.59,0 -19.28,3.15 -26.09,9.45 -6.8,6.31 -10.2,14.25 -10.2,23.82 z"
           class="st2"
           id="path629" /><path
           d="m 1120.69,657.46 10.21,-10.21 h 57.46 c 9.58,0 16.5,-1.32 20.79,-3.97 4.28,-2.65 6.43,-7.12 6.43,-13.42 0,-4.78 -1.45,-8.94 -4.35,-12.47 -2.9,-3.53 -8.38,-7.94 -16.45,-13.23 l -60.1,-39.69 v -89.21 l 176.16,-62.75 v 45.36 l -158.77,56.7 v 1.89 l 42.71,29.49 c 10.33,6.8 19.03,13.17 26.09,19.09 7.05,5.92 12.72,11.97 17.01,18.15 4.28,6.18 7.37,12.54 9.26,19.09 1.89,6.56 2.84,13.74 2.84,21.55 0,24.45 -5.8,42.72 -17.39,54.81 -11.59,12.1 -29.99,18.15 -55.19,18.15 h -56.7 v -39.33 z"
           class="st2"
           id="path631" /></g><g
         id="g665"
         transform="translate(-240.30695,-279.62473)"><path
           d="m 1869.74,424.8 67.47,-67.47 a 299.904,299.904 0 0 1 66.3,66.28 l -67.49,67.5 a 207.31,207.31 0 0 0 -66.28,-66.31 z m -284.08,66.31 -67.49,-67.5 a 300.117,300.117 0 0 1 66.3,-66.28 l 67.47,67.47 a 207.111,207.111 0 0 0 -66.28,66.31 z"
           class="st0"
           id="path653" /><path
           d="m 1648.34,600.01 c 0,-13.78 2.49,-27.01 7.01,-39.21 10.43,-27.99 31.64,-50.72 58.6,-63.08 2.51,-1.16 5.08,-2.22 7.7,-3.2 12.2,-4.52 25.4,-7.01 39.18,-7.01 13.78,0 26.99,2.49 39.18,7.01 2.62,0.98 5.19,2.04 7.7,3.2 26.96,12.36 48.18,35.08 58.6,63.08 4.52,12.2 7.01,25.43 7.01,39.21 0,13.78 -2.49,26.99 -7.01,39.19 -10.4,27.99 -31.64,50.72 -58.6,63.1 a 116.95,116.95 0 0 1 -7.67,3.2 c -12.2,4.52 -25.43,7.01 -39.21,7.01 -13.78,0 -27.01,-2.49 -39.21,-7.01 -2.59,-0.98 -5.16,-2.04 -7.67,-3.2 -26.96,-12.38 -48.21,-35.11 -58.6,-63.1 -4.52,-12.2 -7.01,-25.4 -7.01,-39.19 z"
           style="fill:#f4b400"
           id="path655" /><path
           d="m 1760.84,393.74 c -16.14,0 -31.83,1.85 -46.88,5.37 v -95.46 c 15.26,-2.41 30.93,-3.65 46.88,-3.65 15.95,0 31.62,1.24 46.88,3.65 v 95.46 c -15.05,-3.52 -30.74,-5.37 -46.88,-5.37 z m 298.83,485.41 c 0.77,1.88 1.2,3.94 1.16,6.14 -0.15,7.82 -6.65,14.44 -14.47,14.7 -2.47,0.08 -4.8,-0.42 -6.85,-1.39 -0.29,-0.13 -0.56,-0.29 -0.82,-0.42 l -94.98,-49 -9.02,-4.66 c -36.96,26.35 -80.17,44.5 -126.97,51.83 -15.27,2.41 -30.93,3.65 -46.88,3.65 -15.95,0 -31.62,-1.24 -46.88,-3.65 -47.86,-7.49 -91.97,-26.33 -129.48,-53.68 a 298.63,298.63 0 0 1 -66.3,-66.28 c -36.06,-49.5 -57.33,-110.46 -57.33,-176.37 h 79.29 c 7.87,0 14.42,6.09 14.94,13.95 0.87,12.97 2.94,25.61 6.1,37.83 a 205.6,205.6 0 0 0 24.5,57.1 206.882,206.882 0 0 0 66.3,66.28 203.63,203.63 0 0 0 61.99,25.72 c 15.05,3.52 30.74,5.37 46.88,5.37 16.14,0 31.83,-1.85 46.88,-5.37 9.13,-2.12 18.02,-4.84 26.62,-8.15 a 200.958,200.958 0 0 0 35.37,-17.57 206.882,206.882 0 0 0 66.3,-66.28 205.832,205.832 0 0 0 17.57,-35.4 c 7.16,-18.73 11.65,-38.75 13.04,-59.62 0.52,-7.82 7.1,-13.85 14.94,-13.85 h 79.28 c 0,64.8 -20.56,124.8 -55.48,173.86 l 4.68,9.05 48.92,94.8 c 0.25,0.43 0.46,0.93 0.7,1.41 z"
           class="st0"
           id="path657" /><path
           d="m 445.92,701.31 c -27.22,0 -50.09,-1.45 -68.61,-4.35 -18.52,-2.89 -33.52,-7.68 -44.99,-14.36 -11.47,-6.67 -19.72,-15.43 -24.76,-26.27 -5.05,-10.83 -7.56,-24.06 -7.56,-39.69 0,-10.08 1.32,-20.98 3.97,-32.7 2.65,-11.72 6.49,-23.63 11.53,-35.72 l 32.51,9.45 c -4.54,9.33 -8.07,18.15 -10.59,26.46 -2.52,8.32 -3.78,15.75 -3.78,22.3 0,7.56 1.57,13.93 4.73,19.09 3.15,5.17 8.25,9.33 15.31,12.47 7.05,3.15 16.19,5.48 27.41,6.99 11.21,1.51 24.88,2.27 41.01,2.27 h 52.92 c 16.88,0 31.06,-0.44 42.53,-1.32 11.47,-0.88 20.73,-2.33 27.79,-4.35 7.05,-2.01 12.03,-4.73 14.93,-8.13 2.89,-3.4 4.35,-7.62 4.35,-12.66 0,-3.78 -0.32,-8.75 -0.95,-14.93 -0.63,-6.17 -1.83,-14.18 -3.59,-24 l -6.43,-34.02 37.05,-6.05 5.29,34.02 c 1.26,8.32 2.33,16.44 3.21,24.38 0.88,7.94 1.32,14.81 1.32,20.6 0,15.88 -2.4,28.98 -7.18,39.31 -4.79,10.34 -13.04,18.52 -24.76,24.57 -11.72,6.05 -27.53,10.34 -47.44,12.85 -19.91,2.53 -44.98,3.79 -75.22,3.79 z M 416.81,558.8 c -6.05,0 -11.03,-1.82 -14.93,-5.48 -3.91,-3.65 -5.86,-9.51 -5.86,-17.58 0,-8.32 1.95,-14.3 5.86,-17.96 3.9,-3.65 8.88,-5.48 14.93,-5.48 h 6.43 c 6.05,0 11.02,1.83 14.93,5.48 3.91,3.66 5.86,9.64 5.86,17.96 0,8.07 -1.95,13.93 -5.86,17.58 -3.91,3.66 -8.88,5.48 -14.93,5.48 z m 56.32,0 c -6.05,0 -11.03,-1.82 -14.93,-5.48 -3.91,-3.65 -5.86,-9.51 -5.86,-17.58 0,-8.32 1.95,-14.3 5.86,-17.96 3.91,-3.65 8.88,-5.48 14.93,-5.48 h 6.43 c 6.05,0 11.02,1.83 14.93,5.48 3.9,3.66 5.86,9.64 5.86,17.96 0,8.07 -1.96,13.93 -5.86,17.58 -3.91,3.66 -8.88,5.48 -14.93,5.48 z M 637.57,417.04 h 40.45 v 279.74 h -40.45 z m 41.97,320.94 h 14.74 c 24.2,0 41.45,-5.48 51.79,-16.44 10.33,-10.96 15.37,-26.9 15.12,-47.82 0,-6.3 -0.38,-12.91 -1.13,-19.85 -0.76,-6.93 -1.77,-14.05 -3.02,-21.36 l -7.94,-48.01 36.67,-6.05 5.67,33.27 c 2.27,12.6 3.78,24.45 4.54,35.53 h 35.16 v 39.31 l -10.21,10.21 h -24.95 c -1.77,13.61 -5.17,25.95 -10.21,37.05 -5.05,11.09 -11.72,20.6 -20.04,28.54 -8.32,7.94 -18.4,14.11 -30.24,18.52 -11.85,4.41 -25.46,6.62 -40.83,6.62 h -15.12 z m 79,-194.31 c -6.05,0 -11.03,-1.82 -14.93,-5.48 -3.91,-3.65 -5.86,-9.51 -5.86,-17.58 0,-8.32 1.95,-14.3 5.86,-17.96 3.91,-3.65 8.88,-5.48 14.93,-5.48 h 6.43 c 6.05,0 11.02,1.83 14.93,5.48 3.9,3.66 5.86,9.64 5.86,17.96 0,8.07 -1.96,13.93 -5.86,17.58 -3.91,3.66 -8.88,5.48 -14.93,5.48 z"
           class="st2"
           id="path659" /><path
           d="m 820.92,657.46 10.21,-10.21 h 9.45 c 17.64,0 29.8,-1.83 36.48,-5.48 6.67,-3.65 10.02,-10.27 10.02,-19.85 0,-4.03 -0.32,-9.13 -0.95,-15.31 -0.63,-6.17 -1.83,-14.42 -3.59,-24.76 l -6.05,-34.02 37.05,-6.05 5.29,34.02 c 1.26,8.57 2.27,16.95 3.02,25.14 0.76,8.19 1.13,15.19 1.13,20.98 0,25.71 -6.56,44.61 -19.66,56.7 -13.11,12.1 -34.02,18.15 -62.75,18.15 h -19.66 v -39.31 z m 35.53,118.7 c -6.05,0 -11.03,-1.83 -14.93,-5.48 -3.91,-3.66 -5.86,-9.52 -5.86,-17.58 0,-8.32 1.95,-14.31 5.86,-17.96 3.9,-3.66 8.88,-5.48 14.93,-5.48 h 6.43 c 6.05,0 11.02,1.82 14.93,5.48 3.9,3.65 5.86,9.64 5.86,17.96 0,8.06 -1.95,13.92 -5.86,17.58 -3.91,3.65 -8.88,5.48 -14.93,5.48 z m 56.33,0 c -6.05,0 -11.03,-1.83 -14.93,-5.48 -3.91,-3.66 -5.86,-9.52 -5.86,-17.58 0,-8.32 1.95,-14.31 5.86,-17.96 3.91,-3.66 8.88,-5.48 14.93,-5.48 h 6.43 c 6.05,0 11.02,1.82 14.93,5.48 3.9,3.65 5.86,9.64 5.86,17.96 0,8.06 -1.96,13.92 -5.86,17.58 -3.91,3.65 -8.88,5.48 -14.93,5.48 z m 46.87,-38.18 h 23.06 c 25.45,0 45.55,-3.66 60.29,-10.96 14.74,-7.31 24.76,-17.39 30.05,-30.24 h -44.99 c -20.41,0 -36.29,-5.79 -47.63,-17.39 -11.34,-11.59 -17.01,-27.72 -17.01,-48.39 0,-12.6 1.89,-24.32 5.67,-35.16 3.78,-10.83 9.01,-20.28 15.69,-28.35 6.67,-8.06 14.61,-14.36 23.82,-18.9 9.2,-4.54 19.09,-6.8 29.67,-6.8 22.43,0 40.19,9.26 53.3,27.78 13.1,18.52 20.04,44.42 20.79,77.68 h 18.52 v 39.31 l -10.21,10.21 h -12.85 c -6.56,28.98 -20.04,51.35 -40.45,67.1 -20.41,15.75 -47.76,23.63 -82.03,23.63 h -25.7 v -49.52 z m 38.18,-113.41 c 0,8.07 2.84,13.86 8.51,17.39 5.67,3.53 13.8,5.29 24.38,5.29 h 46.88 v -4.16 c 0,-15.88 -4.03,-28.48 -12.1,-37.8 -8.07,-9.32 -18.52,-13.99 -31.38,-13.99 -10.59,0 -19.28,3.15 -26.09,9.45 -6.8,6.31 -10.2,14.25 -10.2,23.82 z"
           class="st2"
           id="path661" /><path
           d="m 1120.69,657.46 10.21,-10.21 h 57.46 c 9.58,0 16.5,-1.32 20.79,-3.97 4.28,-2.65 6.43,-7.12 6.43,-13.42 0,-4.78 -1.45,-8.94 -4.35,-12.47 -2.9,-3.53 -8.38,-7.94 -16.45,-13.23 l -60.1,-39.69 v -89.21 l 176.16,-62.75 v 45.36 l -158.77,56.7 v 1.89 l 42.71,29.49 c 10.33,6.8 19.03,13.17 26.09,19.09 7.05,5.92 12.72,11.97 17.01,18.15 4.28,6.18 7.37,12.54 9.26,19.09 1.89,6.56 2.84,13.74 2.84,21.55 0,24.45 -5.8,42.72 -17.39,54.81 -11.59,12.1 -29.99,18.15 -55.19,18.15 h -56.7 v -39.33 z"
           class="st2"
           id="path663" /></g><g
         id="g679"
         transform="translate(-240.30695,-279.62473)"><path
           d="m 1869.74,424.8 67.47,-67.47 a 299.904,299.904 0 0 1 66.3,66.28 l -67.49,67.5 a 207.31,207.31 0 0 0 -66.28,-66.31 z m -284.08,66.31 -67.49,-67.5 a 300.117,300.117 0 0 1 66.3,-66.28 l 67.47,67.47 a 207.111,207.111 0 0 0 -66.28,66.31 z"
           class="st0"
           id="path667" /><path
           d="m 1648.34,600.01 c 0,-13.78 2.49,-27.01 7.01,-39.21 10.43,-27.99 31.64,-50.72 58.6,-63.08 2.51,-1.16 5.08,-2.22 7.7,-3.2 12.2,-4.52 25.4,-7.01 39.18,-7.01 13.78,0 26.99,2.49 39.18,7.01 2.62,0.98 5.19,2.04 7.7,3.2 26.96,12.36 48.18,35.08 58.6,63.08 4.52,12.2 7.01,25.43 7.01,39.21 0,13.78 -2.49,26.99 -7.01,39.19 -10.4,27.99 -31.64,50.72 -58.6,63.1 a 116.95,116.95 0 0 1 -7.67,3.2 c -12.2,4.52 -25.43,7.01 -39.21,7.01 -13.78,0 -27.01,-2.49 -39.21,-7.01 -2.59,-0.98 -5.16,-2.04 -7.67,-3.2 -26.96,-12.38 -48.21,-35.11 -58.6,-63.1 -4.52,-12.2 -7.01,-25.4 -7.01,-39.19 z"
           style="fill:#f4b400"
           id="path669" /><path
           d="m 1760.84,393.74 c -16.14,0 -31.83,1.85 -46.88,5.37 v -95.46 c 15.26,-2.41 30.93,-3.65 46.88,-3.65 15.95,0 31.62,1.24 46.88,3.65 v 95.46 c -15.05,-3.52 -30.74,-5.37 -46.88,-5.37 z m 298.83,485.41 c 0.77,1.88 1.2,3.94 1.16,6.14 -0.15,7.82 -6.65,14.44 -14.47,14.7 -2.47,0.08 -4.8,-0.42 -6.85,-1.39 -0.29,-0.13 -0.56,-0.29 -0.82,-0.42 l -94.98,-49 -9.02,-4.66 c -36.96,26.35 -80.17,44.5 -126.97,51.83 -15.27,2.41 -30.93,3.65 -46.88,3.65 -15.95,0 -31.62,-1.24 -46.88,-3.65 -47.86,-7.49 -91.97,-26.33 -129.48,-53.68 a 298.63,298.63 0 0 1 -66.3,-66.28 c -36.06,-49.5 -57.33,-110.46 -57.33,-176.37 h 79.29 c 7.87,0 14.42,6.09 14.94,13.95 0.87,12.97 2.94,25.61 6.1,37.83 a 205.6,205.6 0 0 0 24.5,57.1 206.882,206.882 0 0 0 66.3,66.28 203.63,203.63 0 0 0 61.99,25.72 c 15.05,3.52 30.74,5.37 46.88,5.37 16.14,0 31.83,-1.85 46.88,-5.37 9.13,-2.12 18.02,-4.84 26.62,-8.15 a 200.958,200.958 0 0 0 35.37,-17.57 206.882,206.882 0 0 0 66.3,-66.28 205.832,205.832 0 0 0 17.57,-35.4 c 7.16,-18.73 11.65,-38.75 13.04,-59.62 0.52,-7.82 7.1,-13.85 14.94,-13.85 h 79.28 c 0,64.8 -20.56,124.8 -55.48,173.86 l 4.68,9.05 48.92,94.8 c 0.25,0.43 0.46,0.93 0.7,1.41 z"
           class="st0"
           id="path671" /><path
           d="m 445.92,701.31 c -27.22,0 -50.09,-1.45 -68.61,-4.35 -18.52,-2.89 -33.52,-7.68 -44.99,-14.36 -11.47,-6.67 -19.72,-15.43 -24.76,-26.27 -5.05,-10.83 -7.56,-24.06 -7.56,-39.69 0,-10.08 1.32,-20.98 3.97,-32.7 2.65,-11.72 6.49,-23.63 11.53,-35.72 l 32.51,9.45 c -4.54,9.33 -8.07,18.15 -10.59,26.46 -2.52,8.32 -3.78,15.75 -3.78,22.3 0,7.56 1.57,13.93 4.73,19.09 3.15,5.17 8.25,9.33 15.31,12.47 7.05,3.15 16.19,5.48 27.41,6.99 11.21,1.51 24.88,2.27 41.01,2.27 h 52.92 c 16.88,0 31.06,-0.44 42.53,-1.32 11.47,-0.88 20.73,-2.33 27.79,-4.35 7.05,-2.01 12.03,-4.73 14.93,-8.13 2.89,-3.4 4.35,-7.62 4.35,-12.66 0,-3.78 -0.32,-8.75 -0.95,-14.93 -0.63,-6.17 -1.83,-14.18 -3.59,-24 l -6.43,-34.02 37.05,-6.05 5.29,34.02 c 1.26,8.32 2.33,16.44 3.21,24.38 0.88,7.94 1.32,14.81 1.32,20.6 0,15.88 -2.4,28.98 -7.18,39.31 -4.79,10.34 -13.04,18.52 -24.76,24.57 -11.72,6.05 -27.53,10.34 -47.44,12.85 -19.91,2.53 -44.98,3.79 -75.22,3.79 z M 416.81,558.8 c -6.05,0 -11.03,-1.82 -14.93,-5.48 -3.91,-3.65 -5.86,-9.51 -5.86,-17.58 0,-8.32 1.95,-14.3 5.86,-17.96 3.9,-3.65 8.88,-5.48 14.93,-5.48 h 6.43 c 6.05,0 11.02,1.83 14.93,5.48 3.91,3.66 5.86,9.64 5.86,17.96 0,8.07 -1.95,13.93 -5.86,17.58 -3.91,3.66 -8.88,5.48 -14.93,5.48 z m 56.32,0 c -6.05,0 -11.03,-1.82 -14.93,-5.48 -3.91,-3.65 -5.86,-9.51 -5.86,-17.58 0,-8.32 1.95,-14.3 5.86,-17.96 3.91,-3.65 8.88,-5.48 14.93,-5.48 h 6.43 c 6.05,0 11.02,1.83 14.93,5.48 3.9,3.66 5.86,9.64 5.86,17.96 0,8.07 -1.96,13.93 -5.86,17.58 -3.91,3.66 -8.88,5.48 -14.93,5.48 z M 637.57,417.04 h 40.45 v 279.74 h -40.45 z m 41.97,320.94 h 14.74 c 24.2,0 41.45,-5.48 51.79,-16.44 10.33,-10.96 15.37,-26.9 15.12,-47.82 0,-6.3 -0.38,-12.91 -1.13,-19.85 -0.76,-6.93 -1.77,-14.05 -3.02,-21.36 l -7.94,-48.01 36.67,-6.05 5.67,33.27 c 2.27,12.6 3.78,24.45 4.54,35.53 h 35.16 v 39.31 l -10.21,10.21 h -24.95 c -1.77,13.61 -5.17,25.95 -10.21,37.05 -5.05,11.09 -11.72,20.6 -20.04,28.54 -8.32,7.94 -18.4,14.11 -30.24,18.52 -11.85,4.41 -25.46,6.62 -40.83,6.62 h -15.12 z m 79,-194.31 c -6.05,0 -11.03,-1.82 -14.93,-5.48 -3.91,-3.65 -5.86,-9.51 -5.86,-17.58 0,-8.32 1.95,-14.3 5.86,-17.96 3.91,-3.65 8.88,-5.48 14.93,-5.48 h 6.43 c 6.05,0 11.02,1.83 14.93,5.48 3.9,3.66 5.86,9.64 5.86,17.96 0,8.07 -1.96,13.93 -5.86,17.58 -3.91,3.66 -8.88,5.48 -14.93,5.48 z"
           class="st2"
           id="path673" /><path
           d="m 820.92,657.46 10.21,-10.21 h 9.45 c 17.64,0 29.8,-1.83 36.48,-5.48 6.67,-3.65 10.02,-10.27 10.02,-19.85 0,-4.03 -0.32,-9.13 -0.95,-15.31 -0.63,-6.17 -1.83,-14.42 -3.59,-24.76 l -6.05,-34.02 37.05,-6.05 5.29,34.02 c 1.26,8.57 2.27,16.95 3.02,25.14 0.76,8.19 1.13,15.19 1.13,20.98 0,25.71 -6.56,44.61 -19.66,56.7 -13.11,12.1 -34.02,18.15 -62.75,18.15 h -19.66 v -39.31 z m 35.53,118.7 c -6.05,0 -11.03,-1.83 -14.93,-5.48 -3.91,-3.66 -5.86,-9.52 -5.86,-17.58 0,-8.32 1.95,-14.31 5.86,-17.96 3.9,-3.66 8.88,-5.48 14.93,-5.48 h 6.43 c 6.05,0 11.02,1.82 14.93,5.48 3.9,3.65 5.86,9.64 5.86,17.96 0,8.06 -1.95,13.92 -5.86,17.58 -3.91,3.65 -8.88,5.48 -14.93,5.48 z m 56.33,0 c -6.05,0 -11.03,-1.83 -14.93,-5.48 -3.91,-3.66 -5.86,-9.52 -5.86,-17.58 0,-8.32 1.95,-14.31 5.86,-17.96 3.91,-3.66 8.88,-5.48 14.93,-5.48 h 6.43 c 6.05,0 11.02,1.82 14.93,5.48 3.9,3.65 5.86,9.64 5.86,17.96 0,8.06 -1.96,13.92 -5.86,17.58 -3.91,3.65 -8.88,5.48 -14.93,5.48 z m 46.87,-38.18 h 23.06 c 25.45,0 45.55,-3.66 60.29,-10.96 14.74,-7.31 24.76,-17.39 30.05,-30.24 h -44.99 c -20.41,0 -36.29,-5.79 -47.63,-17.39 -11.34,-11.59 -17.01,-27.72 -17.01,-48.39 0,-12.6 1.89,-24.32 5.67,-35.16 3.78,-10.83 9.01,-20.28 15.69,-28.35 6.67,-8.06 14.61,-14.36 23.82,-18.9 9.2,-4.54 19.09,-6.8 29.67,-6.8 22.43,0 40.19,9.26 53.3,27.78 13.1,18.52 20.04,44.42 20.79,77.68 h 18.52 v 39.31 l -10.21,10.21 h -12.85 c -6.56,28.98 -20.04,51.35 -40.45,67.1 -20.41,15.75 -47.76,23.63 -82.03,23.63 h -25.7 v -49.52 z m 38.18,-113.41 c 0,8.07 2.84,13.86 8.51,17.39 5.67,3.53 13.8,5.29 24.38,5.29 h 46.88 v -4.16 c 0,-15.88 -4.03,-28.48 -12.1,-37.8 -8.07,-9.32 -18.52,-13.99 -31.38,-13.99 -10.59,0 -19.28,3.15 -26.09,9.45 -6.8,6.31 -10.2,14.25 -10.2,23.82 z"
           class="st2"
           id="path675" /><path
           d="m 1120.69,657.46 10.21,-10.21 h 57.46 c 9.58,0 16.5,-1.32 20.79,-3.97 4.28,-2.65 6.43,-7.12 6.43,-13.42 0,-4.78 -1.45,-8.94 -4.35,-12.47 -2.9,-3.53 -8.38,-7.94 -16.45,-13.23 l -60.1,-39.69 v -89.21 l 176.16,-62.75 v 45.36 l -158.77,56.7 v 1.89 l 42.71,29.49 c 10.33,6.8 19.03,13.17 26.09,19.09 7.05,5.92 12.72,11.97 17.01,18.15 4.28,6.18 7.37,12.54 9.26,19.09 1.89,6.56 2.84,13.74 2.84,21.55 0,24.45 -5.8,42.72 -17.39,54.81 -11.59,12.1 -29.99,18.15 -55.19,18.15 h -56.7 v -39.33 z"
           class="st2"
           id="path677" /></g></g><rect
       style="fill:#f78e11;fill-opacity:1;stroke:#f78e11;stroke-width:0.0787354;stroke-opacity:1"
       id="rect50916"
       width="28.203257"
       height="71.692635"
       x="323.90387"
       y="-240.2495"
       transform="scale(1,-1)" /><path
       style="fill:#f78e11;fill-opacity:1;stroke:#f78e11;stroke-width:0.075;stroke-opacity:1"
       d="m 323.41927,187.60286 c 0,0 0.87541,5.98535 0.97786,6.91124 0.10245,0.9259 3.65033,-5.19918 3.65033,-5.19918 0,0 -3.22268,-2.88965 -3.27296,-2.823 -0.0503,0.0667 -1.35523,1.11094 -1.35523,1.11094 z"
       id="path51369" /></g><style
     id="style463">.st0{fill:#9633ff}.st2{fill:#111e35}</style></svg>
