<svg width="115" height="110" viewBox="0 0 115 110" fill="none" xmlns="http://www.w3.org/2000/svg">
<g clip-path="url(#clip0_90_762)">
<path d="M57.5233 106.658C66.6391 106.644 75.5863 104.168 83.4381 99.486C91.2899 94.8044 97.7631 88.0861 102.186 80.0275C121.076 46.4278 96.0647 3.03337 57.5221 3.44034C43.9849 3.44111 31.0006 8.87841 21.4296 18.5566C11.8573 28.2355 6.47949 41.3627 6.47949 55.0503C6.47949 68.7373 11.8573 81.8651 21.4296 91.542C31.0026 101.22 43.9862 106.658 57.5241 106.658H57.5233ZM57.5233 101.497C50.1803 101.496 42.9445 99.7126 36.4251 96.2967C29.9057 92.8814 24.2922 87.9333 20.0568 81.8685C21.7568 79.662 24.3006 78.2858 27.0587 78.0793C29.8176 77.8727 32.5337 78.8558 34.5368 80.7842C36.2899 82.7772 38.8064 83.9114 41.4443 83.8984C43.7778 83.8554 45.9996 82.8778 47.6206 81.1806C48.9179 79.8243 50.69 79.0393 52.5548 78.9957C54.4264 78.9573 56.2358 79.6746 57.5832 80.9887C58.9299 82.3019 59.7047 84.1044 59.735 85.996C59.7654 87.8883 59.0491 89.7153 57.7442 91.0723C56.7696 92.0906 56.2364 93.4601 56.2622 94.877C56.2873 96.2939 56.8699 97.6416 57.8802 98.6241C59.2899 99.4281 60.6535 100.313 61.9637 101.274C60.4886 101.426 59.0066 101.501 57.5231 101.497L57.5233 101.497ZM54.9711 53.3286C54.9908 51.9178 56.1279 50.7844 57.5233 50.7844C58.9187 50.7844 60.0557 51.9179 60.0755 53.3286C60.0557 54.7394 58.9187 55.8729 57.5233 55.8729C56.1279 55.8729 54.9909 54.7393 54.9711 53.3286ZM83.1804 93.5479C82.1398 92.2639 81.602 90.6364 81.6712 88.9777C81.7403 87.3181 82.411 85.743 83.5549 84.5509L90.1057 77.6867C91.141 76.6031 92.5029 75.8965 93.9772 75.6784C95.4523 75.4603 96.957 75.7437 98.256 76.4825C94.7193 83.3552 89.5365 89.2226 83.1804 93.5479ZM11.5827 55.0489C11.5911 46.5949 13.8819 38.3038 18.207 31.0691C22.5328 23.8339 28.7294 17.9297 36.1286 13.9931C43.5285 10.0565 51.8505 8.23552 60.198 8.7286C68.5451 9.22088 76.6011 12.0072 83.4974 16.787C90.3945 21.5676 95.8695 28.1602 99.3339 35.8545C102.797 43.549 104.119 52.0537 103.155 60.4516C96.6008 63.1026 89.7106 64.8107 82.6871 65.5263C90.1652 48.0893 76.7989 27.2515 57.5229 27.5247C38.2493 27.2521 24.8761 48.0915 32.3587 65.5263C25.3349 64.8106 18.4446 63.1026 11.8905 60.4516C11.6855 58.6584 11.5829 56.8543 11.5844 55.0495L11.5827 55.0489Z" fill="white"/>
</g>
<defs>
<clipPath id="clip0_90_762">
<rect width="115" height="110" fill="white"/>
</clipPath>
</defs>
</svg>
