<svg width="38" height="38" viewBox="0 0 38 38" fill="none" xmlns="http://www.w3.org/2000/svg">
<path d="M16.0755 8.79637C16.1562 8.96051 16.2094 9.13628 16.2333 9.31698L16.6741 15.8719L16.893 19.1665C16.8952 19.5053 16.9484 19.8419 17.0507 20.1655C17.315 20.7933 17.9508 21.1924 18.6426 21.1645L29.1833 20.4751C29.6397 20.4675 30.0805 20.6383 30.4086 20.9496C30.6821 21.2091 30.8586 21.5486 30.9142 21.9137L30.9329 22.1354C30.4967 28.1754 26.0607 33.2132 20.0332 34.5136C14.0058 35.8141 7.82494 33.0669 4.84645 27.7637C3.98777 26.223 3.45144 24.5295 3.26893 22.7827C3.19269 22.2655 3.15912 21.7432 3.16854 21.2208C3.15913 14.7453 7.77049 9.14696 14.2255 7.79735C15.0024 7.67638 15.764 8.08766 16.0755 8.79637Z" fill="#FF5E54"/>
<path opacity="0.4" d="M20.3776 3.16805C27.5974 3.35172 33.6654 8.54341 34.8334 15.5362L34.8222 15.5878L34.7904 15.6628L34.7948 15.8688C34.7783 16.1417 34.6729 16.4043 34.4913 16.6163C34.3022 16.8373 34.0438 16.9877 33.7592 17.0461L33.5857 17.0699L21.4245 17.8579C21.02 17.8978 20.6172 17.7673 20.3164 17.499C20.0657 17.2754 19.9054 16.9736 19.8601 16.6483L19.0439 4.50476C19.0297 4.4637 19.0297 4.41919 19.0439 4.37813C19.055 4.0434 19.2024 3.72699 19.453 3.49961C19.7036 3.27223 20.0366 3.15281 20.3776 3.16805Z" fill="#FF5E54"/>
</svg>
