<svg width="153" height="124" viewBox="0 0 153 124" fill="none" xmlns="http://www.w3.org/2000/svg">
<g clip-path="url(#clip0_90_994)">
<path d="M50.4475 91.2429H57.7945V84.2801H64.7734V76.9518H57.7945V70.1118H50.4475V76.9518H43.5908V84.2801H50.4475V91.2429Z" fill="white"/>
<path d="M87.1807 84.2808H108.363V91.61H87.1807V84.2808Z" fill="white"/>
<path d="M87.1807 73.2876H108.363V80.6168H87.1807V73.2876Z" fill="white"/>
<path d="M124.281 31.7579C124.281 21.6198 116.077 13.436 105.914 13.436H47.141C36.9781 13.436 28.7744 21.6198 28.7744 31.7579V90.388C28.7744 100.526 36.9781 108.71 47.141 108.71H105.914C116.077 108.71 124.281 100.526 124.281 90.388V31.7579ZM43.5901 36.2771H64.7727V43.6063H43.5901V36.2771ZM72.8542 101.381H47.141C41.0188 101.381 36.1215 96.4955 36.1215 90.3882L36.1206 64.7376H72.8537L72.8542 101.381ZM116.934 90.3874C116.934 96.4947 112.037 101.38 105.914 101.38L80.2012 101.381V64.7371H116.934L116.934 90.3874ZM116.934 57.4079H80.2008V20.7641H105.914C112.036 20.7641 116.933 25.6495 116.933 31.7568L116.934 57.4079Z" fill="white"/>
<path d="M102.73 29.8037L97.833 34.6891L92.8126 29.8037L87.6699 35.0556L92.5672 39.9418L87.6699 44.8272L92.8126 49.9574L97.833 45.072L102.73 49.9574L107.873 44.8272L102.976 39.9418L107.873 35.0556L102.73 29.8037Z" fill="white"/>
</g>
<defs>
<clipPath id="clip0_90_994">
<rect width="153" height="124" fill="white"/>
</clipPath>
</defs>
</svg>
