<svg width="132" height="113" viewBox="0 0 132 113" fill="none" xmlns="http://www.w3.org/2000/svg">
<path d="M100.516 52.4163C103.497 47.7744 106.105 42.7611 108.155 37.5622C113.558 23.8222 112.813 12.6816 106.105 5.99722C96.7894 -3.2866 78.7177 -0.687131 59.5261 11.3818C40.3355 -0.501454 22.2628 -3.2866 12.9469 5.99722C6.23955 12.6816 5.49429 23.8222 10.8975 37.5622C12.9469 42.7611 15.5554 47.5887 18.5364 52.4163C15.5554 57.0582 12.9469 62.0715 10.8975 67.2704C5.49429 81.0105 6.23955 92.1511 12.9469 98.8354C17.0459 102.735 22.4491 104.591 28.0386 104.406C36.9818 104.406 47.9745 100.507 59.5271 93.2651C70.8925 100.507 82.0725 104.406 91.0157 104.406C96.6052 104.591 102.008 102.735 106.107 98.8354C112.815 92.1511 113.56 81.0105 108.157 67.2704C106.107 62.0715 103.499 57.0582 100.518 52.4163H100.516ZM91.0136 11.5675C93.622 11.3818 96.2304 12.1245 98.2799 13.9813C101.447 17.1378 101.261 24.5649 97.721 33.663C96.4168 36.6338 95.1125 39.6046 93.4357 42.5755C89.8957 38.1192 86.1693 33.8487 82.2567 29.9495C78.344 26.0503 74.0588 22.1511 69.5872 18.8089C77.9714 13.9813 85.6104 11.5675 91.0125 11.5675H91.0136ZM74.2451 67.0837C69.5872 71.7256 64.7429 75.8105 59.5261 79.7097C54.3092 75.8105 49.2787 71.7256 44.8071 67.0837C40.1492 62.4418 36.0502 57.6142 32.1375 52.4153C36.0502 47.2163 40.1492 42.2031 44.8071 37.7468C49.465 33.1049 54.3092 29.02 59.5261 25.1208C64.7429 29.02 69.7735 33.1049 74.2451 37.7468C78.903 42.3887 83.002 47.2163 86.9146 52.4153C83.1883 57.6142 78.903 62.6275 74.2451 67.0837ZM21.3312 33.6619C17.7912 24.5638 17.6049 17.1367 20.7722 13.9802C25.0575 9.70969 36.2365 11.3808 49.465 18.6222C44.9934 22.15 40.8944 25.8635 36.7955 29.7627C32.8828 33.6619 28.9702 37.9325 25.6165 42.3887C23.9396 39.6036 22.6354 36.6328 21.3312 33.6619ZM20.7722 91.037C17.6049 87.6948 17.7912 80.2678 21.3312 71.1696C22.6354 68.1988 23.9396 65.228 25.6165 62.2572C29.1565 66.7134 32.8828 70.984 36.7955 74.8832C40.7081 78.7824 44.9934 82.6816 49.465 86.0237C36.4228 93.6365 25.2438 95.3076 20.7722 91.037ZM98.2799 91.037C93.9946 95.3076 82.8156 93.6365 69.5872 86.3951C74.0588 82.8672 78.344 79.1537 82.2567 75.2545C86.1693 71.3553 90.082 67.0848 93.4357 62.6285C95.1125 65.4137 96.4168 68.3845 97.721 71.541C101.261 80.2678 101.447 87.6948 98.2799 91.037Z" fill="white"/>
<path d="M70.7056 52.4165C70.7056 58.5438 65.6751 63.557 59.5266 63.557C53.3782 63.557 48.3477 58.5438 48.3477 52.4165C48.3477 46.2891 53.3782 41.2759 59.5266 41.2759C65.6751 41.2759 70.7056 46.2891 70.7056 52.4165Z" fill="white"/>
</svg>
