<svg width="173" height="137" viewBox="0 0 173 137" fill="none" xmlns="http://www.w3.org/2000/svg">
<g clip-path="url(#clip0_90_899)">
<path d="M27.2749 117.561H145.649C150.08 117.561 153.679 113.953 153.679 109.511V106.041C153.679 105.347 153.402 104.652 152.987 104.098L147.034 96.7415C146.064 95.4925 145.511 94.1041 145.511 92.5773V68.4264L145.51 32.8944C145.51 26.371 140.249 21.0962 133.741 21.0962L89.8529 21.0972H39.3188C32.8117 21.0972 27.5501 26.3717 27.5501 32.8954V92.4393C27.5501 93.9661 26.9967 95.4928 26.0271 96.6034L20.0743 104.237C19.659 104.791 19.3818 105.485 19.3818 106.18V109.65C19.3818 114.092 22.982 117.561 27.2739 117.561L27.2749 117.561ZM99.2686 106.041C99.2686 108.262 97.4685 110.065 95.2541 110.065H77.9479C75.7325 110.065 73.9334 108.261 73.9334 106.041V105.208H99.4081L99.4071 106.041H99.2686ZM39.32 84.3888V32.8951H133.743V93.4106H39.32V84.3888ZM93.3153 45.6644L98.7148 48.718L79.7475 82.0292L74.348 78.9757L93.3153 45.6644ZM70.6096 52.7436L59.5334 63.8476L70.6096 74.9516L66.1787 79.3936L55.1025 68.2896L50.8108 63.8476L66.3179 48.3016L70.6096 52.7436ZM117.821 59.4056L122.252 63.8476L106.745 79.3936L102.453 74.9506L113.529 63.8466L102.453 52.7426L106.884 48.3006L117.821 59.4056Z" fill="white"/>
</g>
<defs>
<clipPath id="clip0_90_899">
<rect width="173" height="137" fill="white"/>
</clipPath>
</defs>
</svg>
