<?xml version="1.0" encoding="UTF-8" standalone="no"?>
<svg
   xml:space="preserve"
   id="Layer_1"
   x="0"
   y="0"
   version="1.1"
   viewBox="0 0 1880.236 640.75055"
   sodipodi:docname="quizaat.svg"
   width="1880.2361"
   height="640.75055"
   inkscape:version="1.2.2 (1:1.2.2+202212051552+b0a8486541)"
   xmlns:inkscape="http://www.inkscape.org/namespaces/inkscape"
   xmlns:sodipodi="http://sodipodi.sourceforge.net/DTD/sodipodi-0.dtd"
   xmlns="http://www.w3.org/2000/svg"
   xmlns:svg="http://www.w3.org/2000/svg"><defs
     id="defs480" /><sodipodi:namedview
     id="namedview478"
     pagecolor="#ffffff"
     bordercolor="#000000"
     borderopacity="0.25"
     inkscape:showpageshadow="2"
     inkscape:pageopacity="0.0"
     inkscape:pagecheckerboard="0"
     inkscape:deskcolor="#d1d1d1"
     showgrid="false"
     inkscape:zoom="0.27532572"
     inkscape:cx="-50.848864"
     inkscape:cy="-185.23515"
     inkscape:window-width="1920"
     inkscape:window-height="1007"
     inkscape:window-x="0"
     inkscape:window-y="0"
     inkscape:window-maximized="1"
     inkscape:current-layer="Layer_1" /><style
     id="style463">.st0{fill:#9633ff}.st2{fill:#111e35}</style><g
     id="g679"
     transform="translate(-240.30696,-279.62473)"><path
       d="m 1869.74,424.8 67.47,-67.47 a 299.904,299.904 0 0 1 66.3,66.28 l -67.49,67.5 a 207.31,207.31 0 0 0 -66.28,-66.31 z m -284.08,66.31 -67.49,-67.5 a 300.117,300.117 0 0 1 66.3,-66.28 l 67.47,67.47 a 207.111,207.111 0 0 0 -66.28,66.31 z"
       class="st0"
       id="path667" /><path
       d="m 1648.34,600.01 c 0,-13.78 2.49,-27.01 7.01,-39.21 10.43,-27.99 31.64,-50.72 58.6,-63.08 2.51,-1.16 5.08,-2.22 7.7,-3.2 12.2,-4.52 25.4,-7.01 39.18,-7.01 13.78,0 26.99,2.49 39.18,7.01 2.62,0.98 5.19,2.04 7.7,3.2 26.96,12.36 48.18,35.08 58.6,63.08 4.52,12.2 7.01,25.43 7.01,39.21 0,13.78 -2.49,26.99 -7.01,39.19 -10.4,27.99 -31.64,50.72 -58.6,63.1 a 116.95,116.95 0 0 1 -7.67,3.2 c -12.2,4.52 -25.43,7.01 -39.21,7.01 -13.78,0 -27.01,-2.49 -39.21,-7.01 -2.59,-0.98 -5.16,-2.04 -7.67,-3.2 -26.96,-12.38 -48.21,-35.11 -58.6,-63.1 -4.52,-12.2 -7.01,-25.4 -7.01,-39.19 z"
       style="fill:#f4b400"
       id="path669" /><path
       d="m 1760.84,393.74 c -16.14,0 -31.83,1.85 -46.88,5.37 v -95.46 c 15.26,-2.41 30.93,-3.65 46.88,-3.65 15.95,0 31.62,1.24 46.88,3.65 v 95.46 c -15.05,-3.52 -30.74,-5.37 -46.88,-5.37 z m 298.83,485.41 c 0.77,1.88 1.2,3.94 1.16,6.14 -0.15,7.82 -6.65,14.44 -14.47,14.7 -2.47,0.08 -4.8,-0.42 -6.85,-1.39 -0.29,-0.13 -0.56,-0.29 -0.82,-0.42 l -94.98,-49 -9.02,-4.66 c -36.96,26.35 -80.17,44.5 -126.97,51.83 -15.27,2.41 -30.93,3.65 -46.88,3.65 -15.95,0 -31.62,-1.24 -46.88,-3.65 -47.86,-7.49 -91.97,-26.33 -129.48,-53.68 a 298.63,298.63 0 0 1 -66.3,-66.28 c -36.06,-49.5 -57.33,-110.46 -57.33,-176.37 h 79.29 c 7.87,0 14.42,6.09 14.94,13.95 0.87,12.97 2.94,25.61 6.1,37.83 a 205.6,205.6 0 0 0 24.5,57.1 206.882,206.882 0 0 0 66.3,66.28 203.63,203.63 0 0 0 61.99,25.72 c 15.05,3.52 30.74,5.37 46.88,5.37 16.14,0 31.83,-1.85 46.88,-5.37 9.13,-2.12 18.02,-4.84 26.62,-8.15 a 200.958,200.958 0 0 0 35.37,-17.57 206.882,206.882 0 0 0 66.3,-66.28 205.832,205.832 0 0 0 17.57,-35.4 c 7.16,-18.73 11.65,-38.75 13.04,-59.62 0.52,-7.82 7.1,-13.85 14.94,-13.85 h 79.28 c 0,64.8 -20.56,124.8 -55.48,173.86 l 4.68,9.05 48.92,94.8 c 0.25,0.43 0.46,0.93 0.7,1.41 z"
       class="st0"
       id="path671" /><path
       d="m 445.92,701.31 c -27.22,0 -50.09,-1.45 -68.61,-4.35 -18.52,-2.89 -33.52,-7.68 -44.99,-14.36 -11.47,-6.67 -19.72,-15.43 -24.76,-26.27 -5.05,-10.83 -7.56,-24.06 -7.56,-39.69 0,-10.08 1.32,-20.98 3.97,-32.7 2.65,-11.72 6.49,-23.63 11.53,-35.72 l 32.51,9.45 c -4.54,9.33 -8.07,18.15 -10.59,26.46 -2.52,8.32 -3.78,15.75 -3.78,22.3 0,7.56 1.57,13.93 4.73,19.09 3.15,5.17 8.25,9.33 15.31,12.47 7.05,3.15 16.19,5.48 27.41,6.99 11.21,1.51 24.88,2.27 41.01,2.27 h 52.92 c 16.88,0 31.06,-0.44 42.53,-1.32 11.47,-0.88 20.73,-2.33 27.79,-4.35 7.05,-2.01 12.03,-4.73 14.93,-8.13 2.89,-3.4 4.35,-7.62 4.35,-12.66 0,-3.78 -0.32,-8.75 -0.95,-14.93 -0.63,-6.17 -1.83,-14.18 -3.59,-24 l -6.43,-34.02 37.05,-6.05 5.29,34.02 c 1.26,8.32 2.33,16.44 3.21,24.38 0.88,7.94 1.32,14.81 1.32,20.6 0,15.88 -2.4,28.98 -7.18,39.31 -4.79,10.34 -13.04,18.52 -24.76,24.57 -11.72,6.05 -27.53,10.34 -47.44,12.85 -19.91,2.53 -44.98,3.79 -75.22,3.79 z M 416.81,558.8 c -6.05,0 -11.03,-1.82 -14.93,-5.48 -3.91,-3.65 -5.86,-9.51 -5.86,-17.58 0,-8.32 1.95,-14.3 5.86,-17.96 3.9,-3.65 8.88,-5.48 14.93,-5.48 h 6.43 c 6.05,0 11.02,1.83 14.93,5.48 3.91,3.66 5.86,9.64 5.86,17.96 0,8.07 -1.95,13.93 -5.86,17.58 -3.91,3.66 -8.88,5.48 -14.93,5.48 z m 56.32,0 c -6.05,0 -11.03,-1.82 -14.93,-5.48 -3.91,-3.65 -5.86,-9.51 -5.86,-17.58 0,-8.32 1.95,-14.3 5.86,-17.96 3.91,-3.65 8.88,-5.48 14.93,-5.48 h 6.43 c 6.05,0 11.02,1.83 14.93,5.48 3.9,3.66 5.86,9.64 5.86,17.96 0,8.07 -1.96,13.93 -5.86,17.58 -3.91,3.66 -8.88,5.48 -14.93,5.48 z M 637.57,417.04 h 40.45 v 279.74 h -40.45 z m 41.97,320.94 h 14.74 c 24.2,0 41.45,-5.48 51.79,-16.44 10.33,-10.96 15.37,-26.9 15.12,-47.82 0,-6.3 -0.38,-12.91 -1.13,-19.85 -0.76,-6.93 -1.77,-14.05 -3.02,-21.36 l -7.94,-48.01 36.67,-6.05 5.67,33.27 c 2.27,12.6 3.78,24.45 4.54,35.53 h 35.16 v 39.31 l -10.21,10.21 h -24.95 c -1.77,13.61 -5.17,25.95 -10.21,37.05 -5.05,11.09 -11.72,20.6 -20.04,28.54 -8.32,7.94 -18.4,14.11 -30.24,18.52 -11.85,4.41 -25.46,6.62 -40.83,6.62 h -15.12 z m 79,-194.31 c -6.05,0 -11.03,-1.82 -14.93,-5.48 -3.91,-3.65 -5.86,-9.51 -5.86,-17.58 0,-8.32 1.95,-14.3 5.86,-17.96 3.91,-3.65 8.88,-5.48 14.93,-5.48 h 6.43 c 6.05,0 11.02,1.83 14.93,5.48 3.9,3.66 5.86,9.64 5.86,17.96 0,8.07 -1.96,13.93 -5.86,17.58 -3.91,3.66 -8.88,5.48 -14.93,5.48 z"
       class="st2"
       id="path673" /><path
       d="m 820.92,657.46 10.21,-10.21 h 9.45 c 17.64,0 29.8,-1.83 36.48,-5.48 6.67,-3.65 10.02,-10.27 10.02,-19.85 0,-4.03 -0.32,-9.13 -0.95,-15.31 -0.63,-6.17 -1.83,-14.42 -3.59,-24.76 l -6.05,-34.02 37.05,-6.05 5.29,34.02 c 1.26,8.57 2.27,16.95 3.02,25.14 0.76,8.19 1.13,15.19 1.13,20.98 0,25.71 -6.56,44.61 -19.66,56.7 -13.11,12.1 -34.02,18.15 -62.75,18.15 h -19.66 v -39.31 z m 35.53,118.7 c -6.05,0 -11.03,-1.83 -14.93,-5.48 -3.91,-3.66 -5.86,-9.52 -5.86,-17.58 0,-8.32 1.95,-14.31 5.86,-17.96 3.9,-3.66 8.88,-5.48 14.93,-5.48 h 6.43 c 6.05,0 11.02,1.82 14.93,5.48 3.9,3.65 5.86,9.64 5.86,17.96 0,8.06 -1.95,13.92 -5.86,17.58 -3.91,3.65 -8.88,5.48 -14.93,5.48 z m 56.33,0 c -6.05,0 -11.03,-1.83 -14.93,-5.48 -3.91,-3.66 -5.86,-9.52 -5.86,-17.58 0,-8.32 1.95,-14.31 5.86,-17.96 3.91,-3.66 8.88,-5.48 14.93,-5.48 h 6.43 c 6.05,0 11.02,1.82 14.93,5.48 3.9,3.65 5.86,9.64 5.86,17.96 0,8.06 -1.96,13.92 -5.86,17.58 -3.91,3.65 -8.88,5.48 -14.93,5.48 z m 46.87,-38.18 h 23.06 c 25.45,0 45.55,-3.66 60.29,-10.96 14.74,-7.31 24.76,-17.39 30.05,-30.24 h -44.99 c -20.41,0 -36.29,-5.79 -47.63,-17.39 -11.34,-11.59 -17.01,-27.72 -17.01,-48.39 0,-12.6 1.89,-24.32 5.67,-35.16 3.78,-10.83 9.01,-20.28 15.69,-28.35 6.67,-8.06 14.61,-14.36 23.82,-18.9 9.2,-4.54 19.09,-6.8 29.67,-6.8 22.43,0 40.19,9.26 53.3,27.78 13.1,18.52 20.04,44.42 20.79,77.68 h 18.52 v 39.31 l -10.21,10.21 h -12.85 c -6.56,28.98 -20.04,51.35 -40.45,67.1 -20.41,15.75 -47.76,23.63 -82.03,23.63 h -25.7 v -49.52 z m 38.18,-113.41 c 0,8.07 2.84,13.86 8.51,17.39 5.67,3.53 13.8,5.29 24.38,5.29 h 46.88 v -4.16 c 0,-15.88 -4.03,-28.48 -12.1,-37.8 -8.07,-9.32 -18.52,-13.99 -31.38,-13.99 -10.59,0 -19.28,3.15 -26.09,9.45 -6.8,6.31 -10.2,14.25 -10.2,23.82 z"
       class="st2"
       id="path675" /><path
       d="m 1120.69,657.46 10.21,-10.21 h 57.46 c 9.58,0 16.5,-1.32 20.79,-3.97 4.28,-2.65 6.43,-7.12 6.43,-13.42 0,-4.78 -1.45,-8.94 -4.35,-12.47 -2.9,-3.53 -8.38,-7.94 -16.45,-13.23 l -60.1,-39.69 v -89.21 l 176.16,-62.75 v 45.36 l -158.77,56.7 v 1.89 l 42.71,29.49 c 10.33,6.8 19.03,13.17 26.09,19.09 7.05,5.92 12.72,11.97 17.01,18.15 4.28,6.18 7.37,12.54 9.26,19.09 1.89,6.56 2.84,13.74 2.84,21.55 0,24.45 -5.8,42.72 -17.39,54.81 -11.59,12.1 -29.99,18.15 -55.19,18.15 h -56.7 v -39.33 z"
       class="st2"
       id="path677" /></g></svg>
