<svg width="38" height="38" viewBox="0 0 38 38" fill="none" xmlns="http://www.w3.org/2000/svg">
<path opacity="0.4" d="M20.5461 4.92981L24.0714 12.0141C24.3311 12.5273 24.8268 12.8838 25.3985 12.963L33.3169 14.1162C33.7793 14.1812 34.199 14.4251 34.4825 14.7974C34.7628 15.1649 34.8831 15.6307 34.815 16.0885C34.7596 16.4687 34.5806 16.8204 34.3067 17.0897L28.569 22.6516C28.1493 23.0397 27.9593 23.6147 28.0607 24.1771L29.4733 31.9964C29.6237 32.9405 28.9982 33.8308 28.0607 34.0098C27.6742 34.0716 27.2783 34.0067 26.9299 33.8293L19.8667 30.1493C19.3425 29.8847 18.7233 29.8847 18.1991 30.1493L11.1359 33.8293C10.2681 34.2902 9.19278 33.9766 8.70976 33.1211C8.53081 32.7806 8.46746 32.3924 8.52606 32.0138L9.93869 24.1929C10.04 23.6322 9.84842 23.0539 9.43033 22.6658L3.69269 17.1071C3.01012 16.4481 2.98953 15.3629 3.64676 14.6802C3.66101 14.6659 3.67685 14.6501 3.69269 14.6342C3.96508 14.357 4.32299 14.1812 4.7094 14.1352L12.6278 12.9804C13.1979 12.8996 13.6936 12.5463 13.9549 12.0299L17.3534 4.92981C17.6559 4.3215 18.2831 3.94289 18.964 3.95873H19.1763C19.767 4.03002 20.2817 4.39595 20.5461 4.92981Z" fill="#F4B400"/>
<path d="M18.9877 29.952C18.681 29.9615 18.3822 30.0439 18.1134 30.1913L11.0848 33.8629C10.2248 34.2733 9.19563 33.9548 8.71346 33.1324C8.53482 32.7964 8.47 32.4114 8.53008 32.0342L9.93391 24.2299C10.0288 23.6626 9.83906 23.0858 9.42644 22.6865L3.68623 17.1292C3.00486 16.462 2.99221 15.3671 3.65935 14.6841C3.66884 14.6746 3.67674 14.6667 3.68623 14.6587C3.95814 14.3893 4.3091 14.2119 4.68693 14.1564L12.6119 12.9901C13.1858 12.9172 13.6838 12.5591 13.9367 12.0393L17.3815 4.84986C17.7087 4.26988 18.3364 3.92443 19.0003 3.96088C18.9877 4.43151 18.9877 29.6319 18.9877 29.952Z" fill="#F4B400"/>
</svg>
