<svg width="128" height="123" viewBox="0 0 128 123" fill="none" xmlns="http://www.w3.org/2000/svg">
<path d="M116.012 44.2895C114.968 44.2895 113.924 44.4185 112.881 44.6775L98.9234 20.7488C101.271 18.6791 102.706 15.7044 102.706 12.342C102.706 6.13369 97.6185 0.959473 91.2264 0.959473C85.8778 0.959473 81.4429 4.5811 80.138 9.4964H51.4397C50.1349 4.5811 45.6998 0.959473 40.3513 0.959473C34.0901 0.959473 28.8717 6.00388 28.8717 12.342C28.8717 15.5756 30.1766 18.4211 32.394 20.4909L18.3058 44.8075C17.2621 44.5486 16.2184 44.4195 15.1748 44.4195C8.78273 44.4195 3.69531 49.4639 3.69531 55.802C3.69531 62.1401 8.78273 67.1845 15.1748 67.1845C16.2185 67.1845 17.2622 67.0555 18.3058 66.7966L32.394 91.1132C30.3067 93.1829 28.8717 96.0285 28.8717 99.2621C28.8717 105.47 33.9592 110.645 40.3513 110.645C45.6998 110.645 50.1348 107.023 51.4397 102.108H79.3553C80.6601 107.023 85.0952 110.645 90.4437 110.645C96.7049 110.645 101.923 105.6 101.923 99.2621C101.923 96.1576 100.749 93.4418 98.6621 91.3721L112.881 66.7968C113.924 67.0557 114.968 67.1847 116.011 67.1847C122.273 67.1847 127.491 62.1403 127.491 55.8023C127.491 49.4623 122.404 44.2879 116.011 44.2879L116.012 44.2895ZM91.2268 6.65044C94.488 6.65044 97.0967 9.23709 97.0967 12.4707C97.0967 15.7043 94.488 18.2909 91.2268 18.2909C87.9657 18.2909 85.357 15.7043 85.357 12.4707C85.4871 9.23709 88.0959 6.65044 91.2268 6.65044ZM40.2222 6.65044C43.4834 6.65044 46.0921 9.23709 46.0921 12.4707C46.0921 15.7043 43.4834 18.2909 40.2222 18.2909C36.9611 18.2909 34.3524 15.7043 34.3524 12.4707C34.3524 9.23709 37.0922 6.65044 40.2222 6.65044ZM9.17593 55.6718C9.17593 52.4382 11.7846 49.8515 15.0458 49.8515C18.307 49.8515 20.9157 52.4382 20.9157 55.6718C20.9157 58.9054 18.307 61.492 15.0458 61.492C11.7856 61.492 9.17593 58.9054 9.17593 55.6718ZM40.2222 104.693C36.9611 104.693 34.3524 102.106 34.3524 98.8728C34.3524 95.6392 36.9611 93.0526 40.2222 93.0526C43.4834 93.0526 46.0921 95.6392 46.0921 98.8728C46.0921 102.106 43.4834 104.693 40.2222 104.693ZM90.4442 104.693C87.183 104.693 84.5743 102.106 84.5743 98.8728C84.5743 95.6392 87.183 93.0526 90.4442 93.0526C93.7053 93.0526 96.314 95.6392 96.314 98.8728C96.314 102.106 93.5742 104.693 90.4442 104.693ZM93.8355 88.1371C92.7919 87.7491 91.6181 87.6201 90.4442 87.6201C85.0956 87.6201 80.6607 91.2417 79.3557 96.157H51.4402C50.1353 91.2417 45.7003 87.6201 40.3517 87.6201C39.308 87.6201 38.2644 87.7491 37.2208 88.008L23.1326 63.6914C25.2199 61.6217 26.6548 58.7761 26.6548 55.5425C26.6548 52.3089 25.35 49.4633 23.1326 47.3936L37.2208 23.077C38.2645 23.3359 39.3081 23.4649 40.3517 23.4649C45.7003 23.4649 50.1352 19.8433 51.4402 14.928H80.1384C81.4433 19.8433 85.8783 23.4649 91.2268 23.4649C92.1404 23.4649 93.0531 23.3359 93.9667 23.206L108.055 47.3933C105.968 49.463 104.533 52.3086 104.533 55.5422C104.533 58.7758 105.837 61.6213 108.055 63.6911L93.8355 88.1371ZM116.011 61.4922C112.75 61.4922 110.141 58.9056 110.141 55.672C110.141 52.4384 112.75 49.8517 116.011 49.8517C119.272 49.8517 121.881 52.4384 121.881 55.672C121.882 58.9056 119.272 61.4922 116.011 61.4922Z" fill="white"/>
<path d="M50.658 30.0615L35.7871 55.6716L50.658 81.2817H80.3998L95.2707 55.6716L80.3998 30.0615H50.658ZM60.7026 52.8258H44.0055L52.3541 38.4686L60.7026 52.8258ZM57.1803 35.7529H73.8775L65.5289 50.1101L57.1803 35.7529ZM60.7026 58.5172L52.3541 72.8743L44.0055 58.5172H60.7026ZM65.5289 61.2329L73.8775 75.5901H57.1803L65.5289 61.2329ZM70.3552 58.5172H87.0524L78.7038 72.8743L70.3552 58.5172ZM70.3552 52.8258L78.7038 38.4686L87.0524 52.8258H70.3552Z" fill="white"/>
</svg>
