<svg width="34" height="34" viewBox="0 0 34 34" fill="none" xmlns="http://www.w3.org/2000/svg">
<path d="M30.3552 3.65251C29.6469 2.92859 28.5985 2.66084 27.621 2.94417L4.82685 9.53026C3.79552 9.81642 3.06452 10.6338 2.8676 11.6708C2.66644 12.7277 3.3691 14.0707 4.2871 14.6317L11.4144 18.9837C12.1454 19.4313 13.0889 19.3194 13.6938 18.7131L21.8552 10.5517C22.266 10.1253 22.946 10.1253 23.3569 10.5517C23.7677 10.9611 23.7677 11.6283 23.3569 12.0533L15.1813 20.2148C14.5749 20.8211 14.4616 21.7618 14.9079 22.4942L19.2627 29.6483C19.7727 30.4969 20.651 30.98 21.6144 30.98C21.7277 30.98 21.8552 30.98 21.9685 30.9644C23.0735 30.8242 23.9519 30.0719 24.2777 29.0094L31.0352 6.38667C31.3327 5.42334 31.0635 4.37501 30.3552 3.65251Z" fill="#9633FF"/>
<path opacity="0.4" fill-rule="evenodd" clip-rule="evenodd" d="M4.26429 23.8109C3.99229 23.8109 3.72029 23.7075 3.51346 23.4993C3.09838 23.0842 3.09838 22.4127 3.51346 21.9976L5.44721 20.0624C5.86229 19.6488 6.53521 19.6488 6.95029 20.0624C7.36396 20.4775 7.36396 21.1504 6.95029 21.5655L5.01513 23.4993C4.80829 23.7075 4.53629 23.8109 4.26429 23.8109ZM9.59266 25.5002C9.32066 25.5002 9.04866 25.3968 8.84183 25.1885C8.42674 24.7734 8.42674 24.1019 8.84183 23.6868L10.7756 21.7517C11.1907 21.338 11.8636 21.338 12.2787 21.7517C12.6923 22.1668 12.6923 22.8397 12.2787 23.2548L10.3435 25.1885C10.1367 25.3968 9.86466 25.5002 9.59266 25.5002ZM9.95207 30.5548C10.1589 30.7631 10.4309 30.8665 10.7029 30.8665C10.9749 30.8665 11.2469 30.7631 11.4537 30.5548L13.3889 28.6211C13.8026 28.206 13.8026 27.5331 13.3889 27.118C12.9738 26.7043 12.3009 26.7043 11.8858 27.118L9.95207 29.0532C9.53699 29.4683 9.53699 30.1398 9.95207 30.5548Z" fill="#9633FF"/>
</svg>
