<svg width="40" height="40" viewBox="0 0 40 40" fill="none" xmlns="http://www.w3.org/2000/svg">
<path opacity="0.4" d="M35.4163 22.4606C34.048 22.4606 32.9347 21.3575 32.9347 20.0017C32.9347 18.6442 34.048 17.541 35.4163 17.541C35.748 17.541 36.0663 17.4105 36.2997 17.1793C36.5347 16.9465 36.6663 16.6311 36.6663 16.3024L36.6647 11.8403C36.6647 8.06837 33.5663 5 29.7597 5H10.2397C6.43301 5 3.33467 8.06837 3.33467 11.8403L3.33301 16.4461C3.33301 16.7747 3.46467 17.0902 3.69967 17.323C3.93301 17.5542 4.25134 17.6847 4.58301 17.6847C5.99801 17.6847 7.06467 18.6805 7.06467 20.0017C7.06467 21.3575 5.95134 22.4606 4.58301 22.4606C3.89301 22.4606 3.33301 23.0155 3.33301 23.6992V28.1581C3.33301 31.93 6.42967 35 10.238 35H29.7613C33.5697 35 36.6663 31.93 36.6663 28.1581V23.6992C36.6663 23.0155 36.1063 22.4606 35.4163 22.4606Z" fill="#FF5E54"/>
<path d="M25.7174 19.3144L23.7524 21.2277L24.2174 23.9327C24.2974 24.4011 24.1091 24.8627 23.7241 25.1394C23.3424 25.4194 22.8441 25.4544 22.4241 25.2311L19.9991 23.9561L17.5691 25.2327C17.3891 25.3277 17.1924 25.3777 16.9974 25.3777C16.7424 25.3777 16.4907 25.2977 16.2741 25.1411C15.8907 24.8627 15.7024 24.4011 15.7824 23.9327L16.2457 21.2277L14.2807 19.3144C13.9407 18.9844 13.8224 18.4994 13.9691 18.0477C14.1174 17.5977 14.5007 17.2777 14.9691 17.2111L17.6791 16.8161L18.8941 14.3544C19.1057 13.9311 19.5291 13.6677 19.9991 13.6677H20.0024C20.4741 13.6694 20.8974 13.9327 21.1057 14.3561L22.3207 16.8161L25.0357 17.2127C25.4991 17.2777 25.8824 17.5977 26.0291 18.0477C26.1774 18.4994 26.0591 18.9844 25.7174 19.3144Z" fill="#FF5E54"/>
</svg>
