<svg width="1984" height="893" viewBox="0 0 1984 893" fill="none" xmlns="http://www.w3.org/2000/svg">
<circle cx="93.3726" cy="879.373" r="13.3725" fill="#F4B400"/>
<circle cx="176" cy="121" r="62" fill="#9633FF"/>
<path opacity="0.8" d="M1802.02 152.694C1727.25 168.693 1770.87 234.104 1802.02 264.809C1840.44 321.79 1889.19 230.872 1947.1 224.205C2005.02 217.539 1985.52 122.393 1927.61 75.1227C1869.69 27.8526 1895.49 132.695 1802.02 152.694Z" stroke="#9633FF" stroke-width="3"/>
<path opacity="0.5" d="M1794.81 177.161C1722.71 192.552 1764.77 255.476 1794.81 285.014C1831.85 339.829 1878.84 252.367 1934.68 245.954C1990.51 239.541 1971.72 148.012 1915.88 102.538C1860.04 57.0651 1884.92 157.922 1794.81 177.161Z" stroke="#9633FF" stroke-width="3"/>
</svg>
