<svg width="42" height="42" viewBox="0 0 42 42" fill="none" xmlns="http://www.w3.org/2000/svg">
<path d="M20.9109 25.4448C14.8735 25.4448 9.7793 26.4314 9.7793 30.2389C9.7793 34.0481 14.9064 35 20.9109 35C26.9484 35 32.0426 34.0134 32.0426 30.2058C32.0426 26.3967 26.9155 25.4448 20.9109 25.4448Z" fill="#00C9B7"/>
<path opacity="0.4" d="M20.9112 21.8173C24.9994 21.8173 28.2774 18.5204 28.2774 14.4087C28.2774 10.2954 24.9994 7 20.9112 7C16.823 7 13.5449 10.2954 13.5449 14.4087C13.5449 18.5204 16.823 21.8173 20.9112 21.8173Z" fill="#00C9B7"/>
<path opacity="0.4" d="M36.904 16.1338C37.9617 11.9732 34.8607 8.23657 30.912 8.23657C30.4826 8.23657 30.0721 8.28385 29.6709 8.36423C29.6177 8.37683 29.5581 8.40363 29.5268 8.4509C29.4907 8.51079 29.5174 8.59117 29.5565 8.64317C30.7427 10.3169 31.4244 12.3546 31.4244 14.542C31.4244 16.6381 30.7991 18.5923 29.7023 20.214C29.5894 20.381 29.6897 20.6064 29.8887 20.6411C30.1645 20.6899 30.4466 20.7151 30.7349 20.723C33.6103 20.7987 36.191 18.9374 36.904 16.1338Z" fill="#00C9B7"/>
<path d="M39.9165 25.9296C39.39 24.8012 38.1192 24.0274 36.1871 23.6475C35.2751 23.4238 32.8072 23.1086 30.5116 23.1511C30.4771 23.1558 30.4583 23.1795 30.4552 23.1952C30.4505 23.2173 30.4599 23.2551 30.5053 23.2788C31.5662 23.8067 35.6669 26.1029 35.1514 30.9459C35.1294 31.1555 35.2971 31.3367 35.5055 31.3052C36.5146 31.1602 39.111 30.5992 39.9165 28.8514C40.3615 27.9279 40.3615 26.8546 39.9165 25.9296Z" fill="#00C9B7"/>
<path opacity="0.4" d="M12.3289 8.36471C11.9293 8.28276 11.5172 8.23706 11.0879 8.23706C7.13913 8.23706 4.03813 11.9737 5.09739 16.1343C5.80878 18.9379 8.38956 20.7991 11.2649 20.7235C11.5532 20.7156 11.8369 20.6888 12.1111 20.6415C12.3101 20.6069 12.4104 20.3815 12.2975 20.2145C11.2007 18.5912 10.5755 16.6386 10.5755 14.5425C10.5755 12.3535 11.2587 10.3158 12.4448 8.64366C12.4824 8.59165 12.5106 8.51128 12.473 8.45139C12.4417 8.40254 12.3837 8.37732 12.3289 8.36471Z" fill="#00C9B7"/>
<path d="M5.81272 23.6472C3.88067 24.027 2.61143 24.8008 2.08494 25.9292C1.63835 26.8543 1.63835 27.9276 2.08494 28.8527C2.89035 30.5988 5.4868 31.1615 6.49591 31.3049C6.70432 31.3364 6.87042 31.1567 6.84848 30.9456C6.33295 26.1042 10.4337 23.808 11.4961 23.28C11.5399 23.2548 11.5493 23.2186 11.5446 23.1949C11.5415 23.1792 11.5243 23.1555 11.4898 23.1524C9.19264 23.1082 6.72626 23.4234 5.81272 23.6472Z" fill="#00C9B7"/>
</svg>
